<?xml version="1.0" encoding="utf-8" standalone="no"?>
<!DOCTYPE svg PUBLIC "-//W3C//DTD SVG 1.1//EN"
  "http://www.w3.org/Graphics/SVG/1.1/DTD/svg11.dtd">
<svg xmlns:xlink="http://www.w3.org/1999/xlink" width="576pt" height="720pt" viewBox="0 0 576 720" xmlns="http://www.w3.org/2000/svg" version="1.1">
 <metadata>
  <rdf:RDF xmlns:dc="http://purl.org/dc/elements/1.1/" xmlns:cc="http://creativecommons.org/ns#" xmlns:rdf="http://www.w3.org/1999/02/22-rdf-syntax-ns#">
   <cc:Work>
    <dc:type rdf:resource="http://purl.org/dc/dcmitype/StillImage"/>
    <dc:date>2026-04-26T16:20:07.271685</dc:date>
    <dc:format>image/svg+xml</dc:format>
    <dc:creator>
     <cc:Agent>
      <dc:title>Matplotlib v3.10.9, https://matplotlib.org/</dc:title>
     </cc:Agent>
    </dc:creator>
   </cc:Work>
  </rdf:RDF>
 </metadata>
 <defs>
  <style type="text/css">*{stroke-linejoin: round; stroke-linecap: butt}</style>
 </defs>
 <g id="figure_1">
  <g id="patch_1">
   <path d="M 0 720 
L 576 720 
L 576 0 
L 0 0 
z
" style="fill: #ffffff"/>
  </g>
  <g id="axes_1">
   <g id="patch_2">
    <path d="M 72 206.921739 
L 518.4 206.921739 
L 518.4 86.4 
L 72 86.4 
z
" style="fill: #ffffff"/>
   </g>
   <g id="FillBetweenPolyCollection_1">
    <defs>
     <path id="md00baf2144" d="M 72 -513.079458 
L 72 -513.078261 
L 76.509091 -513.078261 
L 81.018182 -513.078261 
L 85.527273 -513.078261 
L 90.036364 -513.078261 
L 94.545455 -513.078261 
L 99.054545 -513.078261 
L 103.563636 -513.078261 
L 108.072727 -513.078261 
L 112.581818 -513.078261 
L 117.090909 -513.078261 
L 121.6 -513.078261 
L 126.109091 -513.078261 
L 130.618182 -513.078261 
L 135.127273 -513.078261 
L 139.636364 -513.078261 
L 144.145455 -513.078261 
L 148.654545 -513.078261 
L 153.163636 -513.078261 
L 157.672727 -513.078261 
L 162.181818 -513.078261 
L 166.690909 -513.078261 
L 171.2 -513.078261 
L 175.709091 -513.078261 
L 180.218182 -513.078261 
L 184.727273 -513.078261 
L 189.236364 -513.078261 
L 193.745455 -513.078261 
L 198.254545 -513.078261 
L 202.763636 -513.078261 
L 207.272727 -513.078261 
L 211.781818 -513.078261 
L 216.290909 -513.078261 
L 220.8 -513.078261 
L 225.309091 -513.078261 
L 229.818182 -513.078261 
L 234.327273 -513.078261 
L 238.836364 -513.078261 
L 243.345455 -513.078261 
L 247.854545 -513.078261 
L 252.363636 -513.078261 
L 256.872727 -513.078261 
L 261.381818 -513.078261 
L 265.890909 -513.078261 
L 270.4 -513.078261 
L 274.909091 -513.078261 
L 279.418182 -513.078261 
L 283.927273 -513.078261 
L 288.436364 -513.078261 
L 292.945455 -513.078261 
L 297.454545 -513.078261 
L 301.963636 -513.078261 
L 306.472727 -513.078261 
L 310.981818 -513.078261 
L 315.490909 -513.078261 
L 320 -513.078261 
L 324.509091 -513.078261 
L 329.018182 -513.078261 
L 333.527273 -513.078261 
L 338.036364 -513.078261 
L 342.545455 -513.078261 
L 347.054545 -513.078261 
L 351.563636 -513.078261 
L 356.072727 -513.078261 
L 360.581818 -513.078261 
L 365.090909 -513.078261 
L 369.6 -513.078261 
L 374.109091 -513.078261 
L 378.618182 -513.078261 
L 383.127273 -513.078261 
L 387.636364 -513.078261 
L 392.145455 -513.078261 
L 396.654545 -513.078261 
L 401.163636 -513.078261 
L 405.672727 -513.078261 
L 410.181818 -513.078261 
L 414.690909 -513.078261 
L 419.2 -513.078261 
L 423.709091 -513.078261 
L 428.218182 -513.078261 
L 432.727273 -513.078261 
L 437.236364 -513.078261 
L 441.745455 -513.078261 
L 446.254545 -513.078261 
L 450.763636 -513.078261 
L 455.272727 -513.078261 
L 459.781818 -513.078261 
L 464.290909 -513.078261 
L 468.8 -513.078261 
L 473.309091 -513.078261 
L 477.818182 -513.078261 
L 482.327273 -513.078261 
L 486.836364 -513.078261 
L 491.345455 -513.078261 
L 495.854545 -513.078261 
L 500.363636 -513.078261 
L 504.872727 -513.078261 
L 509.381818 -513.078261 
L 513.890909 -513.078261 
L 518.4 -513.078261 
L 518.4 -513.078261 
L 518.4 -513.078261 
L 513.890909 -513.078261 
L 509.381818 -513.078261 
L 504.872727 -513.078261 
L 500.363636 -513.078261 
L 495.854545 -513.078261 
L 491.345455 -513.078261 
L 486.836364 -513.078261 
L 482.327273 -513.078261 
L 477.818182 -513.078261 
L 473.309091 -513.078261 
L 468.8 -513.078261 
L 464.290909 -513.078261 
L 459.781818 -513.078261 
L 455.272727 -513.078261 
L 450.763636 -513.078261 
L 446.254545 -513.078261 
L 441.745455 -513.078261 
L 437.236364 -513.078261 
L 432.727273 -513.078261 
L 428.218182 -513.078261 
L 423.709091 -513.078261 
L 419.2 -513.078261 
L 414.690909 -513.078261 
L 410.181818 -513.078261 
L 405.672727 -513.078261 
L 401.163636 -513.078261 
L 396.654545 -513.078261 
L 392.145455 -513.078261 
L 387.636364 -513.078261 
L 383.127273 -513.078261 
L 378.618182 -513.078261 
L 374.109091 -513.078261 
L 369.6 -513.078261 
L 365.090909 -513.078261 
L 360.581818 -513.078261 
L 356.072727 -513.078261 
L 351.563636 -513.078261 
L 347.054545 -513.078261 
L 342.545455 -513.078261 
L 338.036364 -513.078261 
L 333.527273 -513.078261 
L 329.018182 -513.078261 
L 324.509091 -513.078261 
L 320 -513.078261 
L 315.490909 -513.078263 
L 310.981818 -513.078267 
L 306.472727 -513.07828 
L 301.963636 -513.078317 
L 297.454545 -513.078423 
L 292.945455 -513.07871 
L 288.436364 -513.079458 
L 283.927273 -513.081324 
L 279.418182 -513.085796 
L 274.909091 -513.096068 
L 270.4 -513.118691 
L 265.890909 -513.166459 
L 261.381818 -513.263118 
L 256.872727 -513.450518 
L 252.363636 -513.798502 
L 247.854545 -514.417136 
L 243.345455 -515.469544 
L 238.836364 -517.18172 
L 234.327273 -519.843721 
L 229.818182 -523.79525 
L 225.309091 -529.389104 
L 220.8 -536.929356 
L 216.290909 -546.587801 
L 211.781818 -558.311408 
L 207.272727 -571.742491 
L 202.763636 -586.178392 
L 198.254545 -600.595004 
L 193.745455 -613.746481 
L 189.236364 -624.333846 
L 184.727273 -631.213511 
L 180.218182 -633.6 
L 175.709091 -631.213511 
L 171.2 -624.333846 
L 166.690909 -613.746481 
L 162.181818 -600.595004 
L 157.672727 -586.178392 
L 153.163636 -571.742491 
L 148.654545 -558.311408 
L 144.145455 -546.587801 
L 139.636364 -536.929356 
L 135.127273 -529.389104 
L 130.618182 -523.79525 
L 126.109091 -519.843721 
L 121.6 -517.18172 
L 117.090909 -515.469544 
L 112.581818 -514.417136 
L 108.072727 -513.798502 
L 103.563636 -513.450518 
L 99.054545 -513.263118 
L 94.545455 -513.166459 
L 90.036364 -513.118691 
L 85.527273 -513.096068 
L 81.018182 -513.085796 
L 76.509091 -513.081324 
L 72 -513.079458 
z
" style="stroke: #0000ff; stroke-opacity: 0.4"/>
    </defs>
    <g clip-path="url(#p079cc47432)">
     <use xlink:href="#md00baf2144" x="0" y="720" style="fill: #0000ff; fill-opacity: 0.4; stroke: #0000ff; stroke-opacity: 0.4"/>
    </g>
   </g>
   <g id="matplotlib.axis_1">
    <g id="xtick_1">
     <g id="line2d_1">
      <path d="M 180.218182 206.921739 
L 180.218182 86.4 
" clip-path="url(#p079cc47432)" style="fill: none; stroke: #b0b0b0; stroke-width: 0.8; stroke-linecap: square"/>
     </g>
     <g id="line2d_2">
      <defs>
       <path id="m8e3d6f7d21" d="M 0 0 
L 0 3.5 
" style="stroke: #000000; stroke-width: 0.8"/>
      </defs>
      <g>
       <use xlink:href="#m8e3d6f7d21" x="180.218182" y="206.921739" style="stroke: #000000; stroke-width: 0.8"/>
      </g>
     </g>
    </g>
    <g id="xtick_2">
     <g id="line2d_3">
      <path d="M 292.945455 206.921739 
L 292.945455 86.4 
" clip-path="url(#p079cc47432)" style="fill: none; stroke: #b0b0b0; stroke-width: 0.8; stroke-linecap: square"/>
     </g>
     <g id="line2d_4">
      <g>
       <use xlink:href="#m8e3d6f7d21" x="292.945455" y="206.921739" style="stroke: #000000; stroke-width: 0.8"/>
      </g>
     </g>
    </g>
    <g id="xtick_3">
     <g id="line2d_5">
      <path d="M 405.672727 206.921739 
L 405.672727 86.4 
" clip-path="url(#p079cc47432)" style="fill: none; stroke: #b0b0b0; stroke-width: 0.8; stroke-linecap: square"/>
     </g>
     <g id="line2d_6">
      <g>
       <use xlink:href="#m8e3d6f7d21" x="405.672727" y="206.921739" style="stroke: #000000; stroke-width: 0.8"/>
      </g>
     </g>
    </g>
    <g id="xtick_4">
     <g id="line2d_7">
      <path d="M 518.4 206.921739 
L 518.4 86.4 
" clip-path="url(#p079cc47432)" style="fill: none; stroke: #b0b0b0; stroke-width: 0.8; stroke-linecap: square"/>
     </g>
     <g id="line2d_8">
      <g>
       <use xlink:href="#m8e3d6f7d21" x="518.4" y="206.921739" style="stroke: #000000; stroke-width: 0.8"/>
      </g>
     </g>
    </g>
   </g>
   <g id="matplotlib.axis_2">
    <g id="ytick_1">
     <g id="line2d_9">
      <path d="M 72 206.921739 
L 518.4 206.921739 
" clip-path="url(#p079cc47432)" style="fill: none; stroke: #b0b0b0; stroke-width: 0.8; stroke-linecap: square"/>
     </g>
     <g id="line2d_10">
      <defs>
       <path id="mb67a75c630" d="M 0 0 
L -3.5 0 
" style="stroke: #000000; stroke-width: 0.8"/>
      </defs>
      <g>
       <use xlink:href="#mb67a75c630" x="72" y="206.921739" style="stroke: #000000; stroke-width: 0.8"/>
      </g>
     </g>
     <g id="text_1">
      <!-- 0.00 -->
      <g transform="translate(29.375 213.000489) scale(0.16 -0.16)">
       <defs>
        <path id="DejaVuSans-30" d="M 2034 4250 
Q 1547 4250 1301 3770 
Q 1056 3291 1056 2328 
Q 1056 1369 1301 889 
Q 1547 409 2034 409 
Q 2525 409 2770 889 
Q 3016 1369 3016 2328 
Q 3016 3291 2770 3770 
Q 2525 4250 2034 4250 
z
M 2034 4750 
Q 2819 4750 3233 4129 
Q 3647 3509 3647 2328 
Q 3647 1150 3233 529 
Q 2819 -91 2034 -91 
Q 1250 -91 836 529 
Q 422 1150 422 2328 
Q 422 3509 836 4129 
Q 1250 4750 2034 4750 
z
" transform="scale(0.015625)"/>
        <path id="DejaVuSans-2e" d="M 684 794 
L 1344 794 
L 1344 0 
L 684 0 
L 684 794 
z
" transform="scale(0.015625)"/>
       </defs>
       <use xlink:href="#DejaVuSans-30"/>
       <use xlink:href="#DejaVuSans-2e" transform="translate(63.623047 0)"/>
       <use xlink:href="#DejaVuSans-30" transform="translate(95.410156 0)"/>
       <use xlink:href="#DejaVuSans-30" transform="translate(159.033203 0)"/>
      </g>
     </g>
    </g>
    <g id="ytick_2">
     <g id="line2d_11">
      <path d="M 72 176.791304 
L 518.4 176.791304 
" clip-path="url(#p079cc47432)" style="fill: none; stroke: #b0b0b0; stroke-width: 0.8; stroke-linecap: square"/>
     </g>
     <g id="line2d_12">
      <g>
       <use xlink:href="#mb67a75c630" x="72" y="176.791304" style="stroke: #000000; stroke-width: 0.8"/>
      </g>
     </g>
     <g id="text_2">
      <!-- 0.25 -->
      <g transform="translate(29.375 182.870054) scale(0.16 -0.16)">
       <defs>
        <path id="DejaVuSans-32" d="M 1228 531 
L 3431 531 
L 3431 0 
L 469 0 
L 469 531 
Q 828 903 1448 1529 
Q 2069 2156 2228 2338 
Q 2531 2678 2651 2914 
Q 2772 3150 2772 3378 
Q 2772 3750 2511 3984 
Q 2250 4219 1831 4219 
Q 1534 4219 1204 4116 
Q 875 4013 500 3803 
L 500 4441 
Q 881 4594 1212 4672 
Q 1544 4750 1819 4750 
Q 2544 4750 2975 4387 
Q 3406 4025 3406 3419 
Q 3406 3131 3298 2873 
Q 3191 2616 2906 2266 
Q 2828 2175 2409 1742 
Q 1991 1309 1228 531 
z
" transform="scale(0.015625)"/>
        <path id="DejaVuSans-35" d="M 691 4666 
L 3169 4666 
L 3169 4134 
L 1269 4134 
L 1269 2991 
Q 1406 3038 1543 3061 
Q 1681 3084 1819 3084 
Q 2600 3084 3056 2656 
Q 3513 2228 3513 1497 
Q 3513 744 3044 326 
Q 2575 -91 1722 -91 
Q 1428 -91 1123 -41 
Q 819 9 494 109 
L 494 744 
Q 775 591 1075 516 
Q 1375 441 1709 441 
Q 2250 441 2565 725 
Q 2881 1009 2881 1497 
Q 2881 1984 2565 2268 
Q 2250 2553 1709 2553 
Q 1456 2553 1204 2497 
Q 953 2441 691 2322 
L 691 4666 
z
" transform="scale(0.015625)"/>
       </defs>
       <use xlink:href="#DejaVuSans-30"/>
       <use xlink:href="#DejaVuSans-2e" transform="translate(63.623047 0)"/>
       <use xlink:href="#DejaVuSans-32" transform="translate(95.410156 0)"/>
       <use xlink:href="#DejaVuSans-35" transform="translate(159.033203 0)"/>
      </g>
     </g>
    </g>
    <g id="ytick_3">
     <g id="line2d_13">
      <path d="M 72 146.66087 
L 518.4 146.66087 
" clip-path="url(#p079cc47432)" style="fill: none; stroke: #b0b0b0; stroke-width: 0.8; stroke-linecap: square"/>
     </g>
     <g id="line2d_14">
      <g>
       <use xlink:href="#mb67a75c630" x="72" y="146.66087" style="stroke: #000000; stroke-width: 0.8"/>
      </g>
     </g>
     <g id="text_3">
      <!-- 0.50 -->
      <g transform="translate(29.375 152.73962) scale(0.16 -0.16)">
       <use xlink:href="#DejaVuSans-30"/>
       <use xlink:href="#DejaVuSans-2e" transform="translate(63.623047 0)"/>
       <use xlink:href="#DejaVuSans-35" transform="translate(95.410156 0)"/>
       <use xlink:href="#DejaVuSans-30" transform="translate(159.033203 0)"/>
      </g>
     </g>
    </g>
    <g id="ytick_4">
     <g id="line2d_15">
      <path d="M 72 116.530435 
L 518.4 116.530435 
" clip-path="url(#p079cc47432)" style="fill: none; stroke: #b0b0b0; stroke-width: 0.8; stroke-linecap: square"/>
     </g>
     <g id="line2d_16">
      <g>
       <use xlink:href="#mb67a75c630" x="72" y="116.530435" style="stroke: #000000; stroke-width: 0.8"/>
      </g>
     </g>
     <g id="text_4">
      <!-- 0.75 -->
      <g transform="translate(29.375 122.609185) scale(0.16 -0.16)">
       <defs>
        <path id="DejaVuSans-37" d="M 525 4666 
L 3525 4666 
L 3525 4397 
L 1831 0 
L 1172 0 
L 2766 4134 
L 525 4134 
L 525 4666 
z
" transform="scale(0.015625)"/>
       </defs>
       <use xlink:href="#DejaVuSans-30"/>
       <use xlink:href="#DejaVuSans-2e" transform="translate(63.623047 0)"/>
       <use xlink:href="#DejaVuSans-37" transform="translate(95.410156 0)"/>
       <use xlink:href="#DejaVuSans-35" transform="translate(159.033203 0)"/>
      </g>
     </g>
    </g>
    <g id="ytick_5">
     <g id="line2d_17">
      <path d="M 72 86.4 
L 518.4 86.4 
" clip-path="url(#p079cc47432)" style="fill: none; stroke: #b0b0b0; stroke-width: 0.8; stroke-linecap: square"/>
     </g>
     <g id="line2d_18">
      <g>
       <use xlink:href="#mb67a75c630" x="72" y="86.4" style="stroke: #000000; stroke-width: 0.8"/>
      </g>
     </g>
     <g id="text_5">
      <!-- 1.00 -->
      <g transform="translate(29.375 92.47875) scale(0.16 -0.16)">
       <defs>
        <path id="DejaVuSans-31" d="M 794 531 
L 1825 531 
L 1825 4091 
L 703 3866 
L 703 4441 
L 1819 4666 
L 2450 4666 
L 2450 531 
L 3481 531 
L 3481 0 
L 794 0 
L 794 531 
z
" transform="scale(0.015625)"/>
       </defs>
       <use xlink:href="#DejaVuSans-31"/>
       <use xlink:href="#DejaVuSans-2e" transform="translate(63.623047 0)"/>
       <use xlink:href="#DejaVuSans-30" transform="translate(95.410156 0)"/>
       <use xlink:href="#DejaVuSans-30" transform="translate(159.033203 0)"/>
      </g>
     </g>
    </g>
    <g id="text_6">
     <!-- Height -->
     <g transform="translate(22.0475 173.10712) rotate(-90) scale(0.16 -0.16)">
      <defs>
       <path id="DejaVuSans-48" d="M 628 4666 
L 1259 4666 
L 1259 2753 
L 3553 2753 
L 3553 4666 
L 4184 4666 
L 4184 0 
L 3553 0 
L 3553 2222 
L 1259 2222 
L 1259 0 
L 628 0 
L 628 4666 
z
" transform="scale(0.015625)"/>
       <path id="DejaVuSans-65" d="M 3597 1894 
L 3597 1613 
L 953 1613 
Q 991 1019 1311 708 
Q 1631 397 2203 397 
Q 2534 397 2845 478 
Q 3156 559 3463 722 
L 3463 178 
Q 3153 47 2828 -22 
Q 2503 -91 2169 -91 
Q 1331 -91 842 396 
Q 353 884 353 1716 
Q 353 2575 817 3079 
Q 1281 3584 2069 3584 
Q 2775 3584 3186 3129 
Q 3597 2675 3597 1894 
z
M 3022 2063 
Q 3016 2534 2758 2815 
Q 2500 3097 2075 3097 
Q 1594 3097 1305 2825 
Q 1016 2553 972 2059 
L 3022 2063 
z
" transform="scale(0.015625)"/>
       <path id="DejaVuSans-69" d="M 603 3500 
L 1178 3500 
L 1178 0 
L 603 0 
L 603 3500 
z
M 603 4863 
L 1178 4863 
L 1178 4134 
L 603 4134 
L 603 4863 
z
" transform="scale(0.015625)"/>
       <path id="DejaVuSans-67" d="M 2906 1791 
Q 2906 2416 2648 2759 
Q 2391 3103 1925 3103 
Q 1463 3103 1205 2759 
Q 947 2416 947 1791 
Q 947 1169 1205 825 
Q 1463 481 1925 481 
Q 2391 481 2648 825 
Q 2906 1169 2906 1791 
z
M 3481 434 
Q 3481 -459 3084 -895 
Q 2688 -1331 1869 -1331 
Q 1566 -1331 1297 -1286 
Q 1028 -1241 775 -1147 
L 775 -588 
Q 1028 -725 1275 -790 
Q 1522 -856 1778 -856 
Q 2344 -856 2625 -561 
Q 2906 -266 2906 331 
L 2906 616 
Q 2728 306 2450 153 
Q 2172 0 1784 0 
Q 1141 0 747 490 
Q 353 981 353 1791 
Q 353 2603 747 3093 
Q 1141 3584 1784 3584 
Q 2172 3584 2450 3431 
Q 2728 3278 2906 2969 
L 2906 3500 
L 3481 3500 
L 3481 434 
z
" transform="scale(0.015625)"/>
       <path id="DejaVuSans-68" d="M 3513 2113 
L 3513 0 
L 2938 0 
L 2938 2094 
Q 2938 2591 2744 2837 
Q 2550 3084 2163 3084 
Q 1697 3084 1428 2787 
Q 1159 2491 1159 1978 
L 1159 0 
L 581 0 
L 581 4863 
L 1159 4863 
L 1159 2956 
Q 1366 3272 1645 3428 
Q 1925 3584 2291 3584 
Q 2894 3584 3203 3211 
Q 3513 2838 3513 2113 
z
" transform="scale(0.015625)"/>
       <path id="DejaVuSans-74" d="M 1172 4494 
L 1172 3500 
L 2356 3500 
L 2356 3053 
L 1172 3053 
L 1172 1153 
Q 1172 725 1289 603 
Q 1406 481 1766 481 
L 2356 481 
L 2356 0 
L 1766 0 
Q 1100 0 847 248 
Q 594 497 594 1153 
L 594 3053 
L 172 3053 
L 172 3500 
L 594 3500 
L 594 4494 
L 1172 4494 
z
" transform="scale(0.015625)"/>
      </defs>
      <use xlink:href="#DejaVuSans-48"/>
      <use xlink:href="#DejaVuSans-65" transform="translate(75.195312 0)"/>
      <use xlink:href="#DejaVuSans-69" transform="translate(136.71875 0)"/>
      <use xlink:href="#DejaVuSans-67" transform="translate(164.501953 0)"/>
      <use xlink:href="#DejaVuSans-68" transform="translate(227.978516 0)"/>
      <use xlink:href="#DejaVuSans-74" transform="translate(291.357422 0)"/>
     </g>
    </g>
   </g>
   <g id="line2d_19">
    <path d="M 72 206.920542 
L 76.509091 206.918676 
L 81.018182 206.914204 
L 85.527273 206.903932 
L 90.036364 206.881309 
L 94.545455 206.833541 
L 99.054545 206.736882 
L 103.563636 206.549482 
L 108.072727 206.201498 
L 112.581818 205.582864 
L 117.090909 204.530456 
L 121.6 202.81828 
L 126.109091 200.156279 
L 130.618182 196.20475 
L 135.127273 190.610896 
L 139.636364 183.070644 
L 144.145455 173.412199 
L 148.654545 161.688592 
L 153.163636 148.257509 
L 157.672727 133.821608 
L 162.181818 119.404996 
L 166.690909 106.253519 
L 171.2 95.666154 
L 175.709091 88.786489 
L 180.218182 86.4 
L 184.727273 88.786489 
L 189.236364 95.666154 
L 193.745455 106.253519 
L 198.254545 119.404996 
L 202.763636 133.821608 
L 207.272727 148.257509 
L 211.781818 161.688592 
L 216.290909 173.412199 
L 220.8 183.070644 
L 225.309091 190.610896 
L 229.818182 196.20475 
L 234.327273 200.156279 
L 238.836364 202.81828 
L 243.345455 204.530456 
L 247.854545 205.582864 
L 252.363636 206.201498 
L 256.872727 206.549482 
L 261.381818 206.736882 
L 265.890909 206.833541 
L 270.4 206.881309 
L 274.909091 206.903932 
L 279.418182 206.914204 
L 283.927273 206.918676 
L 288.436364 206.920542 
L 292.945455 206.92129 
L 297.454545 206.921577 
L 301.963636 206.921683 
L 306.472727 206.92172 
L 310.981818 206.921733 
L 315.490909 206.921737 
L 320 206.921739 
L 324.509091 206.921739 
L 329.018182 206.921739 
L 333.527273 206.921739 
L 338.036364 206.921739 
L 342.545455 206.921739 
L 347.054545 206.921739 
L 351.563636 206.921739 
L 356.072727 206.921739 
L 360.581818 206.921739 
L 365.090909 206.921739 
L 369.6 206.921739 
L 374.109091 206.921739 
L 378.618182 206.921739 
L 383.127273 206.921739 
L 387.636364 206.921739 
L 392.145455 206.921739 
L 396.654545 206.921739 
L 401.163636 206.921739 
L 405.672727 206.921739 
L 410.181818 206.921739 
L 414.690909 206.921739 
L 419.2 206.921739 
L 423.709091 206.921739 
L 428.218182 206.921739 
L 432.727273 206.921739 
L 437.236364 206.921739 
L 441.745455 206.921739 
L 446.254545 206.921739 
L 450.763636 206.921739 
L 455.272727 206.921739 
L 459.781818 206.921739 
L 464.290909 206.921739 
L 468.8 206.921739 
L 473.309091 206.921739 
L 477.818182 206.921739 
L 482.327273 206.921739 
L 486.836364 206.921739 
L 491.345455 206.921739 
L 495.854545 206.921739 
L 500.363636 206.921739 
L 504.872727 206.921739 
L 509.381818 206.921739 
L 513.890909 206.921739 
L 518.4 206.921739 
" clip-path="url(#p079cc47432)" style="fill: none; stroke: #0000ff; stroke-width: 1.5; stroke-linecap: square"/>
   </g>
   <g id="patch_3">
    <path d="M 72 206.921739 
L 72 86.4 
" style="fill: none; stroke: #000000; stroke-width: 0.8; stroke-linejoin: miter; stroke-linecap: square"/>
   </g>
   <g id="patch_4">
    <path d="M 518.4 206.921739 
L 518.4 86.4 
" style="fill: none; stroke: #000000; stroke-width: 0.8; stroke-linejoin: miter; stroke-linecap: square"/>
   </g>
   <g id="patch_5">
    <path d="M 72 206.921739 
L 518.4 206.921739 
" style="fill: none; stroke: #000000; stroke-width: 0.8; stroke-linejoin: miter; stroke-linecap: square"/>
   </g>
   <g id="patch_6">
    <path d="M 72 86.4 
L 518.4 86.4 
" style="fill: none; stroke: #000000; stroke-width: 0.8; stroke-linejoin: miter; stroke-linecap: square"/>
   </g>
   <g id="text_7">
    <!-- Time step   0 -->
    <g transform="translate(232.6335 80.4) scale(0.192 -0.192)">
     <defs>
      <path id="DejaVuSans-54" d="M -19 4666 
L 3928 4666 
L 3928 4134 
L 2272 4134 
L 2272 0 
L 1638 0 
L 1638 4134 
L -19 4134 
L -19 4666 
z
" transform="scale(0.015625)"/>
      <path id="DejaVuSans-6d" d="M 3328 2828 
Q 3544 3216 3844 3400 
Q 4144 3584 4550 3584 
Q 5097 3584 5394 3201 
Q 5691 2819 5691 2113 
L 5691 0 
L 5113 0 
L 5113 2094 
Q 5113 2597 4934 2840 
Q 4756 3084 4391 3084 
Q 3944 3084 3684 2787 
Q 3425 2491 3425 1978 
L 3425 0 
L 2847 0 
L 2847 2094 
Q 2847 2600 2669 2842 
Q 2491 3084 2119 3084 
Q 1678 3084 1418 2786 
Q 1159 2488 1159 1978 
L 1159 0 
L 581 0 
L 581 3500 
L 1159 3500 
L 1159 2956 
Q 1356 3278 1631 3431 
Q 1906 3584 2284 3584 
Q 2666 3584 2933 3390 
Q 3200 3197 3328 2828 
z
" transform="scale(0.015625)"/>
      <path id="DejaVuSans-20" transform="scale(0.015625)"/>
      <path id="DejaVuSans-73" d="M 2834 3397 
L 2834 2853 
Q 2591 2978 2328 3040 
Q 2066 3103 1784 3103 
Q 1356 3103 1142 2972 
Q 928 2841 928 2578 
Q 928 2378 1081 2264 
Q 1234 2150 1697 2047 
L 1894 2003 
Q 2506 1872 2764 1633 
Q 3022 1394 3022 966 
Q 3022 478 2636 193 
Q 2250 -91 1575 -91 
Q 1294 -91 989 -36 
Q 684 19 347 128 
L 347 722 
Q 666 556 975 473 
Q 1284 391 1588 391 
Q 1994 391 2212 530 
Q 2431 669 2431 922 
Q 2431 1156 2273 1281 
Q 2116 1406 1581 1522 
L 1381 1569 
Q 847 1681 609 1914 
Q 372 2147 372 2553 
Q 372 3047 722 3315 
Q 1072 3584 1716 3584 
Q 2034 3584 2315 3537 
Q 2597 3491 2834 3397 
z
" transform="scale(0.015625)"/>
      <path id="DejaVuSans-70" d="M 1159 525 
L 1159 -1331 
L 581 -1331 
L 581 3500 
L 1159 3500 
L 1159 2969 
Q 1341 3281 1617 3432 
Q 1894 3584 2278 3584 
Q 2916 3584 3314 3078 
Q 3713 2572 3713 1747 
Q 3713 922 3314 415 
Q 2916 -91 2278 -91 
Q 1894 -91 1617 61 
Q 1341 213 1159 525 
z
M 3116 1747 
Q 3116 2381 2855 2742 
Q 2594 3103 2138 3103 
Q 1681 3103 1420 2742 
Q 1159 2381 1159 1747 
Q 1159 1113 1420 752 
Q 1681 391 2138 391 
Q 2594 391 2855 752 
Q 3116 1113 3116 1747 
z
" transform="scale(0.015625)"/>
     </defs>
     <use xlink:href="#DejaVuSans-54"/>
     <use xlink:href="#DejaVuSans-69" transform="translate(57.958984 0)"/>
     <use xlink:href="#DejaVuSans-6d" transform="translate(85.742188 0)"/>
     <use xlink:href="#DejaVuSans-65" transform="translate(183.154297 0)"/>
     <use xlink:href="#DejaVuSans-20" transform="translate(244.677734 0)"/>
     <use xlink:href="#DejaVuSans-73" transform="translate(276.464844 0)"/>
     <use xlink:href="#DejaVuSans-74" transform="translate(328.564453 0)"/>
     <use xlink:href="#DejaVuSans-65" transform="translate(367.773438 0)"/>
     <use xlink:href="#DejaVuSans-70" transform="translate(429.296875 0)"/>
     <use xlink:href="#DejaVuSans-20" transform="translate(492.773438 0)"/>
     <use xlink:href="#DejaVuSans-20" transform="translate(524.560547 0)"/>
     <use xlink:href="#DejaVuSans-20" transform="translate(556.347656 0)"/>
     <use xlink:href="#DejaVuSans-30" transform="translate(588.134766 0)"/>
    </g>
   </g>
  </g>
  <g id="axes_2">
   <g id="patch_7">
    <path d="M 72 351.547826 
L 518.4 351.547826 
L 518.4 231.026087 
L 72 231.026087 
z
" style="fill: #ffffff"/>
   </g>
   <g id="FillBetweenPolyCollection_2">
    <defs>
     <path id="m0fe615a029" d="M 72 -367.417728 
L 72 -368.452174 
L 76.509091 -368.452174 
L 81.018182 -368.452174 
L 85.527273 -368.452174 
L 90.036364 -368.452174 
L 94.545455 -368.452174 
L 99.054545 -368.452174 
L 103.563636 -368.452174 
L 108.072727 -368.452174 
L 112.581818 -368.452174 
L 117.090909 -368.452174 
L 121.6 -368.452174 
L 126.109091 -368.452174 
L 130.618182 -368.452174 
L 135.127273 -368.452174 
L 139.636364 -368.452174 
L 144.145455 -368.452174 
L 148.654545 -368.452174 
L 153.163636 -368.452174 
L 157.672727 -368.452174 
L 162.181818 -368.452174 
L 166.690909 -368.452174 
L 171.2 -368.452174 
L 175.709091 -368.452174 
L 180.218182 -368.452174 
L 184.727273 -368.452174 
L 189.236364 -368.452174 
L 193.745455 -368.452174 
L 198.254545 -368.452174 
L 202.763636 -368.452174 
L 207.272727 -368.452174 
L 211.781818 -368.452174 
L 216.290909 -368.452174 
L 220.8 -368.452174 
L 225.309091 -368.452174 
L 229.818182 -368.452174 
L 234.327273 -368.452174 
L 238.836364 -368.452174 
L 243.345455 -368.452174 
L 247.854545 -368.452174 
L 252.363636 -368.452174 
L 256.872727 -368.452174 
L 261.381818 -368.452174 
L 265.890909 -368.452174 
L 270.4 -368.452174 
L 274.909091 -368.452174 
L 279.418182 -368.452174 
L 283.927273 -368.452174 
L 288.436364 -368.452174 
L 292.945455 -368.452174 
L 297.454545 -368.452174 
L 301.963636 -368.452174 
L 306.472727 -368.452174 
L 310.981818 -368.452174 
L 315.490909 -368.452174 
L 320 -368.452174 
L 324.509091 -368.452174 
L 329.018182 -368.452174 
L 333.527273 -368.452174 
L 338.036364 -368.452174 
L 342.545455 -368.452174 
L 347.054545 -368.452174 
L 351.563636 -368.452174 
L 356.072727 -368.452174 
L 360.581818 -368.452174 
L 365.090909 -368.452174 
L 369.6 -368.452174 
L 374.109091 -368.452174 
L 378.618182 -368.452174 
L 383.127273 -368.452174 
L 387.636364 -368.452174 
L 392.145455 -368.452174 
L 396.654545 -368.452174 
L 401.163636 -368.452174 
L 405.672727 -368.452174 
L 410.181818 -368.452174 
L 414.690909 -368.452174 
L 419.2 -368.452174 
L 423.709091 -368.452174 
L 428.218182 -368.452174 
L 432.727273 -368.452174 
L 437.236364 -368.452174 
L 441.745455 -368.452174 
L 446.254545 -368.452174 
L 450.763636 -368.452174 
L 455.272727 -368.452174 
L 459.781818 -368.452174 
L 464.290909 -368.452174 
L 468.8 -368.452174 
L 473.309091 -368.452174 
L 477.818182 -368.452174 
L 482.327273 -368.452174 
L 486.836364 -368.452174 
L 491.345455 -368.452174 
L 495.854545 -368.452174 
L 500.363636 -368.452174 
L 504.872727 -368.452174 
L 509.381818 -368.452174 
L 513.890909 -368.452174 
L 518.4 -368.452174 
L 518.4 -368.208046 
L 518.4 -368.208046 
L 513.890909 -368.906572 
L 509.381818 -369.400064 
L 504.872727 -369.62333 
L 500.363636 -369.568221 
L 495.854545 -369.284567 
L 491.345455 -368.86755 
L 486.836364 -368.433968 
L 482.327273 -368.090644 
L 477.818182 -367.908254 
L 473.309091 -367.905424 
L 468.8 -368.049845 
L 464.290909 -368.274177 
L 459.781818 -368.500589 
L 455.272727 -368.663762 
L 450.763636 -368.727864 
L 446.254545 -368.692492 
L 441.745455 -368.585945 
L 437.236364 -368.454178 
L 432.727273 -368.346458 
L 428.218182 -368.297136 
L 423.709091 -368.313633 
L 419.2 -368.38021 
L 414.690909 -368.467796 
L 410.181818 -368.541187 
L 405.672727 -368.569917 
L 401.163636 -368.541245 
L 396.654545 -368.467757 
L 392.145455 -368.380243 
L 387.636364 -368.313599 
L 383.127273 -368.297112 
L 378.618182 -368.346497 
L 374.109091 -368.454182 
L 369.6 -368.585928 
L 365.090909 -368.692462 
L 360.581818 -368.727864 
L 356.072727 -368.663728 
L 351.563636 -368.500576 
L 347.054545 -368.274201 
L 342.545455 -368.049905 
L 338.036364 -367.905472 
L 333.527273 -367.908236 
L 329.018182 -368.090713 
L 324.509091 -368.434066 
L 320 -368.867653 
L 315.490909 -369.284625 
L 310.981818 -369.568265 
L 306.472727 -369.623292 
L 301.963636 -369.40013 
L 297.454545 -368.90659 
L 292.945455 -368.208124 
L 288.436364 -367.417728 
L 283.927273 -366.675841 
L 279.418182 -366.126363 
L 274.909091 -365.899022 
L 270.4 -366.095149 
L 265.890909 -366.778737 
L 261.381818 -367.97615 
L 256.872727 -369.679973 
L 252.363636 -371.859828 
L 247.854545 -374.483908 
L 243.345455 -377.545348 
L 238.836364 -381.090127 
L 234.327273 -385.244854 
L 229.818182 -390.236485 
L 225.309091 -396.379091 
L 220.8 -403.991341 
L 216.290909 -413.220632 
L 211.781818 -423.791963 
L 207.272727 -434.786925 
L 202.763636 -444.678179 
L 198.254545 -451.835542 
L 193.745455 -455.38763 
L 189.236364 -455.848936 
L 184.727273 -454.896792 
L 180.218182 -454.326144 
L 175.709091 -454.896656 
L 171.2 -455.848885 
L 166.690909 -455.387608 
L 162.181818 -451.835557 
L 157.672727 -444.678186 
L 153.163636 -434.786932 
L 148.654545 -423.79197 
L 144.145455 -413.220639 
L 139.636364 -403.991352 
L 135.127273 -396.379062 
L 130.618182 -390.236483 
L 126.109091 -385.244809 
L 121.6 -381.090103 
L 117.090909 -377.545356 
L 112.581818 -374.483845 
L 108.072727 -371.859806 
L 103.563636 -369.679897 
L 99.054545 -367.976144 
L 94.545455 -366.778712 
L 90.036364 -366.095103 
L 85.527273 -365.898999 
L 81.018182 -366.126287 
L 76.509091 -366.675729 
L 72 -367.417728 
z
" style="stroke: #0000ff; stroke-opacity: 0.4"/>
    </defs>
    <g clip-path="url(#p9a2832f69f)">
     <use xlink:href="#m0fe615a029" x="0" y="720" style="fill: #0000ff; fill-opacity: 0.4; stroke: #0000ff; stroke-opacity: 0.4"/>
    </g>
   </g>
   <g id="matplotlib.axis_3">
    <g id="xtick_5">
     <g id="line2d_20">
      <path d="M 180.218182 351.547826 
L 180.218182 231.026087 
" clip-path="url(#p9a2832f69f)" style="fill: none; stroke: #b0b0b0; stroke-width: 0.8; stroke-linecap: square"/>
     </g>
     <g id="line2d_21">
      <g>
       <use xlink:href="#m8e3d6f7d21" x="180.218182" y="351.547826" style="stroke: #000000; stroke-width: 0.8"/>
      </g>
     </g>
    </g>
    <g id="xtick_6">
     <g id="line2d_22">
      <path d="M 292.945455 351.547826 
L 292.945455 231.026087 
" clip-path="url(#p9a2832f69f)" style="fill: none; stroke: #b0b0b0; stroke-width: 0.8; stroke-linecap: square"/>
     </g>
     <g id="line2d_23">
      <g>
       <use xlink:href="#m8e3d6f7d21" x="292.945455" y="351.547826" style="stroke: #000000; stroke-width: 0.8"/>
      </g>
     </g>
    </g>
    <g id="xtick_7">
     <g id="line2d_24">
      <path d="M 405.672727 351.547826 
L 405.672727 231.026087 
" clip-path="url(#p9a2832f69f)" style="fill: none; stroke: #b0b0b0; stroke-width: 0.8; stroke-linecap: square"/>
     </g>
     <g id="line2d_25">
      <g>
       <use xlink:href="#m8e3d6f7d21" x="405.672727" y="351.547826" style="stroke: #000000; stroke-width: 0.8"/>
      </g>
     </g>
    </g>
    <g id="xtick_8">
     <g id="line2d_26">
      <path d="M 518.4 351.547826 
L 518.4 231.026087 
" clip-path="url(#p9a2832f69f)" style="fill: none; stroke: #b0b0b0; stroke-width: 0.8; stroke-linecap: square"/>
     </g>
     <g id="line2d_27">
      <g>
       <use xlink:href="#m8e3d6f7d21" x="518.4" y="351.547826" style="stroke: #000000; stroke-width: 0.8"/>
      </g>
     </g>
    </g>
   </g>
   <g id="matplotlib.axis_4">
    <g id="ytick_6">
     <g id="line2d_28">
      <path d="M 72 351.547826 
L 518.4 351.547826 
" clip-path="url(#p9a2832f69f)" style="fill: none; stroke: #b0b0b0; stroke-width: 0.8; stroke-linecap: square"/>
     </g>
     <g id="line2d_29">
      <g>
       <use xlink:href="#mb67a75c630" x="72" y="351.547826" style="stroke: #000000; stroke-width: 0.8"/>
      </g>
     </g>
     <g id="text_8">
      <!-- 0.00 -->
      <g transform="translate(29.375 357.626576) scale(0.16 -0.16)">
       <use xlink:href="#DejaVuSans-30"/>
       <use xlink:href="#DejaVuSans-2e" transform="translate(63.623047 0)"/>
       <use xlink:href="#DejaVuSans-30" transform="translate(95.410156 0)"/>
       <use xlink:href="#DejaVuSans-30" transform="translate(159.033203 0)"/>
      </g>
     </g>
    </g>
    <g id="ytick_7">
     <g id="line2d_30">
      <path d="M 72 321.417391 
L 518.4 321.417391 
" clip-path="url(#p9a2832f69f)" style="fill: none; stroke: #b0b0b0; stroke-width: 0.8; stroke-linecap: square"/>
     </g>
     <g id="line2d_31">
      <g>
       <use xlink:href="#mb67a75c630" x="72" y="321.417391" style="stroke: #000000; stroke-width: 0.8"/>
      </g>
     </g>
     <g id="text_9">
      <!-- 0.25 -->
      <g transform="translate(29.375 327.496141) scale(0.16 -0.16)">
       <use xlink:href="#DejaVuSans-30"/>
       <use xlink:href="#DejaVuSans-2e" transform="translate(63.623047 0)"/>
       <use xlink:href="#DejaVuSans-32" transform="translate(95.410156 0)"/>
       <use xlink:href="#DejaVuSans-35" transform="translate(159.033203 0)"/>
      </g>
     </g>
    </g>
    <g id="ytick_8">
     <g id="line2d_32">
      <path d="M 72 291.286957 
L 518.4 291.286957 
" clip-path="url(#p9a2832f69f)" style="fill: none; stroke: #b0b0b0; stroke-width: 0.8; stroke-linecap: square"/>
     </g>
     <g id="line2d_33">
      <g>
       <use xlink:href="#mb67a75c630" x="72" y="291.286957" style="stroke: #000000; stroke-width: 0.8"/>
      </g>
     </g>
     <g id="text_10">
      <!-- 0.50 -->
      <g transform="translate(29.375 297.365707) scale(0.16 -0.16)">
       <use xlink:href="#DejaVuSans-30"/>
       <use xlink:href="#DejaVuSans-2e" transform="translate(63.623047 0)"/>
       <use xlink:href="#DejaVuSans-35" transform="translate(95.410156 0)"/>
       <use xlink:href="#DejaVuSans-30" transform="translate(159.033203 0)"/>
      </g>
     </g>
    </g>
    <g id="ytick_9">
     <g id="line2d_34">
      <path d="M 72 261.156522 
L 518.4 261.156522 
" clip-path="url(#p9a2832f69f)" style="fill: none; stroke: #b0b0b0; stroke-width: 0.8; stroke-linecap: square"/>
     </g>
     <g id="line2d_35">
      <g>
       <use xlink:href="#mb67a75c630" x="72" y="261.156522" style="stroke: #000000; stroke-width: 0.8"/>
      </g>
     </g>
     <g id="text_11">
      <!-- 0.75 -->
      <g transform="translate(29.375 267.235272) scale(0.16 -0.16)">
       <use xlink:href="#DejaVuSans-30"/>
       <use xlink:href="#DejaVuSans-2e" transform="translate(63.623047 0)"/>
       <use xlink:href="#DejaVuSans-37" transform="translate(95.410156 0)"/>
       <use xlink:href="#DejaVuSans-35" transform="translate(159.033203 0)"/>
      </g>
     </g>
    </g>
    <g id="ytick_10">
     <g id="line2d_36">
      <path d="M 72 231.026087 
L 518.4 231.026087 
" clip-path="url(#p9a2832f69f)" style="fill: none; stroke: #b0b0b0; stroke-width: 0.8; stroke-linecap: square"/>
     </g>
     <g id="line2d_37">
      <g>
       <use xlink:href="#mb67a75c630" x="72" y="231.026087" style="stroke: #000000; stroke-width: 0.8"/>
      </g>
     </g>
     <g id="text_12">
      <!-- 1.00 -->
      <g transform="translate(29.375 237.104837) scale(0.16 -0.16)">
       <use xlink:href="#DejaVuSans-31"/>
       <use xlink:href="#DejaVuSans-2e" transform="translate(63.623047 0)"/>
       <use xlink:href="#DejaVuSans-30" transform="translate(95.410156 0)"/>
       <use xlink:href="#DejaVuSans-30" transform="translate(159.033203 0)"/>
      </g>
     </g>
    </g>
    <g id="text_13">
     <!-- Height -->
     <g transform="translate(22.0475 317.733207) rotate(-90) scale(0.16 -0.16)">
      <use xlink:href="#DejaVuSans-48"/>
      <use xlink:href="#DejaVuSans-65" transform="translate(75.195312 0)"/>
      <use xlink:href="#DejaVuSans-69" transform="translate(136.71875 0)"/>
      <use xlink:href="#DejaVuSans-67" transform="translate(164.501953 0)"/>
      <use xlink:href="#DejaVuSans-68" transform="translate(227.978516 0)"/>
      <use xlink:href="#DejaVuSans-74" transform="translate(291.357422 0)"/>
     </g>
    </g>
   </g>
   <g id="line2d_38">
    <path d="M 72 352.582272 
L 76.509091 353.324271 
L 81.018182 353.873713 
L 85.527273 354.101001 
L 90.036364 353.904897 
L 94.545455 353.221288 
L 99.054545 352.023856 
L 103.563636 350.320103 
L 108.072727 348.140194 
L 112.581818 345.516155 
L 117.090909 342.454644 
L 121.6 338.909897 
L 126.109091 334.755191 
L 130.618182 329.763517 
L 135.127273 323.620938 
L 139.636364 316.008648 
L 144.145455 306.779361 
L 148.654545 296.20803 
L 153.163636 285.213068 
L 157.672727 275.321814 
L 162.181818 268.164443 
L 166.690909 264.612392 
L 171.2 264.151115 
L 175.709091 265.103344 
L 180.218182 265.673856 
L 184.727273 265.103208 
L 189.236364 264.151064 
L 193.745455 264.61237 
L 198.254545 268.164458 
L 202.763636 275.321821 
L 207.272727 285.213075 
L 211.781818 296.208037 
L 216.290909 306.779368 
L 220.8 316.008659 
L 225.309091 323.620909 
L 229.818182 329.763515 
L 234.327273 334.755146 
L 238.836364 338.909873 
L 243.345455 342.454652 
L 247.854545 345.516092 
L 252.363636 348.140172 
L 256.872727 350.320027 
L 261.381818 352.02385 
L 265.890909 353.221263 
L 270.4 353.904851 
L 274.909091 354.100978 
L 279.418182 353.873637 
L 283.927273 353.324159 
L 288.436364 352.582272 
L 292.945455 351.791876 
L 297.454545 351.09341 
L 301.963636 350.59987 
L 306.472727 350.376708 
L 310.981818 350.431735 
L 315.490909 350.715375 
L 320 351.132347 
L 324.509091 351.565934 
L 329.018182 351.909287 
L 333.527273 352.091764 
L 338.036364 352.094528 
L 342.545455 351.950095 
L 347.054545 351.725799 
L 351.563636 351.499424 
L 356.072727 351.336272 
L 360.581818 351.272136 
L 365.090909 351.307538 
L 369.6 351.414072 
L 374.109091 351.545818 
L 378.618182 351.653503 
L 383.127273 351.702888 
L 387.636364 351.686401 
L 392.145455 351.619757 
L 396.654545 351.532243 
L 401.163636 351.458755 
L 405.672727 351.430083 
L 410.181818 351.458813 
L 414.690909 351.532204 
L 419.2 351.61979 
L 423.709091 351.686367 
L 428.218182 351.702864 
L 432.727273 351.653542 
L 437.236364 351.545822 
L 441.745455 351.414055 
L 446.254545 351.307508 
L 450.763636 351.272136 
L 455.272727 351.336238 
L 459.781818 351.499411 
L 464.290909 351.725823 
L 468.8 351.950155 
L 473.309091 352.094576 
L 477.818182 352.091746 
L 482.327273 351.909356 
L 486.836364 351.566032 
L 491.345455 351.13245 
L 495.854545 350.715433 
L 500.363636 350.431779 
L 504.872727 350.37667 
L 509.381818 350.599936 
L 513.890909 351.093428 
L 518.4 351.791954 
" clip-path="url(#p9a2832f69f)" style="fill: none; stroke: #0000ff; stroke-width: 1.5; stroke-linecap: square"/>
   </g>
   <g id="patch_8">
    <path d="M 72 351.547826 
L 72 231.026087 
" style="fill: none; stroke: #000000; stroke-width: 0.8; stroke-linejoin: miter; stroke-linecap: square"/>
   </g>
   <g id="patch_9">
    <path d="M 518.4 351.547826 
L 518.4 231.026087 
" style="fill: none; stroke: #000000; stroke-width: 0.8; stroke-linejoin: miter; stroke-linecap: square"/>
   </g>
   <g id="patch_10">
    <path d="M 72 351.547826 
L 518.4 351.547826 
" style="fill: none; stroke: #000000; stroke-width: 0.8; stroke-linejoin: miter; stroke-linecap: square"/>
   </g>
   <g id="patch_11">
    <path d="M 72 231.026087 
L 518.4 231.026087 
" style="fill: none; stroke: #000000; stroke-width: 0.8; stroke-linejoin: miter; stroke-linecap: square"/>
   </g>
   <g id="text_14">
    <!-- Time step 1000 -->
    <g transform="translate(220.4115 225.026087) scale(0.192 -0.192)">
     <use xlink:href="#DejaVuSans-54"/>
     <use xlink:href="#DejaVuSans-69" transform="translate(57.958984 0)"/>
     <use xlink:href="#DejaVuSans-6d" transform="translate(85.742188 0)"/>
     <use xlink:href="#DejaVuSans-65" transform="translate(183.154297 0)"/>
     <use xlink:href="#DejaVuSans-20" transform="translate(244.677734 0)"/>
     <use xlink:href="#DejaVuSans-73" transform="translate(276.464844 0)"/>
     <use xlink:href="#DejaVuSans-74" transform="translate(328.564453 0)"/>
     <use xlink:href="#DejaVuSans-65" transform="translate(367.773438 0)"/>
     <use xlink:href="#DejaVuSans-70" transform="translate(429.296875 0)"/>
     <use xlink:href="#DejaVuSans-20" transform="translate(492.773438 0)"/>
     <use xlink:href="#DejaVuSans-31" transform="translate(524.560547 0)"/>
     <use xlink:href="#DejaVuSans-30" transform="translate(588.183594 0)"/>
     <use xlink:href="#DejaVuSans-30" transform="translate(651.806641 0)"/>
     <use xlink:href="#DejaVuSans-30" transform="translate(715.429688 0)"/>
    </g>
   </g>
  </g>
  <g id="axes_3">
   <g id="patch_12">
    <path d="M 72 496.173913 
L 518.4 496.173913 
L 518.4 375.652174 
L 72 375.652174 
z
" style="fill: #ffffff"/>
   </g>
   <g id="FillBetweenPolyCollection_3">
    <defs>
     <path id="m15bde530d0" d="M 72 -223.782762 
L 72 -223.826087 
L 76.509091 -223.826087 
L 81.018182 -223.826087 
L 85.527273 -223.826087 
L 90.036364 -223.826087 
L 94.545455 -223.826087 
L 99.054545 -223.826087 
L 103.563636 -223.826087 
L 108.072727 -223.826087 
L 112.581818 -223.826087 
L 117.090909 -223.826087 
L 121.6 -223.826087 
L 126.109091 -223.826087 
L 130.618182 -223.826087 
L 135.127273 -223.826087 
L 139.636364 -223.826087 
L 144.145455 -223.826087 
L 148.654545 -223.826087 
L 153.163636 -223.826087 
L 157.672727 -223.826087 
L 162.181818 -223.826087 
L 166.690909 -223.826087 
L 171.2 -223.826087 
L 175.709091 -223.826087 
L 180.218182 -223.826087 
L 184.727273 -223.826087 
L 189.236364 -223.826087 
L 193.745455 -223.826087 
L 198.254545 -223.826087 
L 202.763636 -223.826087 
L 207.272727 -223.826087 
L 211.781818 -223.826087 
L 216.290909 -223.826087 
L 220.8 -223.826087 
L 225.309091 -223.826087 
L 229.818182 -223.826087 
L 234.327273 -223.826087 
L 238.836364 -223.826087 
L 243.345455 -223.826087 
L 247.854545 -223.826087 
L 252.363636 -223.826087 
L 256.872727 -223.826087 
L 261.381818 -223.826087 
L 265.890909 -223.826087 
L 270.4 -223.826087 
L 274.909091 -223.826087 
L 279.418182 -223.826087 
L 283.927273 -223.826087 
L 288.436364 -223.826087 
L 292.945455 -223.826087 
L 297.454545 -223.826087 
L 301.963636 -223.826087 
L 306.472727 -223.826087 
L 310.981818 -223.826087 
L 315.490909 -223.826087 
L 320 -223.826087 
L 324.509091 -223.826087 
L 329.018182 -223.826087 
L 333.527273 -223.826087 
L 338.036364 -223.826087 
L 342.545455 -223.826087 
L 347.054545 -223.826087 
L 351.563636 -223.826087 
L 356.072727 -223.826087 
L 360.581818 -223.826087 
L 365.090909 -223.826087 
L 369.6 -223.826087 
L 374.109091 -223.826087 
L 378.618182 -223.826087 
L 383.127273 -223.826087 
L 387.636364 -223.826087 
L 392.145455 -223.826087 
L 396.654545 -223.826087 
L 401.163636 -223.826087 
L 405.672727 -223.826087 
L 410.181818 -223.826087 
L 414.690909 -223.826087 
L 419.2 -223.826087 
L 423.709091 -223.826087 
L 428.218182 -223.826087 
L 432.727273 -223.826087 
L 437.236364 -223.826087 
L 441.745455 -223.826087 
L 446.254545 -223.826087 
L 450.763636 -223.826087 
L 455.272727 -223.826087 
L 459.781818 -223.826087 
L 464.290909 -223.826087 
L 468.8 -223.826087 
L 473.309091 -223.826087 
L 477.818182 -223.826087 
L 482.327273 -223.826087 
L 486.836364 -223.826087 
L 491.345455 -223.826087 
L 495.854545 -223.826087 
L 500.363636 -223.826087 
L 504.872727 -223.826087 
L 509.381818 -223.826087 
L 513.890909 -223.826087 
L 518.4 -223.826087 
L 518.4 -222.622702 
L 518.4 -222.622702 
L 513.890909 -221.762542 
L 509.381818 -221.201615 
L 504.872727 -220.910513 
L 500.363636 -220.843062 
L 495.854545 -220.948225 
L 491.345455 -221.174925 
L 486.836364 -221.484391 
L 482.327273 -221.8599 
L 477.818182 -222.304648 
L 473.309091 -222.832111 
L 468.8 -223.447837 
L 464.290909 -224.127391 
L 459.781818 -224.809792 
L 455.272727 -225.415575 
L 450.763636 -225.869988 
L 446.254545 -226.112641 
L 441.745455 -226.102581 
L 437.236364 -225.820936 
L 432.727273 -225.275909 
L 428.218182 -224.517111 
L 423.709091 -223.641339 
L 419.2 -222.773231 
L 414.690909 -222.038368 
L 410.181818 -221.54586 
L 405.672727 -221.372311 
L 401.163636 -221.545823 
L 396.654545 -222.038409 
L 392.145455 -222.773184 
L 387.636364 -223.641306 
L 383.127273 -224.517112 
L 378.618182 -225.275979 
L 374.109091 -225.820878 
L 369.6 -226.102583 
L 365.090909 -226.112649 
L 360.581818 -225.869974 
L 356.072727 -225.415712 
L 351.563636 -224.809898 
L 347.054545 -224.127406 
L 342.545455 -223.44775 
L 338.036364 -222.832063 
L 333.527273 -222.304701 
L 329.018182 -221.859923 
L 324.509091 -221.484395 
L 320 -221.174981 
L 315.490909 -220.948289 
L 310.981818 -220.843113 
L 306.472727 -220.91049 
L 301.963636 -221.201699 
L 297.454545 -221.762634 
L 292.945455 -222.622686 
L 288.436364 -223.782713 
L 283.927273 -225.214663 
L 279.418182 -226.869814 
L 274.909091 -228.691469 
L 270.4 -230.637907 
L 265.890909 -232.713436 
L 261.381818 -235.001411 
L 256.872727 -237.70165 
L 252.363636 -241.148206 
L 247.854545 -245.786468 
L 243.345455 -252.088559 
L 238.836364 -260.375438 
L 234.327273 -270.526984 
L 229.818182 -281.636044 
L 225.309091 -291.827769 
L 220.8 -298.602186 
L 216.290909 -299.837365 
L 211.781818 -294.947803 
L 207.272727 -285.281024 
L 202.763636 -273.387821 
L 198.254545 -261.791846 
L 193.745455 -252.172048 
L 189.236364 -245.268201 
L 184.727273 -241.204984 
L 180.218182 -239.873833 
L 175.709091 -241.204986 
L 171.2 -245.268275 
L 166.690909 -252.172102 
L 162.181818 -261.791821 
L 157.672727 -273.387857 
L 153.163636 -285.28111 
L 148.654545 -294.947875 
L 144.145455 -299.837351 
L 139.636364 -298.602143 
L 135.127273 -291.827791 
L 130.618182 -281.635764 
L 126.109091 -270.526898 
L 121.6 -260.375362 
L 117.090909 -252.088414 
L 112.581818 -245.78638 
L 108.072727 -241.148145 
L 103.563636 -237.701648 
L 99.054545 -235.001426 
L 94.545455 -232.713333 
L 90.036364 -230.637892 
L 85.527273 -228.691333 
L 81.018182 -226.869813 
L 76.509091 -225.214627 
L 72 -223.782762 
z
" style="stroke: #0000ff; stroke-opacity: 0.4"/>
    </defs>
    <g clip-path="url(#p75f20163d3)">
     <use xlink:href="#m15bde530d0" x="0" y="720" style="fill: #0000ff; fill-opacity: 0.4; stroke: #0000ff; stroke-opacity: 0.4"/>
    </g>
   </g>
   <g id="matplotlib.axis_5">
    <g id="xtick_9">
     <g id="line2d_39">
      <path d="M 180.218182 496.173913 
L 180.218182 375.652174 
" clip-path="url(#p75f20163d3)" style="fill: none; stroke: #b0b0b0; stroke-width: 0.8; stroke-linecap: square"/>
     </g>
     <g id="line2d_40">
      <g>
       <use xlink:href="#m8e3d6f7d21" x="180.218182" y="496.173913" style="stroke: #000000; stroke-width: 0.8"/>
      </g>
     </g>
    </g>
    <g id="xtick_10">
     <g id="line2d_41">
      <path d="M 292.945455 496.173913 
L 292.945455 375.652174 
" clip-path="url(#p75f20163d3)" style="fill: none; stroke: #b0b0b0; stroke-width: 0.8; stroke-linecap: square"/>
     </g>
     <g id="line2d_42">
      <g>
       <use xlink:href="#m8e3d6f7d21" x="292.945455" y="496.173913" style="stroke: #000000; stroke-width: 0.8"/>
      </g>
     </g>
    </g>
    <g id="xtick_11">
     <g id="line2d_43">
      <path d="M 405.672727 496.173913 
L 405.672727 375.652174 
" clip-path="url(#p75f20163d3)" style="fill: none; stroke: #b0b0b0; stroke-width: 0.8; stroke-linecap: square"/>
     </g>
     <g id="line2d_44">
      <g>
       <use xlink:href="#m8e3d6f7d21" x="405.672727" y="496.173913" style="stroke: #000000; stroke-width: 0.8"/>
      </g>
     </g>
    </g>
    <g id="xtick_12">
     <g id="line2d_45">
      <path d="M 518.4 496.173913 
L 518.4 375.652174 
" clip-path="url(#p75f20163d3)" style="fill: none; stroke: #b0b0b0; stroke-width: 0.8; stroke-linecap: square"/>
     </g>
     <g id="line2d_46">
      <g>
       <use xlink:href="#m8e3d6f7d21" x="518.4" y="496.173913" style="stroke: #000000; stroke-width: 0.8"/>
      </g>
     </g>
    </g>
   </g>
   <g id="matplotlib.axis_6">
    <g id="ytick_11">
     <g id="line2d_47">
      <path d="M 72 496.173913 
L 518.4 496.173913 
" clip-path="url(#p75f20163d3)" style="fill: none; stroke: #b0b0b0; stroke-width: 0.8; stroke-linecap: square"/>
     </g>
     <g id="line2d_48">
      <g>
       <use xlink:href="#mb67a75c630" x="72" y="496.173913" style="stroke: #000000; stroke-width: 0.8"/>
      </g>
     </g>
     <g id="text_15">
      <!-- 0.00 -->
      <g transform="translate(29.375 502.252663) scale(0.16 -0.16)">
       <use xlink:href="#DejaVuSans-30"/>
       <use xlink:href="#DejaVuSans-2e" transform="translate(63.623047 0)"/>
       <use xlink:href="#DejaVuSans-30" transform="translate(95.410156 0)"/>
       <use xlink:href="#DejaVuSans-30" transform="translate(159.033203 0)"/>
      </g>
     </g>
    </g>
    <g id="ytick_12">
     <g id="line2d_49">
      <path d="M 72 466.043478 
L 518.4 466.043478 
" clip-path="url(#p75f20163d3)" style="fill: none; stroke: #b0b0b0; stroke-width: 0.8; stroke-linecap: square"/>
     </g>
     <g id="line2d_50">
      <g>
       <use xlink:href="#mb67a75c630" x="72" y="466.043478" style="stroke: #000000; stroke-width: 0.8"/>
      </g>
     </g>
     <g id="text_16">
      <!-- 0.25 -->
      <g transform="translate(29.375 472.122228) scale(0.16 -0.16)">
       <use xlink:href="#DejaVuSans-30"/>
       <use xlink:href="#DejaVuSans-2e" transform="translate(63.623047 0)"/>
       <use xlink:href="#DejaVuSans-32" transform="translate(95.410156 0)"/>
       <use xlink:href="#DejaVuSans-35" transform="translate(159.033203 0)"/>
      </g>
     </g>
    </g>
    <g id="ytick_13">
     <g id="line2d_51">
      <path d="M 72 435.913043 
L 518.4 435.913043 
" clip-path="url(#p75f20163d3)" style="fill: none; stroke: #b0b0b0; stroke-width: 0.8; stroke-linecap: square"/>
     </g>
     <g id="line2d_52">
      <g>
       <use xlink:href="#mb67a75c630" x="72" y="435.913043" style="stroke: #000000; stroke-width: 0.8"/>
      </g>
     </g>
     <g id="text_17">
      <!-- 0.50 -->
      <g transform="translate(29.375 441.991793) scale(0.16 -0.16)">
       <use xlink:href="#DejaVuSans-30"/>
       <use xlink:href="#DejaVuSans-2e" transform="translate(63.623047 0)"/>
       <use xlink:href="#DejaVuSans-35" transform="translate(95.410156 0)"/>
       <use xlink:href="#DejaVuSans-30" transform="translate(159.033203 0)"/>
      </g>
     </g>
    </g>
    <g id="ytick_14">
     <g id="line2d_53">
      <path d="M 72 405.782609 
L 518.4 405.782609 
" clip-path="url(#p75f20163d3)" style="fill: none; stroke: #b0b0b0; stroke-width: 0.8; stroke-linecap: square"/>
     </g>
     <g id="line2d_54">
      <g>
       <use xlink:href="#mb67a75c630" x="72" y="405.782609" style="stroke: #000000; stroke-width: 0.8"/>
      </g>
     </g>
     <g id="text_18">
      <!-- 0.75 -->
      <g transform="translate(29.375 411.861359) scale(0.16 -0.16)">
       <use xlink:href="#DejaVuSans-30"/>
       <use xlink:href="#DejaVuSans-2e" transform="translate(63.623047 0)"/>
       <use xlink:href="#DejaVuSans-37" transform="translate(95.410156 0)"/>
       <use xlink:href="#DejaVuSans-35" transform="translate(159.033203 0)"/>
      </g>
     </g>
    </g>
    <g id="ytick_15">
     <g id="line2d_55">
      <path d="M 72 375.652174 
L 518.4 375.652174 
" clip-path="url(#p75f20163d3)" style="fill: none; stroke: #b0b0b0; stroke-width: 0.8; stroke-linecap: square"/>
     </g>
     <g id="line2d_56">
      <g>
       <use xlink:href="#mb67a75c630" x="72" y="375.652174" style="stroke: #000000; stroke-width: 0.8"/>
      </g>
     </g>
     <g id="text_19">
      <!-- 1.00 -->
      <g transform="translate(29.375 381.730924) scale(0.16 -0.16)">
       <use xlink:href="#DejaVuSans-31"/>
       <use xlink:href="#DejaVuSans-2e" transform="translate(63.623047 0)"/>
       <use xlink:href="#DejaVuSans-30" transform="translate(95.410156 0)"/>
       <use xlink:href="#DejaVuSans-30" transform="translate(159.033203 0)"/>
      </g>
     </g>
    </g>
    <g id="text_20">
     <!-- Height -->
     <g transform="translate(22.0475 462.359293) rotate(-90) scale(0.16 -0.16)">
      <use xlink:href="#DejaVuSans-48"/>
      <use xlink:href="#DejaVuSans-65" transform="translate(75.195312 0)"/>
      <use xlink:href="#DejaVuSans-69" transform="translate(136.71875 0)"/>
      <use xlink:href="#DejaVuSans-67" transform="translate(164.501953 0)"/>
      <use xlink:href="#DejaVuSans-68" transform="translate(227.978516 0)"/>
      <use xlink:href="#DejaVuSans-74" transform="translate(291.357422 0)"/>
     </g>
    </g>
   </g>
   <g id="line2d_57">
    <path d="M 72 496.217238 
L 76.509091 494.785373 
L 81.018182 493.130187 
L 85.527273 491.308667 
L 90.036364 489.362108 
L 94.545455 487.286667 
L 99.054545 484.998574 
L 103.563636 482.298352 
L 108.072727 478.851855 
L 112.581818 474.21362 
L 117.090909 467.911586 
L 121.6 459.624638 
L 126.109091 449.473102 
L 130.618182 438.364236 
L 135.127273 428.172209 
L 139.636364 421.397857 
L 144.145455 420.162649 
L 148.654545 425.052125 
L 153.163636 434.71889 
L 157.672727 446.612143 
L 162.181818 458.208179 
L 166.690909 467.827898 
L 171.2 474.731725 
L 175.709091 478.795014 
L 180.218182 480.126167 
L 184.727273 478.795016 
L 189.236364 474.731799 
L 193.745455 467.827952 
L 198.254545 458.208154 
L 202.763636 446.612179 
L 207.272727 434.718976 
L 211.781818 425.052197 
L 216.290909 420.162635 
L 220.8 421.397814 
L 225.309091 428.172231 
L 229.818182 438.363956 
L 234.327273 449.473016 
L 238.836364 459.624562 
L 243.345455 467.911441 
L 247.854545 474.213532 
L 252.363636 478.851794 
L 256.872727 482.29835 
L 261.381818 484.998589 
L 265.890909 487.286564 
L 270.4 489.362093 
L 274.909091 491.308531 
L 279.418182 493.130186 
L 283.927273 494.785337 
L 288.436364 496.217287 
L 292.945455 497.377314 
L 297.454545 498.237366 
L 301.963636 498.798301 
L 306.472727 499.08951 
L 310.981818 499.156887 
L 315.490909 499.051711 
L 320 498.825019 
L 324.509091 498.515605 
L 329.018182 498.140077 
L 333.527273 497.695299 
L 338.036364 497.167937 
L 342.545455 496.55225 
L 347.054545 495.872594 
L 351.563636 495.190102 
L 356.072727 494.584288 
L 360.581818 494.130026 
L 365.090909 493.887351 
L 369.6 493.897417 
L 374.109091 494.179122 
L 378.618182 494.724021 
L 383.127273 495.482888 
L 387.636364 496.358694 
L 392.145455 497.226816 
L 396.654545 497.961591 
L 401.163636 498.454177 
L 405.672727 498.627689 
L 410.181818 498.45414 
L 414.690909 497.961632 
L 419.2 497.226769 
L 423.709091 496.358661 
L 428.218182 495.482889 
L 432.727273 494.724091 
L 437.236364 494.179064 
L 441.745455 493.897419 
L 446.254545 493.887359 
L 450.763636 494.130012 
L 455.272727 494.584425 
L 459.781818 495.190208 
L 464.290909 495.872609 
L 468.8 496.552163 
L 473.309091 497.167889 
L 477.818182 497.695352 
L 482.327273 498.1401 
L 486.836364 498.515609 
L 491.345455 498.825075 
L 495.854545 499.051775 
L 500.363636 499.156938 
L 504.872727 499.089487 
L 509.381818 498.798385 
L 513.890909 498.237458 
L 518.4 497.377298 
" clip-path="url(#p75f20163d3)" style="fill: none; stroke: #0000ff; stroke-width: 1.5; stroke-linecap: square"/>
   </g>
   <g id="patch_13">
    <path d="M 72 496.173913 
L 72 375.652174 
" style="fill: none; stroke: #000000; stroke-width: 0.8; stroke-linejoin: miter; stroke-linecap: square"/>
   </g>
   <g id="patch_14">
    <path d="M 518.4 496.173913 
L 518.4 375.652174 
" style="fill: none; stroke: #000000; stroke-width: 0.8; stroke-linejoin: miter; stroke-linecap: square"/>
   </g>
   <g id="patch_15">
    <path d="M 72 496.173913 
L 518.4 496.173913 
" style="fill: none; stroke: #000000; stroke-width: 0.8; stroke-linejoin: miter; stroke-linecap: square"/>
   </g>
   <g id="patch_16">
    <path d="M 72 375.652174 
L 518.4 375.652174 
" style="fill: none; stroke: #000000; stroke-width: 0.8; stroke-linejoin: miter; stroke-linecap: square"/>
   </g>
   <g id="text_21">
    <!-- Time step 2500 -->
    <g transform="translate(220.4115 369.652174) scale(0.192 -0.192)">
     <use xlink:href="#DejaVuSans-54"/>
     <use xlink:href="#DejaVuSans-69" transform="translate(57.958984 0)"/>
     <use xlink:href="#DejaVuSans-6d" transform="translate(85.742188 0)"/>
     <use xlink:href="#DejaVuSans-65" transform="translate(183.154297 0)"/>
     <use xlink:href="#DejaVuSans-20" transform="translate(244.677734 0)"/>
     <use xlink:href="#DejaVuSans-73" transform="translate(276.464844 0)"/>
     <use xlink:href="#DejaVuSans-74" transform="translate(328.564453 0)"/>
     <use xlink:href="#DejaVuSans-65" transform="translate(367.773438 0)"/>
     <use xlink:href="#DejaVuSans-70" transform="translate(429.296875 0)"/>
     <use xlink:href="#DejaVuSans-20" transform="translate(492.773438 0)"/>
     <use xlink:href="#DejaVuSans-32" transform="translate(524.560547 0)"/>
     <use xlink:href="#DejaVuSans-35" transform="translate(588.183594 0)"/>
     <use xlink:href="#DejaVuSans-30" transform="translate(651.806641 0)"/>
     <use xlink:href="#DejaVuSans-30" transform="translate(715.429688 0)"/>
    </g>
   </g>
  </g>
  <g id="axes_4">
   <g id="patch_17">
    <path d="M 72 640.8 
L 518.4 640.8 
L 518.4 520.278261 
L 72 520.278261 
z
" style="fill: #ffffff"/>
   </g>
   <g id="FillBetweenPolyCollection_4">
    <defs>
     <path id="md0024622a9" d="M 72 -98.487375 
L 72 -79.2 
L 76.509091 -79.2 
L 81.018182 -79.2 
L 85.527273 -79.2 
L 90.036364 -79.2 
L 94.545455 -79.2 
L 99.054545 -79.2 
L 103.563636 -79.2 
L 108.072727 -79.2 
L 112.581818 -79.2 
L 117.090909 -79.2 
L 121.6 -79.2 
L 126.109091 -79.2 
L 130.618182 -79.2 
L 135.127273 -79.2 
L 139.636364 -79.2 
L 144.145455 -79.2 
L 148.654545 -79.2 
L 153.163636 -79.2 
L 157.672727 -79.2 
L 162.181818 -79.2 
L 166.690909 -79.2 
L 171.2 -79.2 
L 175.709091 -79.2 
L 180.218182 -79.2 
L 184.727273 -79.2 
L 189.236364 -79.2 
L 193.745455 -79.2 
L 198.254545 -79.2 
L 202.763636 -79.2 
L 207.272727 -79.2 
L 211.781818 -79.2 
L 216.290909 -79.2 
L 220.8 -79.2 
L 225.309091 -79.2 
L 229.818182 -79.2 
L 234.327273 -79.2 
L 238.836364 -79.2 
L 243.345455 -79.2 
L 247.854545 -79.2 
L 252.363636 -79.2 
L 256.872727 -79.2 
L 261.381818 -79.2 
L 265.890909 -79.2 
L 270.4 -79.2 
L 274.909091 -79.2 
L 279.418182 -79.2 
L 283.927273 -79.2 
L 288.436364 -79.2 
L 292.945455 -79.2 
L 297.454545 -79.2 
L 301.963636 -79.2 
L 306.472727 -79.2 
L 310.981818 -79.2 
L 315.490909 -79.2 
L 320 -79.2 
L 324.509091 -79.2 
L 329.018182 -79.2 
L 333.527273 -79.2 
L 338.036364 -79.2 
L 342.545455 -79.2 
L 347.054545 -79.2 
L 351.563636 -79.2 
L 356.072727 -79.2 
L 360.581818 -79.2 
L 365.090909 -79.2 
L 369.6 -79.2 
L 374.109091 -79.2 
L 378.618182 -79.2 
L 383.127273 -79.2 
L 387.636364 -79.2 
L 392.145455 -79.2 
L 396.654545 -79.2 
L 401.163636 -79.2 
L 405.672727 -79.2 
L 410.181818 -79.2 
L 414.690909 -79.2 
L 419.2 -79.2 
L 423.709091 -79.2 
L 428.218182 -79.2 
L 432.727273 -79.2 
L 437.236364 -79.2 
L 441.745455 -79.2 
L 446.254545 -79.2 
L 450.763636 -79.2 
L 455.272727 -79.2 
L 459.781818 -79.2 
L 464.290909 -79.2 
L 468.8 -79.2 
L 473.309091 -79.2 
L 477.818182 -79.2 
L 482.327273 -79.2 
L 486.836364 -79.2 
L 491.345455 -79.2 
L 495.854545 -79.2 
L 500.363636 -79.2 
L 504.872727 -79.2 
L 509.381818 -79.2 
L 513.890909 -79.2 
L 518.4 -79.2 
L 518.4 -94.863321 
L 518.4 -94.863321 
L 513.890909 -91.976498 
L 509.381818 -89.469606 
L 504.872727 -87.14655 
L 500.363636 -84.935469 
L 495.854545 -82.843042 
L 491.345455 -80.918195 
L 486.836364 -79.227846 
L 482.327273 -77.833493 
L 477.818182 -76.77677 
L 473.309091 -76.071257 
L 468.8 -75.695553 
L 464.290909 -75.595125 
L 459.781818 -75.696499 
L 455.272727 -75.928727 
L 450.763636 -76.246978 
L 446.254545 -76.640503 
L 441.745455 -77.114389 
L 437.236364 -77.673204 
L 432.727273 -78.306182 
L 428.218182 -78.976928 
L 423.709091 -79.62885 
L 419.2 -80.206031 
L 414.690909 -80.666719 
L 410.181818 -80.974313 
L 405.672727 -81.084644 
L 401.163636 -80.974412 
L 396.654545 -80.666789 
L 392.145455 -80.205899 
L 387.636364 -79.628944 
L 383.127273 -78.976958 
L 378.618182 -78.306188 
L 374.109091 -77.673234 
L 369.6 -77.114458 
L 365.090909 -76.640494 
L 360.581818 -76.247073 
L 356.072727 -75.928661 
L 351.563636 -75.6965 
L 347.054545 -75.59516 
L 342.545455 -75.695646 
L 338.036364 -76.071283 
L 333.527273 -76.776697 
L 329.018182 -77.83361 
L 324.509091 -79.227815 
L 320 -80.918189 
L 315.490909 -82.843105 
L 310.981818 -84.935468 
L 306.472727 -87.14647 
L 301.963636 -89.46971 
L 297.454545 -91.976485 
L 292.945455 -94.863357 
L 288.436364 -98.487346 
L 283.927273 -103.370292 
L 279.418182 -110.114265 
L 274.909091 -119.184388 
L 270.4 -130.511662 
L 265.890909 -142.989618 
L 261.381818 -154.218124 
L 256.872727 -161.022087 
L 252.363636 -160.87998 
L 247.854545 -153.437864 
L 243.345455 -140.776527 
L 238.836364 -126.140487 
L 234.327273 -112.313038 
L 229.818182 -100.83369 
L 225.309091 -92.131497 
L 220.8 -85.99151 
L 216.290909 -81.953018 
L 211.781818 -79.529523 
L 207.272727 -78.288145 
L 202.763636 -77.860259 
L 198.254545 -77.935686 
L 193.745455 -78.259042 
L 189.236364 -78.635406 
L 184.727273 -78.923666 
L 180.218182 -79.031131 
L 175.709091 -78.923492 
L 171.2 -78.635394 
L 166.690909 -78.25906 
L 162.181818 -77.935701 
L 157.672727 -77.860246 
L 153.163636 -78.288152 
L 148.654545 -79.529439 
L 144.145455 -81.953056 
L 139.636364 -85.991586 
L 135.127273 -92.131653 
L 130.618182 -100.833855 
L 126.109091 -112.31315 
L 121.6 -126.140537 
L 117.090909 -140.77675 
L 112.581818 -153.437907 
L 108.072727 -160.880109 
L 103.563636 -161.022087 
L 99.054545 -154.21816 
L 94.545455 -142.989481 
L 90.036364 -130.511554 
L 85.527273 -119.184129 
L 81.018182 -110.114143 
L 76.509091 -103.37012 
L 72 -98.487375 
z
" style="stroke: #0000ff; stroke-opacity: 0.4"/>
    </defs>
    <g clip-path="url(#p970cbe8110)">
     <use xlink:href="#md0024622a9" x="0" y="720" style="fill: #0000ff; fill-opacity: 0.4; stroke: #0000ff; stroke-opacity: 0.4"/>
    </g>
   </g>
   <g id="matplotlib.axis_7">
    <g id="xtick_13">
     <g id="line2d_58">
      <path d="M 180.218182 640.8 
L 180.218182 520.278261 
" clip-path="url(#p970cbe8110)" style="fill: none; stroke: #b0b0b0; stroke-width: 0.8; stroke-linecap: square"/>
     </g>
     <g id="line2d_59">
      <g>
       <use xlink:href="#m8e3d6f7d21" x="180.218182" y="640.8" style="stroke: #000000; stroke-width: 0.8"/>
      </g>
     </g>
     <g id="text_22">
      <!-- 25 -->
      <g transform="translate(170.038182 659.9575) scale(0.16 -0.16)">
       <use xlink:href="#DejaVuSans-32"/>
       <use xlink:href="#DejaVuSans-35" transform="translate(63.623047 0)"/>
      </g>
     </g>
    </g>
    <g id="xtick_14">
     <g id="line2d_60">
      <path d="M 292.945455 640.8 
L 292.945455 520.278261 
" clip-path="url(#p970cbe8110)" style="fill: none; stroke: #b0b0b0; stroke-width: 0.8; stroke-linecap: square"/>
     </g>
     <g id="line2d_61">
      <g>
       <use xlink:href="#m8e3d6f7d21" x="292.945455" y="640.8" style="stroke: #000000; stroke-width: 0.8"/>
      </g>
     </g>
     <g id="text_23">
      <!-- 50 -->
      <g transform="translate(282.765455 659.9575) scale(0.16 -0.16)">
       <use xlink:href="#DejaVuSans-35"/>
       <use xlink:href="#DejaVuSans-30" transform="translate(63.623047 0)"/>
      </g>
     </g>
    </g>
    <g id="xtick_15">
     <g id="line2d_62">
      <path d="M 405.672727 640.8 
L 405.672727 520.278261 
" clip-path="url(#p970cbe8110)" style="fill: none; stroke: #b0b0b0; stroke-width: 0.8; stroke-linecap: square"/>
     </g>
     <g id="line2d_63">
      <g>
       <use xlink:href="#m8e3d6f7d21" x="405.672727" y="640.8" style="stroke: #000000; stroke-width: 0.8"/>
      </g>
     </g>
     <g id="text_24">
      <!-- 75 -->
      <g transform="translate(395.492727 659.9575) scale(0.16 -0.16)">
       <use xlink:href="#DejaVuSans-37"/>
       <use xlink:href="#DejaVuSans-35" transform="translate(63.623047 0)"/>
      </g>
     </g>
    </g>
    <g id="xtick_16">
     <g id="line2d_64">
      <path d="M 518.4 640.8 
L 518.4 520.278261 
" clip-path="url(#p970cbe8110)" style="fill: none; stroke: #b0b0b0; stroke-width: 0.8; stroke-linecap: square"/>
     </g>
     <g id="line2d_65">
      <g>
       <use xlink:href="#m8e3d6f7d21" x="518.4" y="640.8" style="stroke: #000000; stroke-width: 0.8"/>
      </g>
     </g>
     <g id="text_25">
      <!-- 100 -->
      <g transform="translate(503.13 659.9575) scale(0.16 -0.16)">
       <use xlink:href="#DejaVuSans-31"/>
       <use xlink:href="#DejaVuSans-30" transform="translate(63.623047 0)"/>
       <use xlink:href="#DejaVuSans-30" transform="translate(127.246094 0)"/>
      </g>
     </g>
    </g>
    <g id="text_26">
     <!-- Spatial grid index -->
     <g transform="translate(225.01375 679.4425) scale(0.16 -0.16)">
      <defs>
       <path id="DejaVuSans-53" d="M 3425 4513 
L 3425 3897 
Q 3066 4069 2747 4153 
Q 2428 4238 2131 4238 
Q 1616 4238 1336 4038 
Q 1056 3838 1056 3469 
Q 1056 3159 1242 3001 
Q 1428 2844 1947 2747 
L 2328 2669 
Q 3034 2534 3370 2195 
Q 3706 1856 3706 1288 
Q 3706 609 3251 259 
Q 2797 -91 1919 -91 
Q 1588 -91 1214 -16 
Q 841 59 441 206 
L 441 856 
Q 825 641 1194 531 
Q 1563 422 1919 422 
Q 2459 422 2753 634 
Q 3047 847 3047 1241 
Q 3047 1584 2836 1778 
Q 2625 1972 2144 2069 
L 1759 2144 
Q 1053 2284 737 2584 
Q 422 2884 422 3419 
Q 422 4038 858 4394 
Q 1294 4750 2059 4750 
Q 2388 4750 2728 4690 
Q 3069 4631 3425 4513 
z
" transform="scale(0.015625)"/>
       <path id="DejaVuSans-61" d="M 2194 1759 
Q 1497 1759 1228 1600 
Q 959 1441 959 1056 
Q 959 750 1161 570 
Q 1363 391 1709 391 
Q 2188 391 2477 730 
Q 2766 1069 2766 1631 
L 2766 1759 
L 2194 1759 
z
M 3341 1997 
L 3341 0 
L 2766 0 
L 2766 531 
Q 2569 213 2275 61 
Q 1981 -91 1556 -91 
Q 1019 -91 701 211 
Q 384 513 384 1019 
Q 384 1609 779 1909 
Q 1175 2209 1959 2209 
L 2766 2209 
L 2766 2266 
Q 2766 2663 2505 2880 
Q 2244 3097 1772 3097 
Q 1472 3097 1187 3025 
Q 903 2953 641 2809 
L 641 3341 
Q 956 3463 1253 3523 
Q 1550 3584 1831 3584 
Q 2591 3584 2966 3190 
Q 3341 2797 3341 1997 
z
" transform="scale(0.015625)"/>
       <path id="DejaVuSans-6c" d="M 603 4863 
L 1178 4863 
L 1178 0 
L 603 0 
L 603 4863 
z
" transform="scale(0.015625)"/>
       <path id="DejaVuSans-72" d="M 2631 2963 
Q 2534 3019 2420 3045 
Q 2306 3072 2169 3072 
Q 1681 3072 1420 2755 
Q 1159 2438 1159 1844 
L 1159 0 
L 581 0 
L 581 3500 
L 1159 3500 
L 1159 2956 
Q 1341 3275 1631 3429 
Q 1922 3584 2338 3584 
Q 2397 3584 2469 3576 
Q 2541 3569 2628 3553 
L 2631 2963 
z
" transform="scale(0.015625)"/>
       <path id="DejaVuSans-64" d="M 2906 2969 
L 2906 4863 
L 3481 4863 
L 3481 0 
L 2906 0 
L 2906 525 
Q 2725 213 2448 61 
Q 2172 -91 1784 -91 
Q 1150 -91 751 415 
Q 353 922 353 1747 
Q 353 2572 751 3078 
Q 1150 3584 1784 3584 
Q 2172 3584 2448 3432 
Q 2725 3281 2906 2969 
z
M 947 1747 
Q 947 1113 1208 752 
Q 1469 391 1925 391 
Q 2381 391 2643 752 
Q 2906 1113 2906 1747 
Q 2906 2381 2643 2742 
Q 2381 3103 1925 3103 
Q 1469 3103 1208 2742 
Q 947 2381 947 1747 
z
" transform="scale(0.015625)"/>
       <path id="DejaVuSans-6e" d="M 3513 2113 
L 3513 0 
L 2938 0 
L 2938 2094 
Q 2938 2591 2744 2837 
Q 2550 3084 2163 3084 
Q 1697 3084 1428 2787 
Q 1159 2491 1159 1978 
L 1159 0 
L 581 0 
L 581 3500 
L 1159 3500 
L 1159 2956 
Q 1366 3272 1645 3428 
Q 1925 3584 2291 3584 
Q 2894 3584 3203 3211 
Q 3513 2838 3513 2113 
z
" transform="scale(0.015625)"/>
       <path id="DejaVuSans-78" d="M 3513 3500 
L 2247 1797 
L 3578 0 
L 2900 0 
L 1881 1375 
L 863 0 
L 184 0 
L 1544 1831 
L 300 3500 
L 978 3500 
L 1906 2253 
L 2834 3500 
L 3513 3500 
z
" transform="scale(0.015625)"/>
      </defs>
      <use xlink:href="#DejaVuSans-53"/>
      <use xlink:href="#DejaVuSans-70" transform="translate(63.476562 0)"/>
      <use xlink:href="#DejaVuSans-61" transform="translate(126.953125 0)"/>
      <use xlink:href="#DejaVuSans-74" transform="translate(188.232422 0)"/>
      <use xlink:href="#DejaVuSans-69" transform="translate(227.441406 0)"/>
      <use xlink:href="#DejaVuSans-61" transform="translate(255.224609 0)"/>
      <use xlink:href="#DejaVuSans-6c" transform="translate(316.503906 0)"/>
      <use xlink:href="#DejaVuSans-20" transform="translate(344.287109 0)"/>
      <use xlink:href="#DejaVuSans-67" transform="translate(376.074219 0)"/>
      <use xlink:href="#DejaVuSans-72" transform="translate(439.550781 0)"/>
      <use xlink:href="#DejaVuSans-69" transform="translate(480.664062 0)"/>
      <use xlink:href="#DejaVuSans-64" transform="translate(508.447266 0)"/>
      <use xlink:href="#DejaVuSans-20" transform="translate(571.923828 0)"/>
      <use xlink:href="#DejaVuSans-69" transform="translate(603.710938 0)"/>
      <use xlink:href="#DejaVuSans-6e" transform="translate(631.494141 0)"/>
      <use xlink:href="#DejaVuSans-64" transform="translate(694.873047 0)"/>
      <use xlink:href="#DejaVuSans-65" transform="translate(758.349609 0)"/>
      <use xlink:href="#DejaVuSans-78" transform="translate(818.123047 0)"/>
     </g>
    </g>
   </g>
   <g id="matplotlib.axis_8">
    <g id="ytick_16">
     <g id="line2d_66">
      <path d="M 72 640.8 
L 518.4 640.8 
" clip-path="url(#p970cbe8110)" style="fill: none; stroke: #b0b0b0; stroke-width: 0.8; stroke-linecap: square"/>
     </g>
     <g id="line2d_67">
      <g>
       <use xlink:href="#mb67a75c630" x="72" y="640.8" style="stroke: #000000; stroke-width: 0.8"/>
      </g>
     </g>
     <g id="text_27">
      <!-- 0.00 -->
      <g transform="translate(29.375 646.87875) scale(0.16 -0.16)">
       <use xlink:href="#DejaVuSans-30"/>
       <use xlink:href="#DejaVuSans-2e" transform="translate(63.623047 0)"/>
       <use xlink:href="#DejaVuSans-30" transform="translate(95.410156 0)"/>
       <use xlink:href="#DejaVuSans-30" transform="translate(159.033203 0)"/>
      </g>
     </g>
    </g>
    <g id="ytick_17">
     <g id="line2d_68">
      <path d="M 72 610.669565 
L 518.4 610.669565 
" clip-path="url(#p970cbe8110)" style="fill: none; stroke: #b0b0b0; stroke-width: 0.8; stroke-linecap: square"/>
     </g>
     <g id="line2d_69">
      <g>
       <use xlink:href="#mb67a75c630" x="72" y="610.669565" style="stroke: #000000; stroke-width: 0.8"/>
      </g>
     </g>
     <g id="text_28">
      <!-- 0.25 -->
      <g transform="translate(29.375 616.748315) scale(0.16 -0.16)">
       <use xlink:href="#DejaVuSans-30"/>
       <use xlink:href="#DejaVuSans-2e" transform="translate(63.623047 0)"/>
       <use xlink:href="#DejaVuSans-32" transform="translate(95.410156 0)"/>
       <use xlink:href="#DejaVuSans-35" transform="translate(159.033203 0)"/>
      </g>
     </g>
    </g>
    <g id="ytick_18">
     <g id="line2d_70">
      <path d="M 72 580.53913 
L 518.4 580.53913 
" clip-path="url(#p970cbe8110)" style="fill: none; stroke: #b0b0b0; stroke-width: 0.8; stroke-linecap: square"/>
     </g>
     <g id="line2d_71">
      <g>
       <use xlink:href="#mb67a75c630" x="72" y="580.53913" style="stroke: #000000; stroke-width: 0.8"/>
      </g>
     </g>
     <g id="text_29">
      <!-- 0.50 -->
      <g transform="translate(29.375 586.61788) scale(0.16 -0.16)">
       <use xlink:href="#DejaVuSans-30"/>
       <use xlink:href="#DejaVuSans-2e" transform="translate(63.623047 0)"/>
       <use xlink:href="#DejaVuSans-35" transform="translate(95.410156 0)"/>
       <use xlink:href="#DejaVuSans-30" transform="translate(159.033203 0)"/>
      </g>
     </g>
    </g>
    <g id="ytick_19">
     <g id="line2d_72">
      <path d="M 72 550.408696 
L 518.4 550.408696 
" clip-path="url(#p970cbe8110)" style="fill: none; stroke: #b0b0b0; stroke-width: 0.8; stroke-linecap: square"/>
     </g>
     <g id="line2d_73">
      <g>
       <use xlink:href="#mb67a75c630" x="72" y="550.408696" style="stroke: #000000; stroke-width: 0.8"/>
      </g>
     </g>
     <g id="text_30">
      <!-- 0.75 -->
      <g transform="translate(29.375 556.487446) scale(0.16 -0.16)">
       <use xlink:href="#DejaVuSans-30"/>
       <use xlink:href="#DejaVuSans-2e" transform="translate(63.623047 0)"/>
       <use xlink:href="#DejaVuSans-37" transform="translate(95.410156 0)"/>
       <use xlink:href="#DejaVuSans-35" transform="translate(159.033203 0)"/>
      </g>
     </g>
    </g>
    <g id="ytick_20">
     <g id="line2d_74">
      <path d="M 72 520.278261 
L 518.4 520.278261 
" clip-path="url(#p970cbe8110)" style="fill: none; stroke: #b0b0b0; stroke-width: 0.8; stroke-linecap: square"/>
     </g>
     <g id="line2d_75">
      <g>
       <use xlink:href="#mb67a75c630" x="72" y="520.278261" style="stroke: #000000; stroke-width: 0.8"/>
      </g>
     </g>
     <g id="text_31">
      <!-- 1.00 -->
      <g transform="translate(29.375 526.357011) scale(0.16 -0.16)">
       <use xlink:href="#DejaVuSans-31"/>
       <use xlink:href="#DejaVuSans-2e" transform="translate(63.623047 0)"/>
       <use xlink:href="#DejaVuSans-30" transform="translate(95.410156 0)"/>
       <use xlink:href="#DejaVuSans-30" transform="translate(159.033203 0)"/>
      </g>
     </g>
    </g>
    <g id="text_32">
     <!-- Height -->
     <g transform="translate(22.0475 606.98538) rotate(-90) scale(0.16 -0.16)">
      <use xlink:href="#DejaVuSans-48"/>
      <use xlink:href="#DejaVuSans-65" transform="translate(75.195312 0)"/>
      <use xlink:href="#DejaVuSans-69" transform="translate(136.71875 0)"/>
      <use xlink:href="#DejaVuSans-67" transform="translate(164.501953 0)"/>
      <use xlink:href="#DejaVuSans-68" transform="translate(227.978516 0)"/>
      <use xlink:href="#DejaVuSans-74" transform="translate(291.357422 0)"/>
     </g>
    </g>
   </g>
   <g id="line2d_76">
    <path d="M 72 621.512625 
L 76.509091 616.62988 
L 81.018182 609.885857 
L 85.527273 600.815871 
L 90.036364 589.488446 
L 94.545455 577.010519 
L 99.054545 565.78184 
L 103.563636 558.977913 
L 108.072727 559.119891 
L 112.581818 566.562093 
L 117.090909 579.22325 
L 121.6 593.859463 
L 126.109091 607.68685 
L 130.618182 619.166145 
L 135.127273 627.868347 
L 139.636364 634.008414 
L 144.145455 638.046944 
L 148.654545 640.470561 
L 153.163636 641.711848 
L 157.672727 642.139754 
L 162.181818 642.064299 
L 166.690909 641.74094 
L 171.2 641.364606 
L 175.709091 641.076508 
L 180.218182 640.968869 
L 184.727273 641.076334 
L 189.236364 641.364594 
L 193.745455 641.740958 
L 198.254545 642.064314 
L 202.763636 642.139741 
L 207.272727 641.711855 
L 211.781818 640.470477 
L 216.290909 638.046982 
L 220.8 634.00849 
L 225.309091 627.868503 
L 229.818182 619.16631 
L 234.327273 607.686962 
L 238.836364 593.859513 
L 243.345455 579.223473 
L 247.854545 566.562136 
L 252.363636 559.12002 
L 256.872727 558.977913 
L 261.381818 565.781876 
L 265.890909 577.010382 
L 270.4 589.488338 
L 274.909091 600.815612 
L 279.418182 609.885735 
L 283.927273 616.629708 
L 288.436364 621.512654 
L 292.945455 625.136643 
L 297.454545 628.023515 
L 301.963636 630.53029 
L 306.472727 632.85353 
L 310.981818 635.064532 
L 315.490909 637.156895 
L 320 639.081811 
L 324.509091 640.772185 
L 329.018182 642.16639 
L 333.527273 643.223303 
L 338.036364 643.928717 
L 342.545455 644.304354 
L 347.054545 644.40484 
L 351.563636 644.3035 
L 356.072727 644.071339 
L 360.581818 643.752927 
L 365.090909 643.359506 
L 369.6 642.885542 
L 374.109091 642.326766 
L 378.618182 641.693812 
L 383.127273 641.023042 
L 387.636364 640.371056 
L 392.145455 639.794101 
L 396.654545 639.333211 
L 401.163636 639.025588 
L 405.672727 638.915356 
L 410.181818 639.025687 
L 414.690909 639.333281 
L 419.2 639.793969 
L 423.709091 640.37115 
L 428.218182 641.023072 
L 432.727273 641.693818 
L 437.236364 642.326796 
L 441.745455 642.885611 
L 446.254545 643.359497 
L 450.763636 643.753022 
L 455.272727 644.071273 
L 459.781818 644.303501 
L 464.290909 644.404875 
L 468.8 644.304447 
L 473.309091 643.928743 
L 477.818182 643.22323 
L 482.327273 642.166507 
L 486.836364 640.772154 
L 491.345455 639.081805 
L 495.854545 637.156958 
L 500.363636 635.064531 
L 504.872727 632.85345 
L 509.381818 630.530394 
L 513.890909 628.023502 
L 518.4 625.136679 
" clip-path="url(#p970cbe8110)" style="fill: none; stroke: #0000ff; stroke-width: 1.5; stroke-linecap: square"/>
   </g>
   <g id="patch_18">
    <path d="M 72 640.8 
L 72 520.278261 
" style="fill: none; stroke: #000000; stroke-width: 0.8; stroke-linejoin: miter; stroke-linecap: square"/>
   </g>
   <g id="patch_19">
    <path d="M 518.4 640.8 
L 518.4 520.278261 
" style="fill: none; stroke: #000000; stroke-width: 0.8; stroke-linejoin: miter; stroke-linecap: square"/>
   </g>
   <g id="patch_20">
    <path d="M 72 640.8 
L 518.4 640.8 
" style="fill: none; stroke: #000000; stroke-width: 0.8; stroke-linejoin: miter; stroke-linecap: square"/>
   </g>
   <g id="patch_21">
    <path d="M 72 520.278261 
L 518.4 520.278261 
" style="fill: none; stroke: #000000; stroke-width: 0.8; stroke-linejoin: miter; stroke-linecap: square"/>
   </g>
   <g id="text_33">
    <!-- Time step 5000 -->
    <g transform="translate(220.4115 514.278261) scale(0.192 -0.192)">
     <use xlink:href="#DejaVuSans-54"/>
     <use xlink:href="#DejaVuSans-69" transform="translate(57.958984 0)"/>
     <use xlink:href="#DejaVuSans-6d" transform="translate(85.742188 0)"/>
     <use xlink:href="#DejaVuSans-65" transform="translate(183.154297 0)"/>
     <use xlink:href="#DejaVuSans-20" transform="translate(244.677734 0)"/>
     <use xlink:href="#DejaVuSans-73" transform="translate(276.464844 0)"/>
     <use xlink:href="#DejaVuSans-74" transform="translate(328.564453 0)"/>
     <use xlink:href="#DejaVuSans-65" transform="translate(367.773438 0)"/>
     <use xlink:href="#DejaVuSans-70" transform="translate(429.296875 0)"/>
     <use xlink:href="#DejaVuSans-20" transform="translate(492.773438 0)"/>
     <use xlink:href="#DejaVuSans-35" transform="translate(524.560547 0)"/>
     <use xlink:href="#DejaVuSans-30" transform="translate(588.183594 0)"/>
     <use xlink:href="#DejaVuSans-30" transform="translate(651.806641 0)"/>
     <use xlink:href="#DejaVuSans-30" transform="translate(715.429688 0)"/>
    </g>
   </g>
  </g>
 </g>
 <defs>
  <clipPath id="p079cc47432">
   <rect x="72" y="86.4" width="446.4" height="120.521739"/>
  </clipPath>
  <clipPath id="p9a2832f69f">
   <rect x="72" y="231.026087" width="446.4" height="120.521739"/>
  </clipPath>
  <clipPath id="p75f20163d3">
   <rect x="72" y="375.652174" width="446.4" height="120.521739"/>
  </clipPath>
  <clipPath id="p970cbe8110">
   <rect x="72" y="520.278261" width="446.4" height="120.521739"/>
  </clipPath>
 </defs>
</svg>
