<?xml version="1.0" encoding="utf-8" standalone="no"?>
<!DOCTYPE svg PUBLIC "-//W3C//DTD SVG 1.1//EN"
  "http://www.w3.org/Graphics/SVG/1.1/DTD/svg11.dtd">
<svg xmlns:xlink="http://www.w3.org/1999/xlink" width="576pt" height="720pt" viewBox="0 0 576 720" xmlns="http://www.w3.org/2000/svg" version="1.1">
 <metadata>
  <rdf:RDF xmlns:dc="http://purl.org/dc/elements/1.1/" xmlns:cc="http://creativecommons.org/ns#" xmlns:rdf="http://www.w3.org/1999/02/22-rdf-syntax-ns#">
   <cc:Work>
    <dc:type rdf:resource="http://purl.org/dc/dcmitype/StillImage"/>
    <dc:date>2026-04-23T17:38:09.792141</dc:date>
    <dc:format>image/svg+xml</dc:format>
    <dc:creator>
     <cc:Agent>
      <dc:title>Matplotlib v3.10.8, https://matplotlib.org/</dc:title>
     </cc:Agent>
    </dc:creator>
   </cc:Work>
  </rdf:RDF>
 </metadata>
 <defs>
  <style type="text/css">*{stroke-linejoin: round; stroke-linecap: butt}</style>
 </defs>
 <g id="figure_1">
  <g id="patch_1">
   <path d="M 0 720 
L 576 720 
L 576 0 
L 0 0 
z
" style="fill: #ffffff"/>
  </g>
  <g id="axes_1">
   <g id="patch_2">
    <path d="M 72 206.921739 
L 518.4 206.921739 
L 518.4 86.4 
L 72 86.4 
z
" style="fill: #ffffff"/>
   </g>
   <g id="FillBetweenPolyCollection_1">
    <defs>
     <path id="maef6f28369" d="M 72 -513.079458 
L 72 -513.078261 
L 76.509091 -513.078261 
L 81.018182 -513.078261 
L 85.527273 -513.078261 
L 90.036364 -513.078261 
L 94.545455 -513.078261 
L 99.054545 -513.078261 
L 103.563636 -513.078261 
L 108.072727 -513.078261 
L 112.581818 -513.078261 
L 117.090909 -513.078261 
L 121.6 -513.078261 
L 126.109091 -513.078261 
L 130.618182 -513.078261 
L 135.127273 -513.078261 
L 139.636364 -513.078261 
L 144.145455 -513.078261 
L 148.654545 -513.078261 
L 153.163636 -513.078261 
L 157.672727 -513.078261 
L 162.181818 -513.078261 
L 166.690909 -513.078261 
L 171.2 -513.078261 
L 175.709091 -513.078261 
L 180.218182 -513.078261 
L 184.727273 -513.078261 
L 189.236364 -513.078261 
L 193.745455 -513.078261 
L 198.254545 -513.078261 
L 202.763636 -513.078261 
L 207.272727 -513.078261 
L 211.781818 -513.078261 
L 216.290909 -513.078261 
L 220.8 -513.078261 
L 225.309091 -513.078261 
L 229.818182 -513.078261 
L 234.327273 -513.078261 
L 238.836364 -513.078261 
L 243.345455 -513.078261 
L 247.854545 -513.078261 
L 252.363636 -513.078261 
L 256.872727 -513.078261 
L 261.381818 -513.078261 
L 265.890909 -513.078261 
L 270.4 -513.078261 
L 274.909091 -513.078261 
L 279.418182 -513.078261 
L 283.927273 -513.078261 
L 288.436364 -513.078261 
L 292.945455 -513.078261 
L 297.454545 -513.078261 
L 301.963636 -513.078261 
L 306.472727 -513.078261 
L 310.981818 -513.078261 
L 315.490909 -513.078261 
L 320 -513.078261 
L 324.509091 -513.078261 
L 329.018182 -513.078261 
L 333.527273 -513.078261 
L 338.036364 -513.078261 
L 342.545455 -513.078261 
L 347.054545 -513.078261 
L 351.563636 -513.078261 
L 356.072727 -513.078261 
L 360.581818 -513.078261 
L 365.090909 -513.078261 
L 369.6 -513.078261 
L 374.109091 -513.078261 
L 378.618182 -513.078261 
L 383.127273 -513.078261 
L 387.636364 -513.078261 
L 392.145455 -513.078261 
L 396.654545 -513.078261 
L 401.163636 -513.078261 
L 405.672727 -513.078261 
L 410.181818 -513.078261 
L 414.690909 -513.078261 
L 419.2 -513.078261 
L 423.709091 -513.078261 
L 428.218182 -513.078261 
L 432.727273 -513.078261 
L 437.236364 -513.078261 
L 441.745455 -513.078261 
L 446.254545 -513.078261 
L 450.763636 -513.078261 
L 455.272727 -513.078261 
L 459.781818 -513.078261 
L 464.290909 -513.078261 
L 468.8 -513.078261 
L 473.309091 -513.078261 
L 477.818182 -513.078261 
L 482.327273 -513.078261 
L 486.836364 -513.078261 
L 491.345455 -513.078261 
L 495.854545 -513.078261 
L 500.363636 -513.078261 
L 504.872727 -513.078261 
L 509.381818 -513.078261 
L 513.890909 -513.078261 
L 518.4 -513.078261 
L 518.4 -513.078261 
L 518.4 -513.078261 
L 513.890909 -513.078261 
L 509.381818 -513.078261 
L 504.872727 -513.078261 
L 500.363636 -513.078261 
L 495.854545 -513.078261 
L 491.345455 -513.078261 
L 486.836364 -513.078261 
L 482.327273 -513.078261 
L 477.818182 -513.078261 
L 473.309091 -513.078261 
L 468.8 -513.078261 
L 464.290909 -513.078261 
L 459.781818 -513.078261 
L 455.272727 -513.078261 
L 450.763636 -513.078261 
L 446.254545 -513.078261 
L 441.745455 -513.078261 
L 437.236364 -513.078261 
L 432.727273 -513.078261 
L 428.218182 -513.078261 
L 423.709091 -513.078261 
L 419.2 -513.078261 
L 414.690909 -513.078261 
L 410.181818 -513.078261 
L 405.672727 -513.078261 
L 401.163636 -513.078261 
L 396.654545 -513.078261 
L 392.145455 -513.078261 
L 387.636364 -513.078261 
L 383.127273 -513.078261 
L 378.618182 -513.078261 
L 374.109091 -513.078261 
L 369.6 -513.078261 
L 365.090909 -513.078261 
L 360.581818 -513.078261 
L 356.072727 -513.078261 
L 351.563636 -513.078261 
L 347.054545 -513.078261 
L 342.545455 -513.078261 
L 338.036364 -513.078261 
L 333.527273 -513.078261 
L 329.018182 -513.078261 
L 324.509091 -513.078261 
L 320 -513.078261 
L 315.490909 -513.078263 
L 310.981818 -513.078267 
L 306.472727 -513.07828 
L 301.963636 -513.078317 
L 297.454545 -513.078423 
L 292.945455 -513.07871 
L 288.436364 -513.079458 
L 283.927273 -513.081324 
L 279.418182 -513.085796 
L 274.909091 -513.096068 
L 270.4 -513.118691 
L 265.890909 -513.166459 
L 261.381818 -513.263118 
L 256.872727 -513.450518 
L 252.363636 -513.798502 
L 247.854545 -514.417136 
L 243.345455 -515.469544 
L 238.836364 -517.18172 
L 234.327273 -519.843721 
L 229.818182 -523.79525 
L 225.309091 -529.389104 
L 220.8 -536.929356 
L 216.290909 -546.587801 
L 211.781818 -558.311408 
L 207.272727 -571.742491 
L 202.763636 -586.178392 
L 198.254545 -600.595004 
L 193.745455 -613.746481 
L 189.236364 -624.333846 
L 184.727273 -631.213511 
L 180.218182 -633.6 
L 175.709091 -631.213511 
L 171.2 -624.333846 
L 166.690909 -613.746481 
L 162.181818 -600.595004 
L 157.672727 -586.178392 
L 153.163636 -571.742491 
L 148.654545 -558.311408 
L 144.145455 -546.587801 
L 139.636364 -536.929356 
L 135.127273 -529.389104 
L 130.618182 -523.79525 
L 126.109091 -519.843721 
L 121.6 -517.18172 
L 117.090909 -515.469544 
L 112.581818 -514.417136 
L 108.072727 -513.798502 
L 103.563636 -513.450518 
L 99.054545 -513.263118 
L 94.545455 -513.166459 
L 90.036364 -513.118691 
L 85.527273 -513.096068 
L 81.018182 -513.085796 
L 76.509091 -513.081324 
L 72 -513.079458 
z
" style="stroke: #0000ff; stroke-opacity: 0.4"/>
    </defs>
    <g clip-path="url(#peafbb6ad8b)">
     <use xlink:href="#maef6f28369" x="0" y="720" style="fill: #0000ff; fill-opacity: 0.4; stroke: #0000ff; stroke-opacity: 0.4"/>
    </g>
   </g>
   <g id="matplotlib.axis_1">
    <g id="xtick_1">
     <g id="line2d_1">
      <path d="M 180.218182 206.921739 
L 180.218182 86.4 
" clip-path="url(#peafbb6ad8b)" style="fill: none; stroke: #b0b0b0; stroke-width: 0.8; stroke-linecap: square"/>
     </g>
     <g id="line2d_2">
      <defs>
       <path id="m0c2a9fbf59" d="M 0 0 
L 0 3.5 
" style="stroke: #000000; stroke-width: 0.8"/>
      </defs>
      <g>
       <use xlink:href="#m0c2a9fbf59" x="180.218182" y="206.921739" style="stroke: #000000; stroke-width: 0.8"/>
      </g>
     </g>
    </g>
    <g id="xtick_2">
     <g id="line2d_3">
      <path d="M 292.945455 206.921739 
L 292.945455 86.4 
" clip-path="url(#peafbb6ad8b)" style="fill: none; stroke: #b0b0b0; stroke-width: 0.8; stroke-linecap: square"/>
     </g>
     <g id="line2d_4">
      <g>
       <use xlink:href="#m0c2a9fbf59" x="292.945455" y="206.921739" style="stroke: #000000; stroke-width: 0.8"/>
      </g>
     </g>
    </g>
    <g id="xtick_3">
     <g id="line2d_5">
      <path d="M 405.672727 206.921739 
L 405.672727 86.4 
" clip-path="url(#peafbb6ad8b)" style="fill: none; stroke: #b0b0b0; stroke-width: 0.8; stroke-linecap: square"/>
     </g>
     <g id="line2d_6">
      <g>
       <use xlink:href="#m0c2a9fbf59" x="405.672727" y="206.921739" style="stroke: #000000; stroke-width: 0.8"/>
      </g>
     </g>
    </g>
    <g id="xtick_4">
     <g id="line2d_7">
      <path d="M 518.4 206.921739 
L 518.4 86.4 
" clip-path="url(#peafbb6ad8b)" style="fill: none; stroke: #b0b0b0; stroke-width: 0.8; stroke-linecap: square"/>
     </g>
     <g id="line2d_8">
      <g>
       <use xlink:href="#m0c2a9fbf59" x="518.4" y="206.921739" style="stroke: #000000; stroke-width: 0.8"/>
      </g>
     </g>
    </g>
   </g>
   <g id="matplotlib.axis_2">
    <g id="ytick_1">
     <g id="line2d_9">
      <path d="M 72 206.921739 
L 518.4 206.921739 
" clip-path="url(#peafbb6ad8b)" style="fill: none; stroke: #b0b0b0; stroke-width: 0.8; stroke-linecap: square"/>
     </g>
     <g id="line2d_10">
      <defs>
       <path id="m03b7df134f" d="M 0 0 
L -3.5 0 
" style="stroke: #000000; stroke-width: 0.8"/>
      </defs>
      <g>
       <use xlink:href="#m03b7df134f" x="72" y="206.921739" style="stroke: #000000; stroke-width: 0.8"/>
      </g>
     </g>
     <g id="text_1">
      <!-- 0.00 -->
      <g transform="translate(29.375 213.000489) scale(0.16 -0.16)">
       <defs>
        <path id="DejaVuSans-30" d="M 2034 4250 
Q 1547 4250 1301 3770 
Q 1056 3291 1056 2328 
Q 1056 1369 1301 889 
Q 1547 409 2034 409 
Q 2525 409 2770 889 
Q 3016 1369 3016 2328 
Q 3016 3291 2770 3770 
Q 2525 4250 2034 4250 
z
M 2034 4750 
Q 2819 4750 3233 4129 
Q 3647 3509 3647 2328 
Q 3647 1150 3233 529 
Q 2819 -91 2034 -91 
Q 1250 -91 836 529 
Q 422 1150 422 2328 
Q 422 3509 836 4129 
Q 1250 4750 2034 4750 
z
" transform="scale(0.015625)"/>
        <path id="DejaVuSans-2e" d="M 684 794 
L 1344 794 
L 1344 0 
L 684 0 
L 684 794 
z
" transform="scale(0.015625)"/>
       </defs>
       <use xlink:href="#DejaVuSans-30"/>
       <use xlink:href="#DejaVuSans-2e" transform="translate(63.623047 0)"/>
       <use xlink:href="#DejaVuSans-30" transform="translate(95.410156 0)"/>
       <use xlink:href="#DejaVuSans-30" transform="translate(159.033203 0)"/>
      </g>
     </g>
    </g>
    <g id="ytick_2">
     <g id="line2d_11">
      <path d="M 72 176.791304 
L 518.4 176.791304 
" clip-path="url(#peafbb6ad8b)" style="fill: none; stroke: #b0b0b0; stroke-width: 0.8; stroke-linecap: square"/>
     </g>
     <g id="line2d_12">
      <g>
       <use xlink:href="#m03b7df134f" x="72" y="176.791304" style="stroke: #000000; stroke-width: 0.8"/>
      </g>
     </g>
     <g id="text_2">
      <!-- 0.25 -->
      <g transform="translate(29.375 182.870054) scale(0.16 -0.16)">
       <defs>
        <path id="DejaVuSans-32" d="M 1228 531 
L 3431 531 
L 3431 0 
L 469 0 
L 469 531 
Q 828 903 1448 1529 
Q 2069 2156 2228 2338 
Q 2531 2678 2651 2914 
Q 2772 3150 2772 3378 
Q 2772 3750 2511 3984 
Q 2250 4219 1831 4219 
Q 1534 4219 1204 4116 
Q 875 4013 500 3803 
L 500 4441 
Q 881 4594 1212 4672 
Q 1544 4750 1819 4750 
Q 2544 4750 2975 4387 
Q 3406 4025 3406 3419 
Q 3406 3131 3298 2873 
Q 3191 2616 2906 2266 
Q 2828 2175 2409 1742 
Q 1991 1309 1228 531 
z
" transform="scale(0.015625)"/>
        <path id="DejaVuSans-35" d="M 691 4666 
L 3169 4666 
L 3169 4134 
L 1269 4134 
L 1269 2991 
Q 1406 3038 1543 3061 
Q 1681 3084 1819 3084 
Q 2600 3084 3056 2656 
Q 3513 2228 3513 1497 
Q 3513 744 3044 326 
Q 2575 -91 1722 -91 
Q 1428 -91 1123 -41 
Q 819 9 494 109 
L 494 744 
Q 775 591 1075 516 
Q 1375 441 1709 441 
Q 2250 441 2565 725 
Q 2881 1009 2881 1497 
Q 2881 1984 2565 2268 
Q 2250 2553 1709 2553 
Q 1456 2553 1204 2497 
Q 953 2441 691 2322 
L 691 4666 
z
" transform="scale(0.015625)"/>
       </defs>
       <use xlink:href="#DejaVuSans-30"/>
       <use xlink:href="#DejaVuSans-2e" transform="translate(63.623047 0)"/>
       <use xlink:href="#DejaVuSans-32" transform="translate(95.410156 0)"/>
       <use xlink:href="#DejaVuSans-35" transform="translate(159.033203 0)"/>
      </g>
     </g>
    </g>
    <g id="ytick_3">
     <g id="line2d_13">
      <path d="M 72 146.66087 
L 518.4 146.66087 
" clip-path="url(#peafbb6ad8b)" style="fill: none; stroke: #b0b0b0; stroke-width: 0.8; stroke-linecap: square"/>
     </g>
     <g id="line2d_14">
      <g>
       <use xlink:href="#m03b7df134f" x="72" y="146.66087" style="stroke: #000000; stroke-width: 0.8"/>
      </g>
     </g>
     <g id="text_3">
      <!-- 0.50 -->
      <g transform="translate(29.375 152.73962) scale(0.16 -0.16)">
       <use xlink:href="#DejaVuSans-30"/>
       <use xlink:href="#DejaVuSans-2e" transform="translate(63.623047 0)"/>
       <use xlink:href="#DejaVuSans-35" transform="translate(95.410156 0)"/>
       <use xlink:href="#DejaVuSans-30" transform="translate(159.033203 0)"/>
      </g>
     </g>
    </g>
    <g id="ytick_4">
     <g id="line2d_15">
      <path d="M 72 116.530435 
L 518.4 116.530435 
" clip-path="url(#peafbb6ad8b)" style="fill: none; stroke: #b0b0b0; stroke-width: 0.8; stroke-linecap: square"/>
     </g>
     <g id="line2d_16">
      <g>
       <use xlink:href="#m03b7df134f" x="72" y="116.530435" style="stroke: #000000; stroke-width: 0.8"/>
      </g>
     </g>
     <g id="text_4">
      <!-- 0.75 -->
      <g transform="translate(29.375 122.609185) scale(0.16 -0.16)">
       <defs>
        <path id="DejaVuSans-37" d="M 525 4666 
L 3525 4666 
L 3525 4397 
L 1831 0 
L 1172 0 
L 2766 4134 
L 525 4134 
L 525 4666 
z
" transform="scale(0.015625)"/>
       </defs>
       <use xlink:href="#DejaVuSans-30"/>
       <use xlink:href="#DejaVuSans-2e" transform="translate(63.623047 0)"/>
       <use xlink:href="#DejaVuSans-37" transform="translate(95.410156 0)"/>
       <use xlink:href="#DejaVuSans-35" transform="translate(159.033203 0)"/>
      </g>
     </g>
    </g>
    <g id="ytick_5">
     <g id="line2d_17">
      <path d="M 72 86.4 
L 518.4 86.4 
" clip-path="url(#peafbb6ad8b)" style="fill: none; stroke: #b0b0b0; stroke-width: 0.8; stroke-linecap: square"/>
     </g>
     <g id="line2d_18">
      <g>
       <use xlink:href="#m03b7df134f" x="72" y="86.4" style="stroke: #000000; stroke-width: 0.8"/>
      </g>
     </g>
     <g id="text_5">
      <!-- 1.00 -->
      <g transform="translate(29.375 92.47875) scale(0.16 -0.16)">
       <defs>
        <path id="DejaVuSans-31" d="M 794 531 
L 1825 531 
L 1825 4091 
L 703 3866 
L 703 4441 
L 1819 4666 
L 2450 4666 
L 2450 531 
L 3481 531 
L 3481 0 
L 794 0 
L 794 531 
z
" transform="scale(0.015625)"/>
       </defs>
       <use xlink:href="#DejaVuSans-31"/>
       <use xlink:href="#DejaVuSans-2e" transform="translate(63.623047 0)"/>
       <use xlink:href="#DejaVuSans-30" transform="translate(95.410156 0)"/>
       <use xlink:href="#DejaVuSans-30" transform="translate(159.033203 0)"/>
      </g>
     </g>
    </g>
    <g id="text_6">
     <!-- Height -->
     <g transform="translate(22.0475 173.10712) rotate(-90) scale(0.16 -0.16)">
      <defs>
       <path id="DejaVuSans-48" d="M 628 4666 
L 1259 4666 
L 1259 2753 
L 3553 2753 
L 3553 4666 
L 4184 4666 
L 4184 0 
L 3553 0 
L 3553 2222 
L 1259 2222 
L 1259 0 
L 628 0 
L 628 4666 
z
" transform="scale(0.015625)"/>
       <path id="DejaVuSans-65" d="M 3597 1894 
L 3597 1613 
L 953 1613 
Q 991 1019 1311 708 
Q 1631 397 2203 397 
Q 2534 397 2845 478 
Q 3156 559 3463 722 
L 3463 178 
Q 3153 47 2828 -22 
Q 2503 -91 2169 -91 
Q 1331 -91 842 396 
Q 353 884 353 1716 
Q 353 2575 817 3079 
Q 1281 3584 2069 3584 
Q 2775 3584 3186 3129 
Q 3597 2675 3597 1894 
z
M 3022 2063 
Q 3016 2534 2758 2815 
Q 2500 3097 2075 3097 
Q 1594 3097 1305 2825 
Q 1016 2553 972 2059 
L 3022 2063 
z
" transform="scale(0.015625)"/>
       <path id="DejaVuSans-69" d="M 603 3500 
L 1178 3500 
L 1178 0 
L 603 0 
L 603 3500 
z
M 603 4863 
L 1178 4863 
L 1178 4134 
L 603 4134 
L 603 4863 
z
" transform="scale(0.015625)"/>
       <path id="DejaVuSans-67" d="M 2906 1791 
Q 2906 2416 2648 2759 
Q 2391 3103 1925 3103 
Q 1463 3103 1205 2759 
Q 947 2416 947 1791 
Q 947 1169 1205 825 
Q 1463 481 1925 481 
Q 2391 481 2648 825 
Q 2906 1169 2906 1791 
z
M 3481 434 
Q 3481 -459 3084 -895 
Q 2688 -1331 1869 -1331 
Q 1566 -1331 1297 -1286 
Q 1028 -1241 775 -1147 
L 775 -588 
Q 1028 -725 1275 -790 
Q 1522 -856 1778 -856 
Q 2344 -856 2625 -561 
Q 2906 -266 2906 331 
L 2906 616 
Q 2728 306 2450 153 
Q 2172 0 1784 0 
Q 1141 0 747 490 
Q 353 981 353 1791 
Q 353 2603 747 3093 
Q 1141 3584 1784 3584 
Q 2172 3584 2450 3431 
Q 2728 3278 2906 2969 
L 2906 3500 
L 3481 3500 
L 3481 434 
z
" transform="scale(0.015625)"/>
       <path id="DejaVuSans-68" d="M 3513 2113 
L 3513 0 
L 2938 0 
L 2938 2094 
Q 2938 2591 2744 2837 
Q 2550 3084 2163 3084 
Q 1697 3084 1428 2787 
Q 1159 2491 1159 1978 
L 1159 0 
L 581 0 
L 581 4863 
L 1159 4863 
L 1159 2956 
Q 1366 3272 1645 3428 
Q 1925 3584 2291 3584 
Q 2894 3584 3203 3211 
Q 3513 2838 3513 2113 
z
" transform="scale(0.015625)"/>
       <path id="DejaVuSans-74" d="M 1172 4494 
L 1172 3500 
L 2356 3500 
L 2356 3053 
L 1172 3053 
L 1172 1153 
Q 1172 725 1289 603 
Q 1406 481 1766 481 
L 2356 481 
L 2356 0 
L 1766 0 
Q 1100 0 847 248 
Q 594 497 594 1153 
L 594 3053 
L 172 3053 
L 172 3500 
L 594 3500 
L 594 4494 
L 1172 4494 
z
" transform="scale(0.015625)"/>
      </defs>
      <use xlink:href="#DejaVuSans-48"/>
      <use xlink:href="#DejaVuSans-65" transform="translate(75.195312 0)"/>
      <use xlink:href="#DejaVuSans-69" transform="translate(136.71875 0)"/>
      <use xlink:href="#DejaVuSans-67" transform="translate(164.501953 0)"/>
      <use xlink:href="#DejaVuSans-68" transform="translate(227.978516 0)"/>
      <use xlink:href="#DejaVuSans-74" transform="translate(291.357422 0)"/>
     </g>
    </g>
   </g>
   <g id="line2d_19">
    <path d="M 72 206.920542 
L 76.509091 206.918676 
L 81.018182 206.914204 
L 85.527273 206.903932 
L 90.036364 206.881309 
L 94.545455 206.833541 
L 99.054545 206.736882 
L 103.563636 206.549482 
L 108.072727 206.201498 
L 112.581818 205.582864 
L 117.090909 204.530456 
L 121.6 202.81828 
L 126.109091 200.156279 
L 130.618182 196.20475 
L 135.127273 190.610896 
L 139.636364 183.070644 
L 144.145455 173.412199 
L 148.654545 161.688592 
L 153.163636 148.257509 
L 157.672727 133.821608 
L 162.181818 119.404996 
L 166.690909 106.253519 
L 171.2 95.666154 
L 175.709091 88.786489 
L 180.218182 86.4 
L 184.727273 88.786489 
L 189.236364 95.666154 
L 193.745455 106.253519 
L 198.254545 119.404996 
L 202.763636 133.821608 
L 207.272727 148.257509 
L 211.781818 161.688592 
L 216.290909 173.412199 
L 220.8 183.070644 
L 225.309091 190.610896 
L 229.818182 196.20475 
L 234.327273 200.156279 
L 238.836364 202.81828 
L 243.345455 204.530456 
L 247.854545 205.582864 
L 252.363636 206.201498 
L 256.872727 206.549482 
L 261.381818 206.736882 
L 265.890909 206.833541 
L 270.4 206.881309 
L 274.909091 206.903932 
L 279.418182 206.914204 
L 283.927273 206.918676 
L 288.436364 206.920542 
L 292.945455 206.92129 
L 297.454545 206.921577 
L 301.963636 206.921683 
L 306.472727 206.92172 
L 310.981818 206.921733 
L 315.490909 206.921737 
L 320 206.921739 
L 324.509091 206.921739 
L 329.018182 206.921739 
L 333.527273 206.921739 
L 338.036364 206.921739 
L 342.545455 206.921739 
L 347.054545 206.921739 
L 351.563636 206.921739 
L 356.072727 206.921739 
L 360.581818 206.921739 
L 365.090909 206.921739 
L 369.6 206.921739 
L 374.109091 206.921739 
L 378.618182 206.921739 
L 383.127273 206.921739 
L 387.636364 206.921739 
L 392.145455 206.921739 
L 396.654545 206.921739 
L 401.163636 206.921739 
L 405.672727 206.921739 
L 410.181818 206.921739 
L 414.690909 206.921739 
L 419.2 206.921739 
L 423.709091 206.921739 
L 428.218182 206.921739 
L 432.727273 206.921739 
L 437.236364 206.921739 
L 441.745455 206.921739 
L 446.254545 206.921739 
L 450.763636 206.921739 
L 455.272727 206.921739 
L 459.781818 206.921739 
L 464.290909 206.921739 
L 468.8 206.921739 
L 473.309091 206.921739 
L 477.818182 206.921739 
L 482.327273 206.921739 
L 486.836364 206.921739 
L 491.345455 206.921739 
L 495.854545 206.921739 
L 500.363636 206.921739 
L 504.872727 206.921739 
L 509.381818 206.921739 
L 513.890909 206.921739 
L 518.4 206.921739 
" clip-path="url(#peafbb6ad8b)" style="fill: none; stroke: #0000ff; stroke-width: 1.5; stroke-linecap: square"/>
   </g>
   <g id="patch_3">
    <path d="M 72 206.921739 
L 72 86.4 
" style="fill: none; stroke: #000000; stroke-width: 0.8; stroke-linejoin: miter; stroke-linecap: square"/>
   </g>
   <g id="patch_4">
    <path d="M 518.4 206.921739 
L 518.4 86.4 
" style="fill: none; stroke: #000000; stroke-width: 0.8; stroke-linejoin: miter; stroke-linecap: square"/>
   </g>
   <g id="patch_5">
    <path d="M 72 206.921739 
L 518.4 206.921739 
" style="fill: none; stroke: #000000; stroke-width: 0.8; stroke-linejoin: miter; stroke-linecap: square"/>
   </g>
   <g id="patch_6">
    <path d="M 72 86.4 
L 518.4 86.4 
" style="fill: none; stroke: #000000; stroke-width: 0.8; stroke-linejoin: miter; stroke-linecap: square"/>
   </g>
   <g id="text_7">
    <!-- Time step   0 -->
    <g transform="translate(232.6335 80.4) scale(0.192 -0.192)">
     <defs>
      <path id="DejaVuSans-54" d="M -19 4666 
L 3928 4666 
L 3928 4134 
L 2272 4134 
L 2272 0 
L 1638 0 
L 1638 4134 
L -19 4134 
L -19 4666 
z
" transform="scale(0.015625)"/>
      <path id="DejaVuSans-6d" d="M 3328 2828 
Q 3544 3216 3844 3400 
Q 4144 3584 4550 3584 
Q 5097 3584 5394 3201 
Q 5691 2819 5691 2113 
L 5691 0 
L 5113 0 
L 5113 2094 
Q 5113 2597 4934 2840 
Q 4756 3084 4391 3084 
Q 3944 3084 3684 2787 
Q 3425 2491 3425 1978 
L 3425 0 
L 2847 0 
L 2847 2094 
Q 2847 2600 2669 2842 
Q 2491 3084 2119 3084 
Q 1678 3084 1418 2786 
Q 1159 2488 1159 1978 
L 1159 0 
L 581 0 
L 581 3500 
L 1159 3500 
L 1159 2956 
Q 1356 3278 1631 3431 
Q 1906 3584 2284 3584 
Q 2666 3584 2933 3390 
Q 3200 3197 3328 2828 
z
" transform="scale(0.015625)"/>
      <path id="DejaVuSans-20" transform="scale(0.015625)"/>
      <path id="DejaVuSans-73" d="M 2834 3397 
L 2834 2853 
Q 2591 2978 2328 3040 
Q 2066 3103 1784 3103 
Q 1356 3103 1142 2972 
Q 928 2841 928 2578 
Q 928 2378 1081 2264 
Q 1234 2150 1697 2047 
L 1894 2003 
Q 2506 1872 2764 1633 
Q 3022 1394 3022 966 
Q 3022 478 2636 193 
Q 2250 -91 1575 -91 
Q 1294 -91 989 -36 
Q 684 19 347 128 
L 347 722 
Q 666 556 975 473 
Q 1284 391 1588 391 
Q 1994 391 2212 530 
Q 2431 669 2431 922 
Q 2431 1156 2273 1281 
Q 2116 1406 1581 1522 
L 1381 1569 
Q 847 1681 609 1914 
Q 372 2147 372 2553 
Q 372 3047 722 3315 
Q 1072 3584 1716 3584 
Q 2034 3584 2315 3537 
Q 2597 3491 2834 3397 
z
" transform="scale(0.015625)"/>
      <path id="DejaVuSans-70" d="M 1159 525 
L 1159 -1331 
L 581 -1331 
L 581 3500 
L 1159 3500 
L 1159 2969 
Q 1341 3281 1617 3432 
Q 1894 3584 2278 3584 
Q 2916 3584 3314 3078 
Q 3713 2572 3713 1747 
Q 3713 922 3314 415 
Q 2916 -91 2278 -91 
Q 1894 -91 1617 61 
Q 1341 213 1159 525 
z
M 3116 1747 
Q 3116 2381 2855 2742 
Q 2594 3103 2138 3103 
Q 1681 3103 1420 2742 
Q 1159 2381 1159 1747 
Q 1159 1113 1420 752 
Q 1681 391 2138 391 
Q 2594 391 2855 752 
Q 3116 1113 3116 1747 
z
" transform="scale(0.015625)"/>
     </defs>
     <use xlink:href="#DejaVuSans-54"/>
     <use xlink:href="#DejaVuSans-69" transform="translate(57.958984 0)"/>
     <use xlink:href="#DejaVuSans-6d" transform="translate(85.742188 0)"/>
     <use xlink:href="#DejaVuSans-65" transform="translate(183.154297 0)"/>
     <use xlink:href="#DejaVuSans-20" transform="translate(244.677734 0)"/>
     <use xlink:href="#DejaVuSans-73" transform="translate(276.464844 0)"/>
     <use xlink:href="#DejaVuSans-74" transform="translate(328.564453 0)"/>
     <use xlink:href="#DejaVuSans-65" transform="translate(367.773438 0)"/>
     <use xlink:href="#DejaVuSans-70" transform="translate(429.296875 0)"/>
     <use xlink:href="#DejaVuSans-20" transform="translate(492.773438 0)"/>
     <use xlink:href="#DejaVuSans-20" transform="translate(524.560547 0)"/>
     <use xlink:href="#DejaVuSans-20" transform="translate(556.347656 0)"/>
     <use xlink:href="#DejaVuSans-30" transform="translate(588.134766 0)"/>
    </g>
   </g>
  </g>
  <g id="axes_2">
   <g id="patch_7">
    <path d="M 72 351.547826 
L 518.4 351.547826 
L 518.4 231.026087 
L 72 231.026087 
z
" style="fill: #ffffff"/>
   </g>
   <g id="FillBetweenPolyCollection_2">
    <defs>
     <path id="m1d14a0e347" d="M 72 -368.812895 
L 72 -368.452174 
L 76.509091 -368.452174 
L 81.018182 -368.452174 
L 85.527273 -368.452174 
L 90.036364 -368.452174 
L 94.545455 -368.452174 
L 99.054545 -368.452174 
L 103.563636 -368.452174 
L 108.072727 -368.452174 
L 112.581818 -368.452174 
L 117.090909 -368.452174 
L 121.6 -368.452174 
L 126.109091 -368.452174 
L 130.618182 -368.452174 
L 135.127273 -368.452174 
L 139.636364 -368.452174 
L 144.145455 -368.452174 
L 148.654545 -368.452174 
L 153.163636 -368.452174 
L 157.672727 -368.452174 
L 162.181818 -368.452174 
L 166.690909 -368.452174 
L 171.2 -368.452174 
L 175.709091 -368.452174 
L 180.218182 -368.452174 
L 184.727273 -368.452174 
L 189.236364 -368.452174 
L 193.745455 -368.452174 
L 198.254545 -368.452174 
L 202.763636 -368.452174 
L 207.272727 -368.452174 
L 211.781818 -368.452174 
L 216.290909 -368.452174 
L 220.8 -368.452174 
L 225.309091 -368.452174 
L 229.818182 -368.452174 
L 234.327273 -368.452174 
L 238.836364 -368.452174 
L 243.345455 -368.452174 
L 247.854545 -368.452174 
L 252.363636 -368.452174 
L 256.872727 -368.452174 
L 261.381818 -368.452174 
L 265.890909 -368.452174 
L 270.4 -368.452174 
L 274.909091 -368.452174 
L 279.418182 -368.452174 
L 283.927273 -368.452174 
L 288.436364 -368.452174 
L 292.945455 -368.452174 
L 297.454545 -368.452174 
L 301.963636 -368.452174 
L 306.472727 -368.452174 
L 310.981818 -368.452174 
L 315.490909 -368.452174 
L 320 -368.452174 
L 324.509091 -368.452174 
L 329.018182 -368.452174 
L 333.527273 -368.452174 
L 338.036364 -368.452174 
L 342.545455 -368.452174 
L 347.054545 -368.452174 
L 351.563636 -368.452174 
L 356.072727 -368.452174 
L 360.581818 -368.452174 
L 365.090909 -368.452174 
L 369.6 -368.452174 
L 374.109091 -368.452174 
L 378.618182 -368.452174 
L 383.127273 -368.452174 
L 387.636364 -368.452174 
L 392.145455 -368.452174 
L 396.654545 -368.452174 
L 401.163636 -368.452174 
L 405.672727 -368.452174 
L 410.181818 -368.452174 
L 414.690909 -368.452174 
L 419.2 -368.452174 
L 423.709091 -368.452174 
L 428.218182 -368.452174 
L 432.727273 -368.452174 
L 437.236364 -368.452174 
L 441.745455 -368.452174 
L 446.254545 -368.452174 
L 450.763636 -368.452174 
L 455.272727 -368.452174 
L 459.781818 -368.452174 
L 464.290909 -368.452174 
L 468.8 -368.452174 
L 473.309091 -368.452174 
L 477.818182 -368.452174 
L 482.327273 -368.452174 
L 486.836364 -368.452174 
L 491.345455 -368.452174 
L 495.854545 -368.452174 
L 500.363636 -368.452174 
L 504.872727 -368.452174 
L 509.381818 -368.452174 
L 513.890909 -368.452174 
L 518.4 -368.452174 
L 518.4 -368.723997 
L 518.4 -368.723997 
L 513.890909 -368.592182 
L 509.381818 -368.465449 
L 504.872727 -368.376675 
L 500.363636 -368.339416 
L 495.854545 -368.350957 
L 491.345455 -368.3954 
L 486.836364 -368.449961 
L 482.327273 -368.491659 
L 477.818182 -368.506282 
L 473.309091 -368.492688 
L 468.8 -368.46271 
L 464.290909 -368.434377 
L 459.781818 -368.421607 
L 455.272727 -368.428081 
L 450.763636 -368.446291 
L 446.254545 -368.463247 
L 441.745455 -368.468979 
L 437.236364 -368.46246 
L 432.727273 -368.451171 
L 428.218182 -368.443546 
L 423.709091 -368.442888 
L 419.2 -368.446997 
L 414.690909 -368.452193 
L 410.181818 -368.456152 
L 405.672727 -368.457654 
L 401.163636 -368.456121 
L 396.654545 -368.452173 
L 392.145455 -368.446933 
L 387.636364 -368.442895 
L 383.127273 -368.443568 
L 378.618182 -368.451125 
L 374.109091 -368.462536 
L 369.6 -368.469041 
L 365.090909 -368.463255 
L 360.581818 -368.446247 
L 356.072727 -368.427984 
L 351.563636 -368.421544 
L 347.054545 -368.434378 
L 342.545455 -368.462756 
L 338.036364 -368.492691 
L 333.527273 -368.506336 
L 329.018182 -368.491675 
L 324.509091 -368.449968 
L 320 -368.395509 
L 315.490909 -368.350997 
L 310.981818 -368.339503 
L 306.472727 -368.376722 
L 301.963636 -368.465558 
L 297.454545 -368.592243 
L 292.945455 -368.724124 
L 288.436364 -368.812948 
L 283.927273 -368.805955 
L 279.418182 -368.664933 
L 274.909091 -368.386943 
L 270.4 -368.021299 
L 265.890909 -367.672688 
L 261.381818 -367.490984 
L 256.872727 -367.650812 
L 252.363636 -368.327028 
L 247.854545 -369.673145 
L 243.345455 -371.809443 
L 238.836364 -374.822051 
L 234.327273 -378.774586 
L 229.818182 -383.733273 
L 225.309091 -389.797258 
L 220.8 -397.119039 
L 216.290909 -405.886598 
L 211.781818 -416.23317 
L 207.272727 -428.064909 
L 202.763636 -440.862904 
L 198.254545 -453.601163 
L 193.745455 -464.935362 
L 189.236364 -473.640365 
L 184.727273 -478.994127 
L 180.218182 -480.782082 
L 175.709091 -478.994178 
L 171.2 -473.640429 
L 166.690909 -464.935434 
L 162.181818 -453.60117 
L 157.672727 -440.862839 
L 153.163636 -428.064891 
L 148.654545 -416.233112 
L 144.145455 -405.886673 
L 139.636364 -397.119011 
L 135.127273 -389.797237 
L 130.618182 -383.733318 
L 126.109091 -378.774584 
L 121.6 -374.822039 
L 117.090909 -371.809491 
L 112.581818 -369.673177 
L 108.072727 -368.327027 
L 103.563636 -367.650796 
L 99.054545 -367.490926 
L 94.545455 -367.672565 
L 90.036364 -368.021291 
L 85.527273 -368.386889 
L 81.018182 -368.664864 
L 76.509091 -368.805896 
L 72 -368.812895 
z
" style="stroke: #0000ff; stroke-opacity: 0.4"/>
    </defs>
    <g clip-path="url(#pd0c7d1504f)">
     <use xlink:href="#m1d14a0e347" x="0" y="720" style="fill: #0000ff; fill-opacity: 0.4; stroke: #0000ff; stroke-opacity: 0.4"/>
    </g>
   </g>
   <g id="matplotlib.axis_3">
    <g id="xtick_5">
     <g id="line2d_20">
      <path d="M 180.218182 351.547826 
L 180.218182 231.026087 
" clip-path="url(#pd0c7d1504f)" style="fill: none; stroke: #b0b0b0; stroke-width: 0.8; stroke-linecap: square"/>
     </g>
     <g id="line2d_21">
      <g>
       <use xlink:href="#m0c2a9fbf59" x="180.218182" y="351.547826" style="stroke: #000000; stroke-width: 0.8"/>
      </g>
     </g>
    </g>
    <g id="xtick_6">
     <g id="line2d_22">
      <path d="M 292.945455 351.547826 
L 292.945455 231.026087 
" clip-path="url(#pd0c7d1504f)" style="fill: none; stroke: #b0b0b0; stroke-width: 0.8; stroke-linecap: square"/>
     </g>
     <g id="line2d_23">
      <g>
       <use xlink:href="#m0c2a9fbf59" x="292.945455" y="351.547826" style="stroke: #000000; stroke-width: 0.8"/>
      </g>
     </g>
    </g>
    <g id="xtick_7">
     <g id="line2d_24">
      <path d="M 405.672727 351.547826 
L 405.672727 231.026087 
" clip-path="url(#pd0c7d1504f)" style="fill: none; stroke: #b0b0b0; stroke-width: 0.8; stroke-linecap: square"/>
     </g>
     <g id="line2d_25">
      <g>
       <use xlink:href="#m0c2a9fbf59" x="405.672727" y="351.547826" style="stroke: #000000; stroke-width: 0.8"/>
      </g>
     </g>
    </g>
    <g id="xtick_8">
     <g id="line2d_26">
      <path d="M 518.4 351.547826 
L 518.4 231.026087 
" clip-path="url(#pd0c7d1504f)" style="fill: none; stroke: #b0b0b0; stroke-width: 0.8; stroke-linecap: square"/>
     </g>
     <g id="line2d_27">
      <g>
       <use xlink:href="#m0c2a9fbf59" x="518.4" y="351.547826" style="stroke: #000000; stroke-width: 0.8"/>
      </g>
     </g>
    </g>
   </g>
   <g id="matplotlib.axis_4">
    <g id="ytick_6">
     <g id="line2d_28">
      <path d="M 72 351.547826 
L 518.4 351.547826 
" clip-path="url(#pd0c7d1504f)" style="fill: none; stroke: #b0b0b0; stroke-width: 0.8; stroke-linecap: square"/>
     </g>
     <g id="line2d_29">
      <g>
       <use xlink:href="#m03b7df134f" x="72" y="351.547826" style="stroke: #000000; stroke-width: 0.8"/>
      </g>
     </g>
     <g id="text_8">
      <!-- 0.00 -->
      <g transform="translate(29.375 357.626576) scale(0.16 -0.16)">
       <use xlink:href="#DejaVuSans-30"/>
       <use xlink:href="#DejaVuSans-2e" transform="translate(63.623047 0)"/>
       <use xlink:href="#DejaVuSans-30" transform="translate(95.410156 0)"/>
       <use xlink:href="#DejaVuSans-30" transform="translate(159.033203 0)"/>
      </g>
     </g>
    </g>
    <g id="ytick_7">
     <g id="line2d_30">
      <path d="M 72 321.417391 
L 518.4 321.417391 
" clip-path="url(#pd0c7d1504f)" style="fill: none; stroke: #b0b0b0; stroke-width: 0.8; stroke-linecap: square"/>
     </g>
     <g id="line2d_31">
      <g>
       <use xlink:href="#m03b7df134f" x="72" y="321.417391" style="stroke: #000000; stroke-width: 0.8"/>
      </g>
     </g>
     <g id="text_9">
      <!-- 0.25 -->
      <g transform="translate(29.375 327.496141) scale(0.16 -0.16)">
       <use xlink:href="#DejaVuSans-30"/>
       <use xlink:href="#DejaVuSans-2e" transform="translate(63.623047 0)"/>
       <use xlink:href="#DejaVuSans-32" transform="translate(95.410156 0)"/>
       <use xlink:href="#DejaVuSans-35" transform="translate(159.033203 0)"/>
      </g>
     </g>
    </g>
    <g id="ytick_8">
     <g id="line2d_32">
      <path d="M 72 291.286957 
L 518.4 291.286957 
" clip-path="url(#pd0c7d1504f)" style="fill: none; stroke: #b0b0b0; stroke-width: 0.8; stroke-linecap: square"/>
     </g>
     <g id="line2d_33">
      <g>
       <use xlink:href="#m03b7df134f" x="72" y="291.286957" style="stroke: #000000; stroke-width: 0.8"/>
      </g>
     </g>
     <g id="text_10">
      <!-- 0.50 -->
      <g transform="translate(29.375 297.365707) scale(0.16 -0.16)">
       <use xlink:href="#DejaVuSans-30"/>
       <use xlink:href="#DejaVuSans-2e" transform="translate(63.623047 0)"/>
       <use xlink:href="#DejaVuSans-35" transform="translate(95.410156 0)"/>
       <use xlink:href="#DejaVuSans-30" transform="translate(159.033203 0)"/>
      </g>
     </g>
    </g>
    <g id="ytick_9">
     <g id="line2d_34">
      <path d="M 72 261.156522 
L 518.4 261.156522 
" clip-path="url(#pd0c7d1504f)" style="fill: none; stroke: #b0b0b0; stroke-width: 0.8; stroke-linecap: square"/>
     </g>
     <g id="line2d_35">
      <g>
       <use xlink:href="#m03b7df134f" x="72" y="261.156522" style="stroke: #000000; stroke-width: 0.8"/>
      </g>
     </g>
     <g id="text_11">
      <!-- 0.75 -->
      <g transform="translate(29.375 267.235272) scale(0.16 -0.16)">
       <use xlink:href="#DejaVuSans-30"/>
       <use xlink:href="#DejaVuSans-2e" transform="translate(63.623047 0)"/>
       <use xlink:href="#DejaVuSans-37" transform="translate(95.410156 0)"/>
       <use xlink:href="#DejaVuSans-35" transform="translate(159.033203 0)"/>
      </g>
     </g>
    </g>
    <g id="ytick_10">
     <g id="line2d_36">
      <path d="M 72 231.026087 
L 518.4 231.026087 
" clip-path="url(#pd0c7d1504f)" style="fill: none; stroke: #b0b0b0; stroke-width: 0.8; stroke-linecap: square"/>
     </g>
     <g id="line2d_37">
      <g>
       <use xlink:href="#m03b7df134f" x="72" y="231.026087" style="stroke: #000000; stroke-width: 0.8"/>
      </g>
     </g>
     <g id="text_12">
      <!-- 1.00 -->
      <g transform="translate(29.375 237.104837) scale(0.16 -0.16)">
       <use xlink:href="#DejaVuSans-31"/>
       <use xlink:href="#DejaVuSans-2e" transform="translate(63.623047 0)"/>
       <use xlink:href="#DejaVuSans-30" transform="translate(95.410156 0)"/>
       <use xlink:href="#DejaVuSans-30" transform="translate(159.033203 0)"/>
      </g>
     </g>
    </g>
    <g id="text_13">
     <!-- Height -->
     <g transform="translate(22.0475 317.733207) rotate(-90) scale(0.16 -0.16)">
      <use xlink:href="#DejaVuSans-48"/>
      <use xlink:href="#DejaVuSans-65" transform="translate(75.195312 0)"/>
      <use xlink:href="#DejaVuSans-69" transform="translate(136.71875 0)"/>
      <use xlink:href="#DejaVuSans-67" transform="translate(164.501953 0)"/>
      <use xlink:href="#DejaVuSans-68" transform="translate(227.978516 0)"/>
      <use xlink:href="#DejaVuSans-74" transform="translate(291.357422 0)"/>
     </g>
    </g>
   </g>
   <g id="line2d_38">
    <path d="M 72 351.187105 
L 76.509091 351.194104 
L 81.018182 351.335136 
L 85.527273 351.613111 
L 90.036364 351.978709 
L 94.545455 352.327435 
L 99.054545 352.509074 
L 103.563636 352.349204 
L 108.072727 351.672973 
L 112.581818 350.326823 
L 117.090909 348.190509 
L 121.6 345.177961 
L 126.109091 341.225416 
L 130.618182 336.266682 
L 135.127273 330.202763 
L 139.636364 322.880989 
L 144.145455 314.113327 
L 148.654545 303.766888 
L 153.163636 291.935109 
L 157.672727 279.137161 
L 162.181818 266.39883 
L 166.690909 255.064566 
L 171.2 246.359571 
L 175.709091 241.005822 
L 180.218182 239.217918 
L 184.727273 241.005873 
L 189.236364 246.359635 
L 193.745455 255.064638 
L 198.254545 266.398837 
L 202.763636 279.137096 
L 207.272727 291.935091 
L 211.781818 303.76683 
L 216.290909 314.113402 
L 220.8 322.880961 
L 225.309091 330.202742 
L 229.818182 336.266727 
L 234.327273 341.225414 
L 238.836364 345.177949 
L 243.345455 348.190557 
L 247.854545 350.326855 
L 252.363636 351.672972 
L 256.872727 352.349188 
L 261.381818 352.509016 
L 265.890909 352.327312 
L 270.4 351.978701 
L 274.909091 351.613057 
L 279.418182 351.335067 
L 283.927273 351.194045 
L 288.436364 351.187052 
L 292.945455 351.275876 
L 297.454545 351.407757 
L 301.963636 351.534442 
L 306.472727 351.623278 
L 310.981818 351.660497 
L 315.490909 351.649003 
L 320 351.604491 
L 324.509091 351.550032 
L 329.018182 351.508325 
L 333.527273 351.493664 
L 338.036364 351.507309 
L 342.545455 351.537244 
L 347.054545 351.565622 
L 351.563636 351.578456 
L 356.072727 351.572016 
L 360.581818 351.553753 
L 365.090909 351.536745 
L 369.6 351.530959 
L 374.109091 351.537464 
L 378.618182 351.548875 
L 383.127273 351.556432 
L 387.636364 351.557105 
L 392.145455 351.553067 
L 396.654545 351.547827 
L 401.163636 351.543879 
L 405.672727 351.542346 
L 410.181818 351.543848 
L 414.690909 351.547807 
L 419.2 351.553003 
L 423.709091 351.557112 
L 428.218182 351.556454 
L 432.727273 351.548829 
L 437.236364 351.53754 
L 441.745455 351.531021 
L 446.254545 351.536753 
L 450.763636 351.553709 
L 455.272727 351.571919 
L 459.781818 351.578393 
L 464.290909 351.565623 
L 468.8 351.53729 
L 473.309091 351.507312 
L 477.818182 351.493718 
L 482.327273 351.508341 
L 486.836364 351.550039 
L 491.345455 351.6046 
L 495.854545 351.649043 
L 500.363636 351.660584 
L 504.872727 351.623325 
L 509.381818 351.534551 
L 513.890909 351.407818 
L 518.4 351.276003 
" clip-path="url(#pd0c7d1504f)" style="fill: none; stroke: #0000ff; stroke-width: 1.5; stroke-linecap: square"/>
   </g>
   <g id="patch_8">
    <path d="M 72 351.547826 
L 72 231.026087 
" style="fill: none; stroke: #000000; stroke-width: 0.8; stroke-linejoin: miter; stroke-linecap: square"/>
   </g>
   <g id="patch_9">
    <path d="M 518.4 351.547826 
L 518.4 231.026087 
" style="fill: none; stroke: #000000; stroke-width: 0.8; stroke-linejoin: miter; stroke-linecap: square"/>
   </g>
   <g id="patch_10">
    <path d="M 72 351.547826 
L 518.4 351.547826 
" style="fill: none; stroke: #000000; stroke-width: 0.8; stroke-linejoin: miter; stroke-linecap: square"/>
   </g>
   <g id="patch_11">
    <path d="M 72 231.026087 
L 518.4 231.026087 
" style="fill: none; stroke: #000000; stroke-width: 0.8; stroke-linejoin: miter; stroke-linecap: square"/>
   </g>
   <g id="text_14">
    <!-- Time step 1000 -->
    <g transform="translate(220.4115 225.026087) scale(0.192 -0.192)">
     <use xlink:href="#DejaVuSans-54"/>
     <use xlink:href="#DejaVuSans-69" transform="translate(57.958984 0)"/>
     <use xlink:href="#DejaVuSans-6d" transform="translate(85.742188 0)"/>
     <use xlink:href="#DejaVuSans-65" transform="translate(183.154297 0)"/>
     <use xlink:href="#DejaVuSans-20" transform="translate(244.677734 0)"/>
     <use xlink:href="#DejaVuSans-73" transform="translate(276.464844 0)"/>
     <use xlink:href="#DejaVuSans-74" transform="translate(328.564453 0)"/>
     <use xlink:href="#DejaVuSans-65" transform="translate(367.773438 0)"/>
     <use xlink:href="#DejaVuSans-70" transform="translate(429.296875 0)"/>
     <use xlink:href="#DejaVuSans-20" transform="translate(492.773438 0)"/>
     <use xlink:href="#DejaVuSans-31" transform="translate(524.560547 0)"/>
     <use xlink:href="#DejaVuSans-30" transform="translate(588.183594 0)"/>
     <use xlink:href="#DejaVuSans-30" transform="translate(651.806641 0)"/>
     <use xlink:href="#DejaVuSans-30" transform="translate(715.429688 0)"/>
    </g>
   </g>
  </g>
  <g id="axes_3">
   <g id="patch_12">
    <path d="M 72 496.173913 
L 518.4 496.173913 
L 518.4 375.652174 
L 72 375.652174 
z
" style="fill: #ffffff"/>
   </g>
   <g id="FillBetweenPolyCollection_3">
    <defs>
     <path id="m54b0eaf431" d="M 72 -223.716755 
L 72 -223.826087 
L 76.509091 -223.826087 
L 81.018182 -223.826087 
L 85.527273 -223.826087 
L 90.036364 -223.826087 
L 94.545455 -223.826087 
L 99.054545 -223.826087 
L 103.563636 -223.826087 
L 108.072727 -223.826087 
L 112.581818 -223.826087 
L 117.090909 -223.826087 
L 121.6 -223.826087 
L 126.109091 -223.826087 
L 130.618182 -223.826087 
L 135.127273 -223.826087 
L 139.636364 -223.826087 
L 144.145455 -223.826087 
L 148.654545 -223.826087 
L 153.163636 -223.826087 
L 157.672727 -223.826087 
L 162.181818 -223.826087 
L 166.690909 -223.826087 
L 171.2 -223.826087 
L 175.709091 -223.826087 
L 180.218182 -223.826087 
L 184.727273 -223.826087 
L 189.236364 -223.826087 
L 193.745455 -223.826087 
L 198.254545 -223.826087 
L 202.763636 -223.826087 
L 207.272727 -223.826087 
L 211.781818 -223.826087 
L 216.290909 -223.826087 
L 220.8 -223.826087 
L 225.309091 -223.826087 
L 229.818182 -223.826087 
L 234.327273 -223.826087 
L 238.836364 -223.826087 
L 243.345455 -223.826087 
L 247.854545 -223.826087 
L 252.363636 -223.826087 
L 256.872727 -223.826087 
L 261.381818 -223.826087 
L 265.890909 -223.826087 
L 270.4 -223.826087 
L 274.909091 -223.826087 
L 279.418182 -223.826087 
L 283.927273 -223.826087 
L 288.436364 -223.826087 
L 292.945455 -223.826087 
L 297.454545 -223.826087 
L 301.963636 -223.826087 
L 306.472727 -223.826087 
L 310.981818 -223.826087 
L 315.490909 -223.826087 
L 320 -223.826087 
L 324.509091 -223.826087 
L 329.018182 -223.826087 
L 333.527273 -223.826087 
L 338.036364 -223.826087 
L 342.545455 -223.826087 
L 347.054545 -223.826087 
L 351.563636 -223.826087 
L 356.072727 -223.826087 
L 360.581818 -223.826087 
L 365.090909 -223.826087 
L 369.6 -223.826087 
L 374.109091 -223.826087 
L 378.618182 -223.826087 
L 383.127273 -223.826087 
L 387.636364 -223.826087 
L 392.145455 -223.826087 
L 396.654545 -223.826087 
L 401.163636 -223.826087 
L 405.672727 -223.826087 
L 410.181818 -223.826087 
L 414.690909 -223.826087 
L 419.2 -223.826087 
L 423.709091 -223.826087 
L 428.218182 -223.826087 
L 432.727273 -223.826087 
L 437.236364 -223.826087 
L 441.745455 -223.826087 
L 446.254545 -223.826087 
L 450.763636 -223.826087 
L 455.272727 -223.826087 
L 459.781818 -223.826087 
L 464.290909 -223.826087 
L 468.8 -223.826087 
L 473.309091 -223.826087 
L 477.818182 -223.826087 
L 482.327273 -223.826087 
L 486.836364 -223.826087 
L 491.345455 -223.826087 
L 495.854545 -223.826087 
L 500.363636 -223.826087 
L 504.872727 -223.826087 
L 509.381818 -223.826087 
L 513.890909 -223.826087 
L 518.4 -223.826087 
L 518.4 -222.63148 
L 518.4 -222.63148 
L 513.890909 -221.843923 
L 509.381818 -221.337461 
L 504.872727 -221.070365 
L 500.363636 -220.991804 
L 495.854545 -221.054254 
L 491.345455 -221.219116 
L 486.836364 -221.464567 
L 482.327273 -221.787926 
L 477.818182 -222.201233 
L 473.309091 -222.718026 
L 468.8 -223.34015 
L 464.290909 -224.04079 
L 459.781818 -224.759456 
L 455.272727 -225.414932 
L 450.763636 -225.924713 
L 446.254545 -226.214806 
L 441.745455 -226.230653 
L 437.236364 -225.947377 
L 432.727273 -225.376024 
L 428.218182 -224.575382 
L 423.709091 -223.651728 
L 419.2 -222.738229 
L 414.690909 -221.968072 
L 410.181818 -221.454371 
L 405.672727 -221.273886 
L 401.163636 -221.454236 
L 396.654545 -221.968028 
L 392.145455 -222.738178 
L 387.636364 -223.651728 
L 383.127273 -224.575504 
L 378.618182 -225.376137 
L 374.109091 -225.947362 
L 369.6 -226.230776 
L 365.090909 -226.214909 
L 360.581818 -225.924761 
L 356.072727 -225.414976 
L 351.563636 -224.759526 
L 347.054545 -224.040857 
L 342.545455 -223.340117 
L 338.036364 -222.717973 
L 333.527273 -222.201188 
L 329.018182 -221.788031 
L 324.509091 -221.464563 
L 320 -221.219225 
L 315.490909 -221.054244 
L 310.981818 -220.991806 
L 306.472727 -221.070366 
L 301.963636 -221.337499 
L 297.454545 -221.844016 
L 292.945455 -222.631442 
L 288.436364 -223.71675 
L 283.927273 -225.08457 
L 279.418182 -226.689892 
L 274.909091 -228.470779 
L 270.4 -230.375001 
L 265.890909 -232.39657 
L 261.381818 -234.612134 
L 256.872727 -237.213061 
L 252.363636 -240.516597 
L 247.854545 -244.939675 
L 243.345455 -250.921106 
L 238.836364 -258.765821 
L 234.327273 -268.390048 
L 229.818182 -279.012034 
L 225.309091 -288.974198 
L 220.8 -296.008376 
L 216.290909 -298.089841 
L 211.781818 -294.486878 
L 207.272727 -286.213426 
L 202.763636 -275.495193 
L 198.254545 -264.697505 
L 193.745455 -255.520407 
L 189.236364 -248.813341 
L 184.727273 -244.815933 
L 180.218182 -243.497615 
L 175.709091 -244.815911 
L 171.2 -248.813337 
L 166.690909 -255.520389 
L 162.181818 -264.697538 
L 157.672727 -275.495068 
L 153.163636 -286.213434 
L 148.654545 -294.486878 
L 144.145455 -298.090006 
L 139.636364 -296.008254 
L 135.127273 -288.974191 
L 130.618182 -279.011826 
L 126.109091 -268.389998 
L 121.6 -258.765756 
L 117.090909 -250.921154 
L 112.581818 -244.939646 
L 108.072727 -240.51665 
L 103.563636 -237.213107 
L 99.054545 -234.612126 
L 94.545455 -232.396459 
L 90.036364 -230.375013 
L 85.527273 -228.470752 
L 81.018182 -226.689928 
L 76.509091 -225.084499 
L 72 -223.716755 
z
" style="stroke: #0000ff; stroke-opacity: 0.4"/>
    </defs>
    <g clip-path="url(#p697cfcc274)">
     <use xlink:href="#m54b0eaf431" x="0" y="720" style="fill: #0000ff; fill-opacity: 0.4; stroke: #0000ff; stroke-opacity: 0.4"/>
    </g>
   </g>
   <g id="matplotlib.axis_5">
    <g id="xtick_9">
     <g id="line2d_39">
      <path d="M 180.218182 496.173913 
L 180.218182 375.652174 
" clip-path="url(#p697cfcc274)" style="fill: none; stroke: #b0b0b0; stroke-width: 0.8; stroke-linecap: square"/>
     </g>
     <g id="line2d_40">
      <g>
       <use xlink:href="#m0c2a9fbf59" x="180.218182" y="496.173913" style="stroke: #000000; stroke-width: 0.8"/>
      </g>
     </g>
    </g>
    <g id="xtick_10">
     <g id="line2d_41">
      <path d="M 292.945455 496.173913 
L 292.945455 375.652174 
" clip-path="url(#p697cfcc274)" style="fill: none; stroke: #b0b0b0; stroke-width: 0.8; stroke-linecap: square"/>
     </g>
     <g id="line2d_42">
      <g>
       <use xlink:href="#m0c2a9fbf59" x="292.945455" y="496.173913" style="stroke: #000000; stroke-width: 0.8"/>
      </g>
     </g>
    </g>
    <g id="xtick_11">
     <g id="line2d_43">
      <path d="M 405.672727 496.173913 
L 405.672727 375.652174 
" clip-path="url(#p697cfcc274)" style="fill: none; stroke: #b0b0b0; stroke-width: 0.8; stroke-linecap: square"/>
     </g>
     <g id="line2d_44">
      <g>
       <use xlink:href="#m0c2a9fbf59" x="405.672727" y="496.173913" style="stroke: #000000; stroke-width: 0.8"/>
      </g>
     </g>
    </g>
    <g id="xtick_12">
     <g id="line2d_45">
      <path d="M 518.4 496.173913 
L 518.4 375.652174 
" clip-path="url(#p697cfcc274)" style="fill: none; stroke: #b0b0b0; stroke-width: 0.8; stroke-linecap: square"/>
     </g>
     <g id="line2d_46">
      <g>
       <use xlink:href="#m0c2a9fbf59" x="518.4" y="496.173913" style="stroke: #000000; stroke-width: 0.8"/>
      </g>
     </g>
    </g>
   </g>
   <g id="matplotlib.axis_6">
    <g id="ytick_11">
     <g id="line2d_47">
      <path d="M 72 496.173913 
L 518.4 496.173913 
" clip-path="url(#p697cfcc274)" style="fill: none; stroke: #b0b0b0; stroke-width: 0.8; stroke-linecap: square"/>
     </g>
     <g id="line2d_48">
      <g>
       <use xlink:href="#m03b7df134f" x="72" y="496.173913" style="stroke: #000000; stroke-width: 0.8"/>
      </g>
     </g>
     <g id="text_15">
      <!-- 0.00 -->
      <g transform="translate(29.375 502.252663) scale(0.16 -0.16)">
       <use xlink:href="#DejaVuSans-30"/>
       <use xlink:href="#DejaVuSans-2e" transform="translate(63.623047 0)"/>
       <use xlink:href="#DejaVuSans-30" transform="translate(95.410156 0)"/>
       <use xlink:href="#DejaVuSans-30" transform="translate(159.033203 0)"/>
      </g>
     </g>
    </g>
    <g id="ytick_12">
     <g id="line2d_49">
      <path d="M 72 466.043478 
L 518.4 466.043478 
" clip-path="url(#p697cfcc274)" style="fill: none; stroke: #b0b0b0; stroke-width: 0.8; stroke-linecap: square"/>
     </g>
     <g id="line2d_50">
      <g>
       <use xlink:href="#m03b7df134f" x="72" y="466.043478" style="stroke: #000000; stroke-width: 0.8"/>
      </g>
     </g>
     <g id="text_16">
      <!-- 0.25 -->
      <g transform="translate(29.375 472.122228) scale(0.16 -0.16)">
       <use xlink:href="#DejaVuSans-30"/>
       <use xlink:href="#DejaVuSans-2e" transform="translate(63.623047 0)"/>
       <use xlink:href="#DejaVuSans-32" transform="translate(95.410156 0)"/>
       <use xlink:href="#DejaVuSans-35" transform="translate(159.033203 0)"/>
      </g>
     </g>
    </g>
    <g id="ytick_13">
     <g id="line2d_51">
      <path d="M 72 435.913043 
L 518.4 435.913043 
" clip-path="url(#p697cfcc274)" style="fill: none; stroke: #b0b0b0; stroke-width: 0.8; stroke-linecap: square"/>
     </g>
     <g id="line2d_52">
      <g>
       <use xlink:href="#m03b7df134f" x="72" y="435.913043" style="stroke: #000000; stroke-width: 0.8"/>
      </g>
     </g>
     <g id="text_17">
      <!-- 0.50 -->
      <g transform="translate(29.375 441.991793) scale(0.16 -0.16)">
       <use xlink:href="#DejaVuSans-30"/>
       <use xlink:href="#DejaVuSans-2e" transform="translate(63.623047 0)"/>
       <use xlink:href="#DejaVuSans-35" transform="translate(95.410156 0)"/>
       <use xlink:href="#DejaVuSans-30" transform="translate(159.033203 0)"/>
      </g>
     </g>
    </g>
    <g id="ytick_14">
     <g id="line2d_53">
      <path d="M 72 405.782609 
L 518.4 405.782609 
" clip-path="url(#p697cfcc274)" style="fill: none; stroke: #b0b0b0; stroke-width: 0.8; stroke-linecap: square"/>
     </g>
     <g id="line2d_54">
      <g>
       <use xlink:href="#m03b7df134f" x="72" y="405.782609" style="stroke: #000000; stroke-width: 0.8"/>
      </g>
     </g>
     <g id="text_18">
      <!-- 0.75 -->
      <g transform="translate(29.375 411.861359) scale(0.16 -0.16)">
       <use xlink:href="#DejaVuSans-30"/>
       <use xlink:href="#DejaVuSans-2e" transform="translate(63.623047 0)"/>
       <use xlink:href="#DejaVuSans-37" transform="translate(95.410156 0)"/>
       <use xlink:href="#DejaVuSans-35" transform="translate(159.033203 0)"/>
      </g>
     </g>
    </g>
    <g id="ytick_15">
     <g id="line2d_55">
      <path d="M 72 375.652174 
L 518.4 375.652174 
" clip-path="url(#p697cfcc274)" style="fill: none; stroke: #b0b0b0; stroke-width: 0.8; stroke-linecap: square"/>
     </g>
     <g id="line2d_56">
      <g>
       <use xlink:href="#m03b7df134f" x="72" y="375.652174" style="stroke: #000000; stroke-width: 0.8"/>
      </g>
     </g>
     <g id="text_19">
      <!-- 1.00 -->
      <g transform="translate(29.375 381.730924) scale(0.16 -0.16)">
       <use xlink:href="#DejaVuSans-31"/>
       <use xlink:href="#DejaVuSans-2e" transform="translate(63.623047 0)"/>
       <use xlink:href="#DejaVuSans-30" transform="translate(95.410156 0)"/>
       <use xlink:href="#DejaVuSans-30" transform="translate(159.033203 0)"/>
      </g>
     </g>
    </g>
    <g id="text_20">
     <!-- Height -->
     <g transform="translate(22.0475 462.359293) rotate(-90) scale(0.16 -0.16)">
      <use xlink:href="#DejaVuSans-48"/>
      <use xlink:href="#DejaVuSans-65" transform="translate(75.195312 0)"/>
      <use xlink:href="#DejaVuSans-69" transform="translate(136.71875 0)"/>
      <use xlink:href="#DejaVuSans-67" transform="translate(164.501953 0)"/>
      <use xlink:href="#DejaVuSans-68" transform="translate(227.978516 0)"/>
      <use xlink:href="#DejaVuSans-74" transform="translate(291.357422 0)"/>
     </g>
    </g>
   </g>
   <g id="line2d_57">
    <path d="M 72 496.283245 
L 76.509091 494.915501 
L 81.018182 493.310072 
L 85.527273 491.529248 
L 90.036364 489.624987 
L 94.545455 487.603541 
L 99.054545 485.387874 
L 103.563636 482.786893 
L 108.072727 479.48335 
L 112.581818 475.060354 
L 117.090909 469.078846 
L 121.6 461.234244 
L 126.109091 451.610002 
L 130.618182 440.988174 
L 135.127273 431.025809 
L 139.636364 423.991746 
L 144.145455 421.909994 
L 148.654545 425.513122 
L 153.163636 433.786566 
L 157.672727 444.504932 
L 162.181818 455.302462 
L 166.690909 464.479611 
L 171.2 471.186663 
L 175.709091 475.184089 
L 180.218182 476.502385 
L 184.727273 475.184067 
L 189.236364 471.186659 
L 193.745455 464.479593 
L 198.254545 455.302495 
L 202.763636 444.504807 
L 207.272727 433.786574 
L 211.781818 425.513122 
L 216.290909 421.910159 
L 220.8 423.991624 
L 225.309091 431.025802 
L 229.818182 440.987966 
L 234.327273 451.609952 
L 238.836364 461.234179 
L 243.345455 469.078894 
L 247.854545 475.060325 
L 252.363636 479.483403 
L 256.872727 482.786939 
L 261.381818 485.387866 
L 265.890909 487.60343 
L 270.4 489.624999 
L 274.909091 491.529221 
L 279.418182 493.310108 
L 283.927273 494.91543 
L 288.436364 496.28325 
L 292.945455 497.368558 
L 297.454545 498.155984 
L 301.963636 498.662501 
L 306.472727 498.929634 
L 310.981818 499.008194 
L 315.490909 498.945756 
L 320 498.780775 
L 324.509091 498.535437 
L 329.018182 498.211969 
L 333.527273 497.798812 
L 338.036364 497.282027 
L 342.545455 496.659883 
L 347.054545 495.959143 
L 351.563636 495.240474 
L 356.072727 494.585024 
L 360.581818 494.075239 
L 365.090909 493.785091 
L 369.6 493.769224 
L 374.109091 494.052638 
L 378.618182 494.623863 
L 383.127273 495.424496 
L 387.636364 496.348272 
L 392.145455 497.261822 
L 396.654545 498.031972 
L 401.163636 498.545764 
L 405.672727 498.726114 
L 410.181818 498.545629 
L 414.690909 498.031928 
L 419.2 497.261771 
L 423.709091 496.348272 
L 428.218182 495.424618 
L 432.727273 494.623976 
L 437.236364 494.052623 
L 441.745455 493.769347 
L 446.254545 493.785194 
L 450.763636 494.075287 
L 455.272727 494.585068 
L 459.781818 495.240544 
L 464.290909 495.95921 
L 468.8 496.65985 
L 473.309091 497.281974 
L 477.818182 497.798767 
L 482.327273 498.212074 
L 486.836364 498.535433 
L 491.345455 498.780884 
L 495.854545 498.945746 
L 500.363636 499.008196 
L 504.872727 498.929635 
L 509.381818 498.662539 
L 513.890909 498.156077 
L 518.4 497.36852 
" clip-path="url(#p697cfcc274)" style="fill: none; stroke: #0000ff; stroke-width: 1.5; stroke-linecap: square"/>
   </g>
   <g id="patch_13">
    <path d="M 72 496.173913 
L 72 375.652174 
" style="fill: none; stroke: #000000; stroke-width: 0.8; stroke-linejoin: miter; stroke-linecap: square"/>
   </g>
   <g id="patch_14">
    <path d="M 518.4 496.173913 
L 518.4 375.652174 
" style="fill: none; stroke: #000000; stroke-width: 0.8; stroke-linejoin: miter; stroke-linecap: square"/>
   </g>
   <g id="patch_15">
    <path d="M 72 496.173913 
L 518.4 496.173913 
" style="fill: none; stroke: #000000; stroke-width: 0.8; stroke-linejoin: miter; stroke-linecap: square"/>
   </g>
   <g id="patch_16">
    <path d="M 72 375.652174 
L 518.4 375.652174 
" style="fill: none; stroke: #000000; stroke-width: 0.8; stroke-linejoin: miter; stroke-linecap: square"/>
   </g>
   <g id="text_21">
    <!-- Time step 5000 -->
    <g transform="translate(220.4115 369.652174) scale(0.192 -0.192)">
     <use xlink:href="#DejaVuSans-54"/>
     <use xlink:href="#DejaVuSans-69" transform="translate(57.958984 0)"/>
     <use xlink:href="#DejaVuSans-6d" transform="translate(85.742188 0)"/>
     <use xlink:href="#DejaVuSans-65" transform="translate(183.154297 0)"/>
     <use xlink:href="#DejaVuSans-20" transform="translate(244.677734 0)"/>
     <use xlink:href="#DejaVuSans-73" transform="translate(276.464844 0)"/>
     <use xlink:href="#DejaVuSans-74" transform="translate(328.564453 0)"/>
     <use xlink:href="#DejaVuSans-65" transform="translate(367.773438 0)"/>
     <use xlink:href="#DejaVuSans-70" transform="translate(429.296875 0)"/>
     <use xlink:href="#DejaVuSans-20" transform="translate(492.773438 0)"/>
     <use xlink:href="#DejaVuSans-35" transform="translate(524.560547 0)"/>
     <use xlink:href="#DejaVuSans-30" transform="translate(588.183594 0)"/>
     <use xlink:href="#DejaVuSans-30" transform="translate(651.806641 0)"/>
     <use xlink:href="#DejaVuSans-30" transform="translate(715.429688 0)"/>
    </g>
   </g>
  </g>
  <g id="axes_4">
   <g id="patch_17">
    <path d="M 72 640.8 
L 518.4 640.8 
L 518.4 520.278261 
L 72 520.278261 
z
" style="fill: #ffffff"/>
   </g>
   <g id="FillBetweenPolyCollection_4">
    <defs>
     <path id="ma62f52b667" d="M 72 -95.434056 
L 72 -79.2 
L 76.509091 -79.2 
L 81.018182 -79.2 
L 85.527273 -79.2 
L 90.036364 -79.2 
L 94.545455 -79.2 
L 99.054545 -79.2 
L 103.563636 -79.2 
L 108.072727 -79.2 
L 112.581818 -79.2 
L 117.090909 -79.2 
L 121.6 -79.2 
L 126.109091 -79.2 
L 130.618182 -79.2 
L 135.127273 -79.2 
L 139.636364 -79.2 
L 144.145455 -79.2 
L 148.654545 -79.2 
L 153.163636 -79.2 
L 157.672727 -79.2 
L 162.181818 -79.2 
L 166.690909 -79.2 
L 171.2 -79.2 
L 175.709091 -79.2 
L 180.218182 -79.2 
L 184.727273 -79.2 
L 189.236364 -79.2 
L 193.745455 -79.2 
L 198.254545 -79.2 
L 202.763636 -79.2 
L 207.272727 -79.2 
L 211.781818 -79.2 
L 216.290909 -79.2 
L 220.8 -79.2 
L 225.309091 -79.2 
L 229.818182 -79.2 
L 234.327273 -79.2 
L 238.836364 -79.2 
L 243.345455 -79.2 
L 247.854545 -79.2 
L 252.363636 -79.2 
L 256.872727 -79.2 
L 261.381818 -79.2 
L 265.890909 -79.2 
L 270.4 -79.2 
L 274.909091 -79.2 
L 279.418182 -79.2 
L 283.927273 -79.2 
L 288.436364 -79.2 
L 292.945455 -79.2 
L 297.454545 -79.2 
L 301.963636 -79.2 
L 306.472727 -79.2 
L 310.981818 -79.2 
L 315.490909 -79.2 
L 320 -79.2 
L 324.509091 -79.2 
L 329.018182 -79.2 
L 333.527273 -79.2 
L 338.036364 -79.2 
L 342.545455 -79.2 
L 347.054545 -79.2 
L 351.563636 -79.2 
L 356.072727 -79.2 
L 360.581818 -79.2 
L 365.090909 -79.2 
L 369.6 -79.2 
L 374.109091 -79.2 
L 378.618182 -79.2 
L 383.127273 -79.2 
L 387.636364 -79.2 
L 392.145455 -79.2 
L 396.654545 -79.2 
L 401.163636 -79.2 
L 405.672727 -79.2 
L 410.181818 -79.2 
L 414.690909 -79.2 
L 419.2 -79.2 
L 423.709091 -79.2 
L 428.218182 -79.2 
L 432.727273 -79.2 
L 437.236364 -79.2 
L 441.745455 -79.2 
L 446.254545 -79.2 
L 450.763636 -79.2 
L 455.272727 -79.2 
L 459.781818 -79.2 
L 464.290909 -79.2 
L 468.8 -79.2 
L 473.309091 -79.2 
L 477.818182 -79.2 
L 482.327273 -79.2 
L 486.836364 -79.2 
L 491.345455 -79.2 
L 495.854545 -79.2 
L 500.363636 -79.2 
L 504.872727 -79.2 
L 509.381818 -79.2 
L 513.890909 -79.2 
L 518.4 -79.2 
L 518.4 -92.683178 
L 518.4 -92.683178 
L 513.890909 -90.401885 
L 509.381818 -88.318972 
L 504.872727 -86.298583 
L 500.363636 -84.310753 
L 495.854545 -82.393004 
L 491.345455 -80.614065 
L 486.836364 -79.046836 
L 482.327273 -77.749829 
L 477.818182 -76.758234 
L 473.309091 -76.082234 
L 468.8 -75.708873 
L 464.290909 -75.60326 
L 459.781818 -75.712886 
L 455.272727 -75.980655 
L 450.763636 -76.360951 
L 446.254545 -76.823137 
L 441.745455 -77.346125 
L 437.236364 -77.914975 
L 432.727273 -78.511836 
L 428.218182 -79.10879 
L 423.709091 -79.669143 
L 419.2 -80.153966 
L 414.690909 -80.531907 
L 410.181818 -80.777193 
L 405.672727 -80.863031 
L 401.163636 -80.777155 
L 396.654545 -80.532022 
L 392.145455 -80.154063 
L 387.636364 -79.669136 
L 383.127273 -79.108912 
L 378.618182 -78.511896 
L 374.109091 -77.915062 
L 369.6 -77.346177 
L 365.090909 -76.822983 
L 360.581818 -76.360962 
L 356.072727 -75.980638 
L 351.563636 -75.713003 
L 347.054545 -75.603499 
L 342.545455 -75.708863 
L 338.036364 -76.082281 
L 333.527273 -76.758333 
L 329.018182 -77.749836 
L 324.509091 -79.046807 
L 320 -80.614055 
L 315.490909 -82.393032 
L 310.981818 -84.310658 
L 306.472727 -86.298526 
L 301.963636 -88.31904 
L 297.454545 -90.401726 
L 292.945455 -92.683213 
L 288.436364 -95.434059 
L 283.927273 -99.073231 
L 279.418182 -104.131731 
L 274.909091 -111.127096 
L 270.4 -120.311205 
L 265.890909 -131.294882 
L 261.381818 -142.684513 
L 256.872727 -152.077481 
L 252.363636 -156.767869 
L 247.854545 -155.03293 
L 243.345455 -147.143329 
L 238.836364 -135.209812 
L 234.327273 -122.003319 
L 229.818182 -109.766059 
L 225.309091 -99.714559 
L 220.8 -92.171385 
L 216.290909 -86.932125 
L 211.781818 -83.576459 
L 207.272727 -81.645939 
L 202.763636 -80.721053 
L 198.254545 -80.443817 
L 193.745455 -80.521809 
L 189.236364 -80.737427 
L 184.727273 -80.93566 
L 180.218182 -81.01423 
L 175.709091 -80.935707 
L 171.2 -80.737571 
L 166.690909 -80.521729 
L 162.181818 -80.443878 
L 157.672727 -80.721067 
L 153.163636 -81.64579 
L 148.654545 -83.576362 
L 144.145455 -86.932231 
L 139.636364 -92.171499 
L 135.127273 -99.714652 
L 130.618182 -109.76607 
L 126.109091 -122.003294 
L 121.6 -135.209827 
L 117.090909 -147.143538 
L 112.581818 -155.032894 
L 108.072727 -156.767869 
L 103.563636 -152.077323 
L 99.054545 -142.684398 
L 94.545455 -131.294583 
L 90.036364 -120.31122 
L 85.527273 -111.127085 
L 81.018182 -104.131731 
L 76.509091 -99.073024 
L 72 -95.434056 
z
" style="stroke: #0000ff; stroke-opacity: 0.4"/>
    </defs>
    <g clip-path="url(#p3da540a984)">
     <use xlink:href="#ma62f52b667" x="0" y="720" style="fill: #0000ff; fill-opacity: 0.4; stroke: #0000ff; stroke-opacity: 0.4"/>
    </g>
   </g>
   <g id="matplotlib.axis_7">
    <g id="xtick_13">
     <g id="line2d_58">
      <path d="M 180.218182 640.8 
L 180.218182 520.278261 
" clip-path="url(#p3da540a984)" style="fill: none; stroke: #b0b0b0; stroke-width: 0.8; stroke-linecap: square"/>
     </g>
     <g id="line2d_59">
      <g>
       <use xlink:href="#m0c2a9fbf59" x="180.218182" y="640.8" style="stroke: #000000; stroke-width: 0.8"/>
      </g>
     </g>
     <g id="text_22">
      <!-- 25 -->
      <g transform="translate(170.038182 659.9575) scale(0.16 -0.16)">
       <use xlink:href="#DejaVuSans-32"/>
       <use xlink:href="#DejaVuSans-35" transform="translate(63.623047 0)"/>
      </g>
     </g>
    </g>
    <g id="xtick_14">
     <g id="line2d_60">
      <path d="M 292.945455 640.8 
L 292.945455 520.278261 
" clip-path="url(#p3da540a984)" style="fill: none; stroke: #b0b0b0; stroke-width: 0.8; stroke-linecap: square"/>
     </g>
     <g id="line2d_61">
      <g>
       <use xlink:href="#m0c2a9fbf59" x="292.945455" y="640.8" style="stroke: #000000; stroke-width: 0.8"/>
      </g>
     </g>
     <g id="text_23">
      <!-- 50 -->
      <g transform="translate(282.765455 659.9575) scale(0.16 -0.16)">
       <use xlink:href="#DejaVuSans-35"/>
       <use xlink:href="#DejaVuSans-30" transform="translate(63.623047 0)"/>
      </g>
     </g>
    </g>
    <g id="xtick_15">
     <g id="line2d_62">
      <path d="M 405.672727 640.8 
L 405.672727 520.278261 
" clip-path="url(#p3da540a984)" style="fill: none; stroke: #b0b0b0; stroke-width: 0.8; stroke-linecap: square"/>
     </g>
     <g id="line2d_63">
      <g>
       <use xlink:href="#m0c2a9fbf59" x="405.672727" y="640.8" style="stroke: #000000; stroke-width: 0.8"/>
      </g>
     </g>
     <g id="text_24">
      <!-- 75 -->
      <g transform="translate(395.492727 659.9575) scale(0.16 -0.16)">
       <use xlink:href="#DejaVuSans-37"/>
       <use xlink:href="#DejaVuSans-35" transform="translate(63.623047 0)"/>
      </g>
     </g>
    </g>
    <g id="xtick_16">
     <g id="line2d_64">
      <path d="M 518.4 640.8 
L 518.4 520.278261 
" clip-path="url(#p3da540a984)" style="fill: none; stroke: #b0b0b0; stroke-width: 0.8; stroke-linecap: square"/>
     </g>
     <g id="line2d_65">
      <g>
       <use xlink:href="#m0c2a9fbf59" x="518.4" y="640.8" style="stroke: #000000; stroke-width: 0.8"/>
      </g>
     </g>
     <g id="text_25">
      <!-- 100 -->
      <g transform="translate(503.13 659.9575) scale(0.16 -0.16)">
       <use xlink:href="#DejaVuSans-31"/>
       <use xlink:href="#DejaVuSans-30" transform="translate(63.623047 0)"/>
       <use xlink:href="#DejaVuSans-30" transform="translate(127.246094 0)"/>
      </g>
     </g>
    </g>
    <g id="text_26">
     <!-- Spatial grid index -->
     <g transform="translate(225.01375 679.4425) scale(0.16 -0.16)">
      <defs>
       <path id="DejaVuSans-53" d="M 3425 4513 
L 3425 3897 
Q 3066 4069 2747 4153 
Q 2428 4238 2131 4238 
Q 1616 4238 1336 4038 
Q 1056 3838 1056 3469 
Q 1056 3159 1242 3001 
Q 1428 2844 1947 2747 
L 2328 2669 
Q 3034 2534 3370 2195 
Q 3706 1856 3706 1288 
Q 3706 609 3251 259 
Q 2797 -91 1919 -91 
Q 1588 -91 1214 -16 
Q 841 59 441 206 
L 441 856 
Q 825 641 1194 531 
Q 1563 422 1919 422 
Q 2459 422 2753 634 
Q 3047 847 3047 1241 
Q 3047 1584 2836 1778 
Q 2625 1972 2144 2069 
L 1759 2144 
Q 1053 2284 737 2584 
Q 422 2884 422 3419 
Q 422 4038 858 4394 
Q 1294 4750 2059 4750 
Q 2388 4750 2728 4690 
Q 3069 4631 3425 4513 
z
" transform="scale(0.015625)"/>
       <path id="DejaVuSans-61" d="M 2194 1759 
Q 1497 1759 1228 1600 
Q 959 1441 959 1056 
Q 959 750 1161 570 
Q 1363 391 1709 391 
Q 2188 391 2477 730 
Q 2766 1069 2766 1631 
L 2766 1759 
L 2194 1759 
z
M 3341 1997 
L 3341 0 
L 2766 0 
L 2766 531 
Q 2569 213 2275 61 
Q 1981 -91 1556 -91 
Q 1019 -91 701 211 
Q 384 513 384 1019 
Q 384 1609 779 1909 
Q 1175 2209 1959 2209 
L 2766 2209 
L 2766 2266 
Q 2766 2663 2505 2880 
Q 2244 3097 1772 3097 
Q 1472 3097 1187 3025 
Q 903 2953 641 2809 
L 641 3341 
Q 956 3463 1253 3523 
Q 1550 3584 1831 3584 
Q 2591 3584 2966 3190 
Q 3341 2797 3341 1997 
z
" transform="scale(0.015625)"/>
       <path id="DejaVuSans-6c" d="M 603 4863 
L 1178 4863 
L 1178 0 
L 603 0 
L 603 4863 
z
" transform="scale(0.015625)"/>
       <path id="DejaVuSans-72" d="M 2631 2963 
Q 2534 3019 2420 3045 
Q 2306 3072 2169 3072 
Q 1681 3072 1420 2755 
Q 1159 2438 1159 1844 
L 1159 0 
L 581 0 
L 581 3500 
L 1159 3500 
L 1159 2956 
Q 1341 3275 1631 3429 
Q 1922 3584 2338 3584 
Q 2397 3584 2469 3576 
Q 2541 3569 2628 3553 
L 2631 2963 
z
" transform="scale(0.015625)"/>
       <path id="DejaVuSans-64" d="M 2906 2969 
L 2906 4863 
L 3481 4863 
L 3481 0 
L 2906 0 
L 2906 525 
Q 2725 213 2448 61 
Q 2172 -91 1784 -91 
Q 1150 -91 751 415 
Q 353 922 353 1747 
Q 353 2572 751 3078 
Q 1150 3584 1784 3584 
Q 2172 3584 2448 3432 
Q 2725 3281 2906 2969 
z
M 947 1747 
Q 947 1113 1208 752 
Q 1469 391 1925 391 
Q 2381 391 2643 752 
Q 2906 1113 2906 1747 
Q 2906 2381 2643 2742 
Q 2381 3103 1925 3103 
Q 1469 3103 1208 2742 
Q 947 2381 947 1747 
z
" transform="scale(0.015625)"/>
       <path id="DejaVuSans-6e" d="M 3513 2113 
L 3513 0 
L 2938 0 
L 2938 2094 
Q 2938 2591 2744 2837 
Q 2550 3084 2163 3084 
Q 1697 3084 1428 2787 
Q 1159 2491 1159 1978 
L 1159 0 
L 581 0 
L 581 3500 
L 1159 3500 
L 1159 2956 
Q 1366 3272 1645 3428 
Q 1925 3584 2291 3584 
Q 2894 3584 3203 3211 
Q 3513 2838 3513 2113 
z
" transform="scale(0.015625)"/>
       <path id="DejaVuSans-78" d="M 3513 3500 
L 2247 1797 
L 3578 0 
L 2900 0 
L 1881 1375 
L 863 0 
L 184 0 
L 1544 1831 
L 300 3500 
L 978 3500 
L 1906 2253 
L 2834 3500 
L 3513 3500 
z
" transform="scale(0.015625)"/>
      </defs>
      <use xlink:href="#DejaVuSans-53"/>
      <use xlink:href="#DejaVuSans-70" transform="translate(63.476562 0)"/>
      <use xlink:href="#DejaVuSans-61" transform="translate(126.953125 0)"/>
      <use xlink:href="#DejaVuSans-74" transform="translate(188.232422 0)"/>
      <use xlink:href="#DejaVuSans-69" transform="translate(227.441406 0)"/>
      <use xlink:href="#DejaVuSans-61" transform="translate(255.224609 0)"/>
      <use xlink:href="#DejaVuSans-6c" transform="translate(316.503906 0)"/>
      <use xlink:href="#DejaVuSans-20" transform="translate(344.287109 0)"/>
      <use xlink:href="#DejaVuSans-67" transform="translate(376.074219 0)"/>
      <use xlink:href="#DejaVuSans-72" transform="translate(439.550781 0)"/>
      <use xlink:href="#DejaVuSans-69" transform="translate(480.664062 0)"/>
      <use xlink:href="#DejaVuSans-64" transform="translate(508.447266 0)"/>
      <use xlink:href="#DejaVuSans-20" transform="translate(571.923828 0)"/>
      <use xlink:href="#DejaVuSans-69" transform="translate(603.710938 0)"/>
      <use xlink:href="#DejaVuSans-6e" transform="translate(631.494141 0)"/>
      <use xlink:href="#DejaVuSans-64" transform="translate(694.873047 0)"/>
      <use xlink:href="#DejaVuSans-65" transform="translate(758.349609 0)"/>
      <use xlink:href="#DejaVuSans-78" transform="translate(818.123047 0)"/>
     </g>
    </g>
   </g>
   <g id="matplotlib.axis_8">
    <g id="ytick_16">
     <g id="line2d_66">
      <path d="M 72 640.8 
L 518.4 640.8 
" clip-path="url(#p3da540a984)" style="fill: none; stroke: #b0b0b0; stroke-width: 0.8; stroke-linecap: square"/>
     </g>
     <g id="line2d_67">
      <g>
       <use xlink:href="#m03b7df134f" x="72" y="640.8" style="stroke: #000000; stroke-width: 0.8"/>
      </g>
     </g>
     <g id="text_27">
      <!-- 0.00 -->
      <g transform="translate(29.375 646.87875) scale(0.16 -0.16)">
       <use xlink:href="#DejaVuSans-30"/>
       <use xlink:href="#DejaVuSans-2e" transform="translate(63.623047 0)"/>
       <use xlink:href="#DejaVuSans-30" transform="translate(95.410156 0)"/>
       <use xlink:href="#DejaVuSans-30" transform="translate(159.033203 0)"/>
      </g>
     </g>
    </g>
    <g id="ytick_17">
     <g id="line2d_68">
      <path d="M 72 610.669565 
L 518.4 610.669565 
" clip-path="url(#p3da540a984)" style="fill: none; stroke: #b0b0b0; stroke-width: 0.8; stroke-linecap: square"/>
     </g>
     <g id="line2d_69">
      <g>
       <use xlink:href="#m03b7df134f" x="72" y="610.669565" style="stroke: #000000; stroke-width: 0.8"/>
      </g>
     </g>
     <g id="text_28">
      <!-- 0.25 -->
      <g transform="translate(29.375 616.748315) scale(0.16 -0.16)">
       <use xlink:href="#DejaVuSans-30"/>
       <use xlink:href="#DejaVuSans-2e" transform="translate(63.623047 0)"/>
       <use xlink:href="#DejaVuSans-32" transform="translate(95.410156 0)"/>
       <use xlink:href="#DejaVuSans-35" transform="translate(159.033203 0)"/>
      </g>
     </g>
    </g>
    <g id="ytick_18">
     <g id="line2d_70">
      <path d="M 72 580.53913 
L 518.4 580.53913 
" clip-path="url(#p3da540a984)" style="fill: none; stroke: #b0b0b0; stroke-width: 0.8; stroke-linecap: square"/>
     </g>
     <g id="line2d_71">
      <g>
       <use xlink:href="#m03b7df134f" x="72" y="580.53913" style="stroke: #000000; stroke-width: 0.8"/>
      </g>
     </g>
     <g id="text_29">
      <!-- 0.50 -->
      <g transform="translate(29.375 586.61788) scale(0.16 -0.16)">
       <use xlink:href="#DejaVuSans-30"/>
       <use xlink:href="#DejaVuSans-2e" transform="translate(63.623047 0)"/>
       <use xlink:href="#DejaVuSans-35" transform="translate(95.410156 0)"/>
       <use xlink:href="#DejaVuSans-30" transform="translate(159.033203 0)"/>
      </g>
     </g>
    </g>
    <g id="ytick_19">
     <g id="line2d_72">
      <path d="M 72 550.408696 
L 518.4 550.408696 
" clip-path="url(#p3da540a984)" style="fill: none; stroke: #b0b0b0; stroke-width: 0.8; stroke-linecap: square"/>
     </g>
     <g id="line2d_73">
      <g>
       <use xlink:href="#m03b7df134f" x="72" y="550.408696" style="stroke: #000000; stroke-width: 0.8"/>
      </g>
     </g>
     <g id="text_30">
      <!-- 0.75 -->
      <g transform="translate(29.375 556.487446) scale(0.16 -0.16)">
       <use xlink:href="#DejaVuSans-30"/>
       <use xlink:href="#DejaVuSans-2e" transform="translate(63.623047 0)"/>
       <use xlink:href="#DejaVuSans-37" transform="translate(95.410156 0)"/>
       <use xlink:href="#DejaVuSans-35" transform="translate(159.033203 0)"/>
      </g>
     </g>
    </g>
    <g id="ytick_20">
     <g id="line2d_74">
      <path d="M 72 520.278261 
L 518.4 520.278261 
" clip-path="url(#p3da540a984)" style="fill: none; stroke: #b0b0b0; stroke-width: 0.8; stroke-linecap: square"/>
     </g>
     <g id="line2d_75">
      <g>
       <use xlink:href="#m03b7df134f" x="72" y="520.278261" style="stroke: #000000; stroke-width: 0.8"/>
      </g>
     </g>
     <g id="text_31">
      <!-- 1.00 -->
      <g transform="translate(29.375 526.357011) scale(0.16 -0.16)">
       <use xlink:href="#DejaVuSans-31"/>
       <use xlink:href="#DejaVuSans-2e" transform="translate(63.623047 0)"/>
       <use xlink:href="#DejaVuSans-30" transform="translate(95.410156 0)"/>
       <use xlink:href="#DejaVuSans-30" transform="translate(159.033203 0)"/>
      </g>
     </g>
    </g>
    <g id="text_32">
     <!-- Height -->
     <g transform="translate(22.0475 606.98538) rotate(-90) scale(0.16 -0.16)">
      <use xlink:href="#DejaVuSans-48"/>
      <use xlink:href="#DejaVuSans-65" transform="translate(75.195312 0)"/>
      <use xlink:href="#DejaVuSans-69" transform="translate(136.71875 0)"/>
      <use xlink:href="#DejaVuSans-67" transform="translate(164.501953 0)"/>
      <use xlink:href="#DejaVuSans-68" transform="translate(227.978516 0)"/>
      <use xlink:href="#DejaVuSans-74" transform="translate(291.357422 0)"/>
     </g>
    </g>
   </g>
   <g id="line2d_76">
    <path d="M 72 624.565944 
L 76.509091 620.926976 
L 81.018182 615.868269 
L 85.527273 608.872915 
L 90.036364 599.68878 
L 94.545455 588.705417 
L 99.054545 577.315602 
L 103.563636 567.922677 
L 108.072727 563.232131 
L 112.581818 564.967106 
L 117.090909 572.856462 
L 121.6 584.790173 
L 126.109091 597.996706 
L 130.618182 610.23393 
L 135.127273 620.285348 
L 139.636364 627.828501 
L 144.145455 633.067769 
L 148.654545 636.423638 
L 153.163636 638.35421 
L 157.672727 639.278933 
L 162.181818 639.556122 
L 166.690909 639.478271 
L 171.2 639.262429 
L 175.709091 639.064293 
L 180.218182 638.98577 
L 184.727273 639.06434 
L 189.236364 639.262573 
L 193.745455 639.478191 
L 198.254545 639.556183 
L 202.763636 639.278947 
L 207.272727 638.354061 
L 211.781818 636.423541 
L 216.290909 633.067875 
L 220.8 627.828615 
L 225.309091 620.285441 
L 229.818182 610.233941 
L 234.327273 597.996681 
L 238.836364 584.790188 
L 243.345455 572.856671 
L 247.854545 564.96707 
L 252.363636 563.232131 
L 256.872727 567.922519 
L 261.381818 577.315487 
L 265.890909 588.705118 
L 270.4 599.688795 
L 274.909091 608.872904 
L 279.418182 615.868269 
L 283.927273 620.926769 
L 288.436364 624.565941 
L 292.945455 627.316787 
L 297.454545 629.598274 
L 301.963636 631.68096 
L 306.472727 633.701474 
L 310.981818 635.689342 
L 315.490909 637.606968 
L 320 639.385945 
L 324.509091 640.953193 
L 329.018182 642.250164 
L 333.527273 643.241667 
L 338.036364 643.917719 
L 342.545455 644.291137 
L 347.054545 644.396501 
L 351.563636 644.286997 
L 356.072727 644.019362 
L 360.581818 643.639038 
L 365.090909 643.177017 
L 369.6 642.653823 
L 374.109091 642.084938 
L 378.618182 641.488104 
L 383.127273 640.891088 
L 387.636364 640.330864 
L 392.145455 639.845937 
L 396.654545 639.467978 
L 401.163636 639.222845 
L 405.672727 639.136969 
L 410.181818 639.222807 
L 414.690909 639.468093 
L 419.2 639.846034 
L 423.709091 640.330857 
L 428.218182 640.89121 
L 432.727273 641.488164 
L 437.236364 642.085025 
L 441.745455 642.653875 
L 446.254545 643.176863 
L 450.763636 643.639049 
L 455.272727 644.019345 
L 459.781818 644.287114 
L 464.290909 644.39674 
L 468.8 644.291127 
L 473.309091 643.917766 
L 477.818182 643.241766 
L 482.327273 642.250171 
L 486.836364 640.953164 
L 491.345455 639.385935 
L 495.854545 637.606996 
L 500.363636 635.689247 
L 504.872727 633.701417 
L 509.381818 631.681028 
L 513.890909 629.598115 
L 518.4 627.316822 
" clip-path="url(#p3da540a984)" style="fill: none; stroke: #0000ff; stroke-width: 1.5; stroke-linecap: square"/>
   </g>
   <g id="patch_18">
    <path d="M 72 640.8 
L 72 520.278261 
" style="fill: none; stroke: #000000; stroke-width: 0.8; stroke-linejoin: miter; stroke-linecap: square"/>
   </g>
   <g id="patch_19">
    <path d="M 518.4 640.8 
L 518.4 520.278261 
" style="fill: none; stroke: #000000; stroke-width: 0.8; stroke-linejoin: miter; stroke-linecap: square"/>
   </g>
   <g id="patch_20">
    <path d="M 72 640.8 
L 518.4 640.8 
" style="fill: none; stroke: #000000; stroke-width: 0.8; stroke-linejoin: miter; stroke-linecap: square"/>
   </g>
   <g id="patch_21">
    <path d="M 72 520.278261 
L 518.4 520.278261 
" style="fill: none; stroke: #000000; stroke-width: 0.8; stroke-linejoin: miter; stroke-linecap: square"/>
   </g>
   <g id="text_33">
    <!-- Time step 10000 -->
    <g transform="translate(214.3035 514.278261) scale(0.192 -0.192)">
     <use xlink:href="#DejaVuSans-54"/>
     <use xlink:href="#DejaVuSans-69" transform="translate(57.958984 0)"/>
     <use xlink:href="#DejaVuSans-6d" transform="translate(85.742188 0)"/>
     <use xlink:href="#DejaVuSans-65" transform="translate(183.154297 0)"/>
     <use xlink:href="#DejaVuSans-20" transform="translate(244.677734 0)"/>
     <use xlink:href="#DejaVuSans-73" transform="translate(276.464844 0)"/>
     <use xlink:href="#DejaVuSans-74" transform="translate(328.564453 0)"/>
     <use xlink:href="#DejaVuSans-65" transform="translate(367.773438 0)"/>
     <use xlink:href="#DejaVuSans-70" transform="translate(429.296875 0)"/>
     <use xlink:href="#DejaVuSans-20" transform="translate(492.773438 0)"/>
     <use xlink:href="#DejaVuSans-31" transform="translate(524.560547 0)"/>
     <use xlink:href="#DejaVuSans-30" transform="translate(588.183594 0)"/>
     <use xlink:href="#DejaVuSans-30" transform="translate(651.806641 0)"/>
     <use xlink:href="#DejaVuSans-30" transform="translate(715.429688 0)"/>
     <use xlink:href="#DejaVuSans-30" transform="translate(779.052734 0)"/>
    </g>
   </g>
  </g>
 </g>
 <defs>
  <clipPath id="peafbb6ad8b">
   <rect x="72" y="86.4" width="446.4" height="120.521739"/>
  </clipPath>
  <clipPath id="pd0c7d1504f">
   <rect x="72" y="231.026087" width="446.4" height="120.521739"/>
  </clipPath>
  <clipPath id="p697cfcc274">
   <rect x="72" y="375.652174" width="446.4" height="120.521739"/>
  </clipPath>
  <clipPath id="p3da540a984">
   <rect x="72" y="520.278261" width="446.4" height="120.521739"/>
  </clipPath>
 </defs>
</svg>
